ISO-10303-21;
HEADER;
/* Generated by software containing ST-Developer
 * from STEP Tools, Inc. (www.steptools.com) 
 */

FILE_DESCRIPTION(
/* description */ (''),
/* implementation_level */ '2;1');

FILE_NAME(
/* name */ 'Base.step',
/* time_stamp */ '2026-08-11T20:04:52+03:00',
/* author */ (''),
/* organization */ (''),
/* preprocessor_version */ 'ST-DEVELOPER v20.1',
/* originating_system */ 'Autodesk Translation Framework v15.8.0.0',
/* authorisation */ '');

FILE_SCHEMA (('AUTOMOTIVE_DESIGN { 1 0 10303 214 3 1 1 }'));
ENDSEC;

DATA;
#10=MECHANICAL_DESIGN_GEOMETRIC_PRESENTATION_REPRESENTATION('',(#13),#2196);
#11=SHAPE_REPRESENTATION_RELATIONSHIP('SRR','None',#2203,#12);
#12=ADVANCED_BREP_SHAPE_REPRESENTATION('',(#14),#2195);
#13=STYLED_ITEM('',(#2212),#14);
#14=MANIFOLD_SOLID_BREP('Body4',#1262);
#15=FACE_BOUND('',#407,.T.);
#16=B_SPLINE_CURVE_WITH_KNOTS('',3,(#1966,#1967,#1968,#1969,#1970,#1971),
 .UNSPECIFIED.,.F.,.F.,(4,2,4),(0.,0.117562819132908,0.194026045695578),
 .UNSPECIFIED.);
#17=B_SPLINE_CURVE_WITH_KNOTS('',3,(#1975,#1976,#1977,#1978,#1979,#1980),
 .UNSPECIFIED.,.F.,.F.,(4,2,4),(0.50553224003851,0.581995466601179,0.699558285734088),
 .UNSPECIFIED.);
#18=B_SPLINE_CURVE_WITH_KNOTS('',3,(#1984,#1985,#1986,#1987,#1988,#1989),
 .UNSPECIFIED.,.F.,.F.,(4,2,4),(0.,0.117562819132908,0.194026045695578),
 .UNSPECIFIED.);
#19=B_SPLINE_CURVE_WITH_KNOTS('',3,(#1992,#1993,#1994,#1995,#1996,#1997),
 .UNSPECIFIED.,.F.,.F.,(4,2,4),(0.50553224003851,0.581995466601179,0.699558285734088),
 .UNSPECIFIED.);
#20=PLANE('',#1336);
#21=PLANE('',#1339);
#22=PLANE('',#1342);
#23=PLANE('',#1345);
#24=PLANE('',#1348);
#25=PLANE('',#1349);
#26=PLANE('',#1350);
#27=PLANE('',#1358);
#28=PLANE('',#1361);
#29=PLANE('',#1363);
#30=PLANE('',#1365);
#31=PLANE('',#1373);
#32=PLANE('',#1381);
#33=PLANE('',#1394);
#34=PLANE('',#1396);
#35=PLANE('',#1397);
#36=PLANE('',#1398);
#37=PLANE('',#1399);
#38=PLANE('',#1400);
#39=PLANE('',#1401);
#40=PLANE('',#1402);
#41=PLANE('',#1403);
#42=PLANE('',#1404);
#43=PLANE('',#1405);
#44=PLANE('',#1406);
#45=PLANE('',#1407);
#46=PLANE('',#1408);
#47=PLANE('',#1409);
#48=PLANE('',#1410);
#49=PLANE('',#1411);
#50=PLANE('',#1412);
#51=PLANE('',#1413);
#52=LINE('',#1820,#165);
#53=LINE('',#1822,#166);
#54=LINE('',#1823,#167);
#55=LINE('',#1824,#168);
#56=LINE('',#1835,#169);
#57=LINE('',#1836,#170);
#58=LINE('',#1847,#171);
#59=LINE('',#1848,#172);
#60=LINE('',#1859,#173);
#61=LINE('',#1860,#174);
#62=LINE('',#1871,#175);
#63=LINE('',#1872,#176);
#64=LINE('',#1883,#177);
#65=LINE('',#1884,#178);
#66=LINE('',#1895,#179);
#67=LINE('',#1896,#180);
#68=LINE('',#1907,#181);
#69=LINE('',#1908,#182);
#70=LINE('',#1919,#183);
#71=LINE('',#1920,#184);
#72=LINE('',#1928,#185);
#73=LINE('',#1929,#186);
#74=LINE('',#1932,#187);
#75=LINE('',#1934,#188);
#76=LINE('',#1935,#189);
#77=LINE('',#1938,#190);
#78=LINE('',#1942,#191);
#79=LINE('',#1943,#192);
#80=LINE('',#1946,#193);
#81=LINE('',#1950,#194);
#82=LINE('',#1951,#195);
#83=LINE('',#1954,#196);
#84=LINE('',#1958,#197);
#85=LINE('',#1959,#198);
#86=LINE('',#1962,#199);
#87=LINE('',#1973,#200);
#88=LINE('',#1982,#201);
#89=LINE('',#1991,#202);
#90=LINE('',#1999,#203);
#91=LINE('',#2000,#204);
#92=LINE('',#2006,#205);
#93=LINE('',#2010,#206);
#94=LINE('',#2014,#207);
#95=LINE('',#2018,#208);
#96=LINE('',#2022,#209);
#97=LINE('',#2026,#210);
#98=LINE('',#2028,#211);
#99=LINE('',#2030,#212);
#100=LINE('',#2032,#213);
#101=LINE('',#2034,#214);
#102=LINE('',#2035,#215);
#103=LINE('',#2037,#216);
#104=LINE('',#2038,#217);
#105=LINE('',#2040,#218);
#106=LINE('',#2043,#219);
#107=LINE('',#2044,#220);
#108=LINE('',#2046,#221);
#109=LINE('',#2048,#222);
#110=LINE('',#2050,#223);
#111=LINE('',#2052,#224);
#112=LINE('',#2054,#225);
#113=LINE('',#2061,#226);
#114=LINE('',#2064,#227);
#115=LINE('',#2070,#228);
#116=LINE('',#2072,#229);
#117=LINE('',#2074,#230);
#118=LINE('',#2076,#231);
#119=LINE('',#2078,#232);
#120=LINE('',#2080,#233);
#121=LINE('',#2082,#234);
#122=LINE('',#2084,#235);
#123=LINE('',#2096,#236);
#124=LINE('',#2097,#237);
#125=LINE('',#2102,#238);
#126=LINE('',#2103,#239);
#127=LINE('',#2108,#240);
#128=LINE('',#2119,#241);
#129=LINE('',#2121,#242);
#130=LINE('',#2123,#243);
#131=LINE('',#2125,#244);
#132=LINE('',#2127,#245);
#133=LINE('',#2131,#246);
#134=LINE('',#2133,#247);
#135=LINE('',#2135,#248);
#136=LINE('',#2136,#249);
#137=LINE('',#2139,#250);
#138=LINE('',#2141,#251);
#139=LINE('',#2142,#252);
#140=LINE('',#2145,#253);
#141=LINE('',#2147,#254);
#142=LINE('',#2148,#255);
#143=LINE('',#2150,#256);
#144=LINE('',#2151,#257);
#145=LINE('',#2154,#258);
#146=LINE('',#2155,#259);
#147=LINE('',#2159,#260);
#148=LINE('',#2161,#261);
#149=LINE('',#2163,#262);
#150=LINE('',#2164,#263);
#151=LINE('',#2167,#264);
#152=LINE('',#2169,#265);
#153=LINE('',#2170,#266);
#154=LINE('',#2173,#267);
#155=LINE('',#2175,#268);
#156=LINE('',#2176,#269);
#157=LINE('',#2178,#270);
#158=LINE('',#2180,#271);
#159=LINE('',#2181,#272);
#160=LINE('',#2182,#273);
#161=LINE('',#2184,#274);
#162=LINE('',#2186,#275);
#163=LINE('',#2188,#276);
#164=LINE('',#2190,#277);
#165=VECTOR('',#1430,10.);
#166=VECTOR('',#1431,10.);
#167=VECTOR('',#1432,10.);
#168=VECTOR('',#1433,10.);
#169=VECTOR('',#1446,10.);
#170=VECTOR('',#1447,10.);
#171=VECTOR('',#1460,10.);
#172=VECTOR('',#1461,10.);
#173=VECTOR('',#1474,10.);
#174=VECTOR('',#1475,10.);
#175=VECTOR('',#1488,10.);
#176=VECTOR('',#1489,10.);
#177=VECTOR('',#1502,10.);
#178=VECTOR('',#1503,10.);
#179=VECTOR('',#1516,10.);
#180=VECTOR('',#1517,10.);
#181=VECTOR('',#1530,10.);
#182=VECTOR('',#1531,10.);
#183=VECTOR('',#1544,10.);
#184=VECTOR('',#1545,10.);
#185=VECTOR('',#1556,10.);
#186=VECTOR('',#1557,10.);
#187=VECTOR('',#1560,10.);
#188=VECTOR('',#1561,10.);
#189=VECTOR('',#1562,10.);
#190=VECTOR('',#1565,10.);
#191=VECTOR('',#1570,10.);
#192=VECTOR('',#1571,10.);
#193=VECTOR('',#1574,10.);
#194=VECTOR('',#1579,10.);
#195=VECTOR('',#1580,10.);
#196=VECTOR('',#1583,10.);
#197=VECTOR('',#1588,10.);
#198=VECTOR('',#1589,10.);
#199=VECTOR('',#1592,10.);
#200=VECTOR('',#1597,10.);
#201=VECTOR('',#1598,10.);
#202=VECTOR('',#1599,10.);
#203=VECTOR('',#1600,10.);
#204=VECTOR('',#1601,10.);
#205=VECTOR('',#1608,10.);
#206=VECTOR('',#1611,10.);
#207=VECTOR('',#1614,10.);
#208=VECTOR('',#1617,10.);
#209=VECTOR('',#1620,10.);
#210=VECTOR('',#1623,10.);
#211=VECTOR('',#1624,10.);
#212=VECTOR('',#1625,10.);
#213=VECTOR('',#1626,10.);
#214=VECTOR('',#1627,10.);
#215=VECTOR('',#1628,10.);
#216=VECTOR('',#1631,10.);
#217=VECTOR('',#1632,10.);
#218=VECTOR('',#1635,10.);
#219=VECTOR('',#1640,10.);
#220=VECTOR('',#1641,10.);
#221=VECTOR('',#1644,10.);
#222=VECTOR('',#1647,10.);
#223=VECTOR('',#1650,10.);
#224=VECTOR('',#1653,10.);
#225=VECTOR('',#1656,10.);
#226=VECTOR('',#1663,10.);
#227=VECTOR('',#1666,10.);
#228=VECTOR('',#1675,10.);
#229=VECTOR('',#1676,10.);
#230=VECTOR('',#1677,10.);
#231=VECTOR('',#1678,10.);
#232=VECTOR('',#1679,10.);
#233=VECTOR('',#1680,10.);
#234=VECTOR('',#1681,10.);
#235=VECTOR('',#1682,10.);
#236=VECTOR('',#1697,10.);
#237=VECTOR('',#1698,10.);
#238=VECTOR('',#1703,10.);
#239=VECTOR('',#1704,10.);
#240=VECTOR('',#1709,10.);
#241=VECTOR('',#1726,10.);
#242=VECTOR('',#1729,10.);
#243=VECTOR('',#1732,10.);
#244=VECTOR('',#1735,10.);
#245=VECTOR('',#1738,10.);
#246=VECTOR('',#1741,10.);
#247=VECTOR('',#1742,10.);
#248=VECTOR('',#1743,10.);
#249=VECTOR('',#1744,10.);
#250=VECTOR('',#1747,10.);
#251=VECTOR('',#1748,10.);
#252=VECTOR('',#1749,10.);
#253=VECTOR('',#1752,10.);
#254=VECTOR('',#1753,10.);
#255=VECTOR('',#1754,10.);
#256=VECTOR('',#1757,10.);
#257=VECTOR('',#1758,10.);
#258=VECTOR('',#1763,10.);
#259=VECTOR('',#1764,10.);
#260=VECTOR('',#1767,10.);
#261=VECTOR('',#1768,10.);
#262=VECTOR('',#1769,10.);
#263=VECTOR('',#1770,10.);
#264=VECTOR('',#1773,10.);
#265=VECTOR('',#1774,10.);
#266=VECTOR('',#1775,10.);
#267=VECTOR('',#1778,10.);
#268=VECTOR('',#1779,10.);
#269=VECTOR('',#1780,10.);
#270=VECTOR('',#1783,10.);
#271=VECTOR('',#1786,10.);
#272=VECTOR('',#1787,10.);
#273=VECTOR('',#1788,10.);
#274=VECTOR('',#1791,10.);
#275=VECTOR('',#1794,10.);
#276=VECTOR('',#1797,10.);
#277=VECTOR('',#1800,10.);
#278=CYLINDRICAL_SURFACE('',#1281,1.);
#279=CYLINDRICAL_SURFACE('',#1287,1.);
#280=CYLINDRICAL_SURFACE('',#1293,1.);
#281=CYLINDRICAL_SURFACE('',#1299,1.);
#282=CYLINDRICAL_SURFACE('',#1305,1.);
#283=CYLINDRICAL_SURFACE('',#1311,1.);
#284=CYLINDRICAL_SURFACE('',#1317,1.);
#285=CYLINDRICAL_SURFACE('',#1323,1.);
#286=CYLINDRICAL_SURFACE('',#1329,1.);
#287=CYLINDRICAL_SURFACE('',#1335,1.);
#288=CYLINDRICAL_SURFACE('',#1337,5.);
#289=CYLINDRICAL_SURFACE('',#1340,5.);
#290=CYLINDRICAL_SURFACE('',#1343,5.);
#291=CYLINDRICAL_SURFACE('',#1346,5.);
#292=CYLINDRICAL_SURFACE('',#1357,5.);
#293=CYLINDRICAL_SURFACE('',#1359,5.);
#294=CYLINDRICAL_SURFACE('',#1360,5.);
#295=CYLINDRICAL_SURFACE('',#1362,5.);
#296=CYLINDRICAL_SURFACE('',#1364,5.);
#297=CYLINDRICAL_SURFACE('',#1366,5.);
#298=CYLINDRICAL_SURFACE('',#1367,1.);
#299=CYLINDRICAL_SURFACE('',#1379,1.);
#300=CYLINDRICAL_SURFACE('',#1383,1.);
#301=CYLINDRICAL_SURFACE('',#1391,1.);
#302=CYLINDRICAL_SURFACE('',#1393,1.);
#303=CYLINDRICAL_SURFACE('',#1395,1.);
#304=FACE_OUTER_BOUND('',#376,.T.);
#305=FACE_OUTER_BOUND('',#377,.T.);
#306=FACE_OUTER_BOUND('',#378,.T.);
#307=FACE_OUTER_BOUND('',#379,.T.);
#308=FACE_OUTER_BOUND('',#380,.T.);
#309=FACE_OUTER_BOUND('',#381,.T.);
#310=FACE_OUTER_BOUND('',#382,.T.);
#311=FACE_OUTER_BOUND('',#383,.T.);
#312=FACE_OUTER_BOUND('',#384,.T.);
#313=FACE_OUTER_BOUND('',#385,.T.);
#314=FACE_OUTER_BOUND('',#386,.T.);
#315=FACE_OUTER_BOUND('',#387,.T.);
#316=FACE_OUTER_BOUND('',#388,.T.);
#317=FACE_OUTER_BOUND('',#389,.T.);
#318=FACE_OUTER_BOUND('',#390,.T.);
#319=FACE_OUTER_BOUND('',#391,.T.);
#320=FACE_OUTER_BOUND('',#392,.T.);
#321=FACE_OUTER_BOUND('',#393,.T.);
#322=FACE_OUTER_BOUND('',#394,.T.);
#323=FACE_OUTER_BOUND('',#395,.T.);
#324=FACE_OUTER_BOUND('',#396,.T.);
#325=FACE_OUTER_BOUND('',#397,.T.);
#326=FACE_OUTER_BOUND('',#398,.T.);
#327=FACE_OUTER_BOUND('',#399,.T.);
#328=FACE_OUTER_BOUND('',#400,.T.);
#329=FACE_OUTER_BOUND('',#401,.T.);
#330=FACE_OUTER_BOUND('',#402,.T.);
#331=FACE_OUTER_BOUND('',#403,.T.);
#332=FACE_OUTER_BOUND('',#404,.T.);
#333=FACE_OUTER_BOUND('',#405,.T.);
#334=FACE_OUTER_BOUND('',#406,.T.);
#335=FACE_OUTER_BOUND('',#408,.T.);
#336=FACE_OUTER_BOUND('',#409,.T.);
#337=FACE_OUTER_BOUND('',#410,.T.);
#338=FACE_OUTER_BOUND('',#411,.T.);
#339=FACE_OUTER_BOUND('',#412,.T.);
#340=FACE_OUTER_BOUND('',#413,.T.);
#341=FACE_OUTER_BOUND('',#414,.T.);
#342=FACE_OUTER_BOUND('',#415,.T.);
#343=FACE_OUTER_BOUND('',#416,.T.);
#344=FACE_OUTER_BOUND('',#417,.T.);
#345=FACE_OUTER_BOUND('',#418,.T.);
#346=FACE_OUTER_BOUND('',#419,.T.);
#347=FACE_OUTER_BOUND('',#420,.T.);
#348=FACE_OUTER_BOUND('',#421,.T.);
#349=FACE_OUTER_BOUND('',#422,.T.);
#350=FACE_OUTER_BOUND('',#423,.T.);
#351=FACE_OUTER_BOUND('',#424,.T.);
#352=FACE_OUTER_BOUND('',#425,.T.);
#353=FACE_OUTER_BOUND('',#426,.T.);
#354=FACE_OUTER_BOUND('',#427,.T.);
#355=FACE_OUTER_BOUND('',#428,.T.);
#356=FACE_OUTER_BOUND('',#429,.T.);
#357=FACE_OUTER_BOUND('',#430,.T.);
#358=FACE_OUTER_BOUND('',#431,.T.);
#359=FACE_OUTER_BOUND('',#432,.T.);
#360=FACE_OUTER_BOUND('',#433,.T.);
#361=FACE_OUTER_BOUND('',#434,.T.);
#362=FACE_OUTER_BOUND('',#435,.T.);
#363=FACE_OUTER_BOUND('',#436,.T.);
#364=FACE_OUTER_BOUND('',#437,.T.);
#365=FACE_OUTER_BOUND('',#438,.T.);
#366=FACE_OUTER_BOUND('',#439,.T.);
#367=FACE_OUTER_BOUND('',#440,.T.);
#368=FACE_OUTER_BOUND('',#441,.T.);
#369=FACE_OUTER_BOUND('',#442,.T.);
#370=FACE_OUTER_BOUND('',#443,.T.);
#371=FACE_OUTER_BOUND('',#444,.T.);
#372=FACE_OUTER_BOUND('',#445,.T.);
#373=FACE_OUTER_BOUND('',#446,.T.);
#374=FACE_OUTER_BOUND('',#447,.T.);
#375=FACE_OUTER_BOUND('',#448,.T.);
#376=EDGE_LOOP('',(#810,#811,#812,#813));
#377=EDGE_LOOP('',(#814,#815,#816,#817,#818,#819));
#378=EDGE_LOOP('',(#820,#821,#822,#823));
#379=EDGE_LOOP('',(#824,#825,#826,#827));
#380=EDGE_LOOP('',(#828,#829,#830,#831));
#381=EDGE_LOOP('',(#832,#833,#834,#835));
#382=EDGE_LOOP('',(#836,#837,#838,#839));
#383=EDGE_LOOP('',(#840,#841,#842,#843));
#384=EDGE_LOOP('',(#844,#845,#846,#847));
#385=EDGE_LOOP('',(#848,#849,#850,#851));
#386=EDGE_LOOP('',(#852,#853,#854,#855));
#387=EDGE_LOOP('',(#856,#857,#858,#859));
#388=EDGE_LOOP('',(#860,#861,#862,#863));
#389=EDGE_LOOP('',(#864,#865,#866,#867));
#390=EDGE_LOOP('',(#868,#869,#870,#871));
#391=EDGE_LOOP('',(#872,#873,#874,#875));
#392=EDGE_LOOP('',(#876,#877,#878,#879));
#393=EDGE_LOOP('',(#880,#881,#882,#883));
#394=EDGE_LOOP('',(#884,#885,#886,#887));
#395=EDGE_LOOP('',(#888,#889,#890,#891));
#396=EDGE_LOOP('',(#892,#893,#894,#895));
#397=EDGE_LOOP('',(#896,#897,#898,#899));
#398=EDGE_LOOP('',(#900,#901,#902,#903));
#399=EDGE_LOOP('',(#904,#905,#906,#907));
#400=EDGE_LOOP('',(#908,#909,#910,#911));
#401=EDGE_LOOP('',(#912,#913,#914,#915));
#402=EDGE_LOOP('',(#916,#917,#918,#919));
#403=EDGE_LOOP('',(#920,#921,#922,#923));
#404=EDGE_LOOP('',(#924,#925,#926,#927,#928,#929,#930,#931,#932,#933,#934,
#935));
#405=EDGE_LOOP('',(#936,#937,#938,#939,#940,#941,#942,#943,#944,#945,#946,
#947,#948,#949,#950,#951,#952,#953,#954,#955));
#406=EDGE_LOOP('',(#956,#957,#958,#959,#960,#961,#962,#963,#964,#965,#966,
#967,#968,#969,#970,#971,#972,#973,#974,#975));
#407=EDGE_LOOP('',(#976,#977,#978,#979,#980,#981));
#408=EDGE_LOOP('',(#982,#983,#984,#985));
#409=EDGE_LOOP('',(#986,#987,#988,#989));
#410=EDGE_LOOP('',(#990,#991,#992,#993));
#411=EDGE_LOOP('',(#994,#995,#996,#997));
#412=EDGE_LOOP('',(#998,#999,#1000,#1001));
#413=EDGE_LOOP('',(#1002,#1003,#1004,#1005));
#414=EDGE_LOOP('',(#1006,#1007,#1008,#1009));
#415=EDGE_LOOP('',(#1010,#1011,#1012,#1013));
#416=EDGE_LOOP('',(#1014,#1015,#1016,#1017));
#417=EDGE_LOOP('',(#1018,#1019,#1020,#1021));
#418=EDGE_LOOP('',(#1022,#1023,#1024,#1025));
#419=EDGE_LOOP('',(#1026,#1027,#1028,#1029));
#420=EDGE_LOOP('',(#1030,#1031,#1032,#1033,#1034,#1035,#1036,#1037,#1038,
#1039,#1040,#1041));
#421=EDGE_LOOP('',(#1042,#1043,#1044,#1045));
#422=EDGE_LOOP('',(#1046,#1047,#1048,#1049));
#423=EDGE_LOOP('',(#1050,#1051,#1052,#1053,#1054,#1055));
#424=EDGE_LOOP('',(#1056,#1057,#1058,#1059));
#425=EDGE_LOOP('',(#1060,#1061,#1062,#1063));
#426=EDGE_LOOP('',(#1064,#1065,#1066,#1067));
#427=EDGE_LOOP('',(#1068,#1069,#1070,#1071));
#428=EDGE_LOOP('',(#1072,#1073,#1074,#1075));
#429=EDGE_LOOP('',(#1076,#1077,#1078,#1079));
#430=EDGE_LOOP('',(#1080,#1081,#1082,#1083));
#431=EDGE_LOOP('',(#1084,#1085,#1086,#1087));
#432=EDGE_LOOP('',(#1088,#1089,#1090,#1091));
#433=EDGE_LOOP('',(#1092,#1093,#1094,#1095));
#434=EDGE_LOOP('',(#1096,#1097,#1098,#1099));
#435=EDGE_LOOP('',(#1100,#1101,#1102,#1103));
#436=EDGE_LOOP('',(#1104,#1105,#1106,#1107));
#437=EDGE_LOOP('',(#1108,#1109,#1110,#1111));
#438=EDGE_LOOP('',(#1112,#1113,#1114,#1115));
#439=EDGE_LOOP('',(#1116,#1117,#1118,#1119));
#440=EDGE_LOOP('',(#1120,#1121,#1122,#1123));
#441=EDGE_LOOP('',(#1124,#1125,#1126,#1127));
#442=EDGE_LOOP('',(#1128,#1129,#1130,#1131,#1132,#1133,#1134,#1135));
#443=EDGE_LOOP('',(#1136,#1137,#1138,#1139,#1140,#1141,#1142,#1143,#1144,
#1145,#1146,#1147,#1148,#1149,#1150,#1151));
#444=EDGE_LOOP('',(#1152,#1153,#1154,#1155));
#445=EDGE_LOOP('',(#1156,#1157,#1158,#1159,#1160,#1161));
#446=EDGE_LOOP('',(#1162,#1163,#1164,#1165));
#447=EDGE_LOOP('',(#1166,#1167,#1168,#1169,#1170,#1171));
#448=EDGE_LOOP('',(#1172,#1173,#1174,#1175));
#449=CIRCLE('',#1277,1.);
#450=CIRCLE('',#1278,4.);
#451=CIRCLE('',#1279,1.);
#452=CIRCLE('',#1280,5.);
#453=CIRCLE('',#1282,1.);
#454=CIRCLE('',#1284,1.);
#455=CIRCLE('',#1285,5.);
#456=CIRCLE('',#1286,4.);
#457=CIRCLE('',#1288,1.);
#458=CIRCLE('',#1290,1.);
#459=CIRCLE('',#1291,5.);
#460=CIRCLE('',#1292,4.);
#461=CIRCLE('',#1294,1.);
#462=CIRCLE('',#1296,1.);
#463=CIRCLE('',#1297,5.);
#464=CIRCLE('',#1298,4.);
#465=CIRCLE('',#1300,1.);
#466=CIRCLE('',#1302,1.);
#467=CIRCLE('',#1303,5.);
#468=CIRCLE('',#1304,4.);
#469=CIRCLE('',#1306,1.);
#470=CIRCLE('',#1308,1.);
#471=CIRCLE('',#1309,5.);
#472=CIRCLE('',#1310,4.);
#473=CIRCLE('',#1312,1.);
#474=CIRCLE('',#1314,1.);
#475=CIRCLE('',#1315,5.);
#476=CIRCLE('',#1316,4.);
#477=CIRCLE('',#1318,1.);
#478=CIRCLE('',#1320,1.);
#479=CIRCLE('',#1321,5.);
#480=CIRCLE('',#1322,4.);
#481=CIRCLE('',#1324,1.);
#482=CIRCLE('',#1326,1.);
#483=CIRCLE('',#1327,5.);
#484=CIRCLE('',#1328,4.);
#485=CIRCLE('',#1330,1.);
#486=CIRCLE('',#1332,1.);
#487=CIRCLE('',#1333,5.);
#488=CIRCLE('',#1334,4.);
#489=CIRCLE('',#1338,5.);
#490=CIRCLE('',#1341,5.);
#491=CIRCLE('',#1344,5.);
#492=CIRCLE('',#1347,5.);
#493=CIRCLE('',#1351,5.);
#494=CIRCLE('',#1352,5.);
#495=CIRCLE('',#1353,5.);
#496=CIRCLE('',#1354,5.);
#497=CIRCLE('',#1355,5.);
#498=CIRCLE('',#1356,5.);
#499=CIRCLE('',#1368,1.);
#500=CIRCLE('',#1369,1.);
#501=CIRCLE('',#1371,1.);
#502=CIRCLE('',#1372,2.);
#503=CIRCLE('',#1374,2.);
#504=CIRCLE('',#1376,1.);
#505=CIRCLE('',#1377,1.);
#506=CIRCLE('',#1378,2.);
#507=CIRCLE('',#1380,1.);
#508=CIRCLE('',#1382,2.);
#509=CIRCLE('',#1384,1.);
#510=CIRCLE('',#1385,1.);
#511=CIRCLE('',#1387,1.);
#512=CIRCLE('',#1389,1.);
#513=CIRCLE('',#1390,1.);
#514=CIRCLE('',#1392,1.);
#515=VERTEX_POINT('',#1807);
#516=VERTEX_POINT('',#1808);
#517=VERTEX_POINT('',#1810);
#518=VERTEX_POINT('',#1812);
#519=VERTEX_POINT('',#1816);
#520=VERTEX_POINT('',#1817);
#521=VERTEX_POINT('',#1819);
#522=VERTEX_POINT('',#1821);
#523=VERTEX_POINT('',#1826);
#524=VERTEX_POINT('',#1827);
#525=VERTEX_POINT('',#1832);
#526=VERTEX_POINT('',#1833);
#527=VERTEX_POINT('',#1838);
#528=VERTEX_POINT('',#1839);
#529=VERTEX_POINT('',#1844);
#530=VERTEX_POINT('',#1845);
#531=VERTEX_POINT('',#1850);
#532=VERTEX_POINT('',#1851);
#533=VERTEX_POINT('',#1856);
#534=VERTEX_POINT('',#1857);
#535=VERTEX_POINT('',#1862);
#536=VERTEX_POINT('',#1863);
#537=VERTEX_POINT('',#1868);
#538=VERTEX_POINT('',#1869);
#539=VERTEX_POINT('',#1874);
#540=VERTEX_POINT('',#1875);
#541=VERTEX_POINT('',#1880);
#542=VERTEX_POINT('',#1881);
#543=VERTEX_POINT('',#1886);
#544=VERTEX_POINT('',#1887);
#545=VERTEX_POINT('',#1892);
#546=VERTEX_POINT('',#1893);
#547=VERTEX_POINT('',#1898);
#548=VERTEX_POINT('',#1899);
#549=VERTEX_POINT('',#1904);
#550=VERTEX_POINT('',#1905);
#551=VERTEX_POINT('',#1910);
#552=VERTEX_POINT('',#1911);
#553=VERTEX_POINT('',#1916);
#554=VERTEX_POINT('',#1917);
#555=VERTEX_POINT('',#1922);
#556=VERTEX_POINT('',#1923);
#557=VERTEX_POINT('',#1931);
#558=VERTEX_POINT('',#1933);
#559=VERTEX_POINT('',#1937);
#560=VERTEX_POINT('',#1941);
#561=VERTEX_POINT('',#1945);
#562=VERTEX_POINT('',#1949);
#563=VERTEX_POINT('',#1953);
#564=VERTEX_POINT('',#1957);
#565=VERTEX_POINT('',#1961);
#566=VERTEX_POINT('',#1965);
#567=VERTEX_POINT('',#1972);
#568=VERTEX_POINT('',#1974);
#569=VERTEX_POINT('',#1981);
#570=VERTEX_POINT('',#1983);
#571=VERTEX_POINT('',#1990);
#572=VERTEX_POINT('',#1998);
#573=VERTEX_POINT('',#2003);
#574=VERTEX_POINT('',#2005);
#575=VERTEX_POINT('',#2007);
#576=VERTEX_POINT('',#2009);
#577=VERTEX_POINT('',#2011);
#578=VERTEX_POINT('',#2013);
#579=VERTEX_POINT('',#2015);
#580=VERTEX_POINT('',#2017);
#581=VERTEX_POINT('',#2019);
#582=VERTEX_POINT('',#2021);
#583=VERTEX_POINT('',#2024);
#584=VERTEX_POINT('',#2025);
#585=VERTEX_POINT('',#2027);
#586=VERTEX_POINT('',#2029);
#587=VERTEX_POINT('',#2031);
#588=VERTEX_POINT('',#2033);
#589=VERTEX_POINT('',#2057);
#590=VERTEX_POINT('',#2058);
#591=VERTEX_POINT('',#2060);
#592=VERTEX_POINT('',#2062);
#593=VERTEX_POINT('',#2069);
#594=VERTEX_POINT('',#2071);
#595=VERTEX_POINT('',#2073);
#596=VERTEX_POINT('',#2075);
#597=VERTEX_POINT('',#2077);
#598=VERTEX_POINT('',#2079);
#599=VERTEX_POINT('',#2081);
#600=VERTEX_POINT('',#2083);
#601=VERTEX_POINT('',#2087);
#602=VERTEX_POINT('',#2088);
#603=VERTEX_POINT('',#2093);
#604=VERTEX_POINT('',#2094);
#605=VERTEX_POINT('',#2099);
#606=VERTEX_POINT('',#2101);
#607=VERTEX_POINT('',#2105);
#608=VERTEX_POINT('',#2107);
#609=VERTEX_POINT('',#2113);
#610=VERTEX_POINT('',#2117);
#611=VERTEX_POINT('',#2129);
#612=VERTEX_POINT('',#2130);
#613=VERTEX_POINT('',#2132);
#614=VERTEX_POINT('',#2134);
#615=VERTEX_POINT('',#2138);
#616=VERTEX_POINT('',#2140);
#617=VERTEX_POINT('',#2144);
#618=VERTEX_POINT('',#2146);
#619=VERTEX_POINT('',#2157);
#620=VERTEX_POINT('',#2158);
#621=VERTEX_POINT('',#2160);
#622=VERTEX_POINT('',#2162);
#623=VERTEX_POINT('',#2166);
#624=VERTEX_POINT('',#2168);
#625=VERTEX_POINT('',#2172);
#626=VERTEX_POINT('',#2174);
#627=EDGE_CURVE('',#515,#516,#449,.T.);
#628=EDGE_CURVE('',#516,#517,#450,.T.);
#629=EDGE_CURVE('',#517,#518,#451,.T.);
#630=EDGE_CURVE('',#518,#515,#452,.T.);
#631=EDGE_CURVE('',#519,#520,#453,.T.);
#632=EDGE_CURVE('',#520,#521,#52,.T.);
#633=EDGE_CURVE('',#521,#522,#53,.T.);
#634=EDGE_CURVE('',#522,#518,#54,.T.);
#635=EDGE_CURVE('',#517,#519,#55,.T.);
#636=EDGE_CURVE('',#523,#524,#454,.T.);
#637=EDGE_CURVE('',#524,#520,#455,.T.);
#638=EDGE_CURVE('',#519,#523,#456,.T.);
#639=EDGE_CURVE('',#525,#526,#457,.T.);
#640=EDGE_CURVE('',#526,#524,#56,.T.);
#641=EDGE_CURVE('',#523,#525,#57,.T.);
#642=EDGE_CURVE('',#527,#528,#458,.T.);
#643=EDGE_CURVE('',#528,#526,#459,.T.);
#644=EDGE_CURVE('',#525,#527,#460,.T.);
#645=EDGE_CURVE('',#529,#530,#461,.T.);
#646=EDGE_CURVE('',#530,#528,#58,.T.);
#647=EDGE_CURVE('',#527,#529,#59,.T.);
#648=EDGE_CURVE('',#531,#532,#462,.T.);
#649=EDGE_CURVE('',#532,#530,#463,.T.);
#650=EDGE_CURVE('',#529,#531,#464,.T.);
#651=EDGE_CURVE('',#533,#534,#465,.T.);
#652=EDGE_CURVE('',#534,#532,#60,.T.);
#653=EDGE_CURVE('',#531,#533,#61,.T.);
#654=EDGE_CURVE('',#535,#536,#466,.T.);
#655=EDGE_CURVE('',#536,#534,#467,.T.);
#656=EDGE_CURVE('',#533,#535,#468,.T.);
#657=EDGE_CURVE('',#537,#538,#469,.T.);
#658=EDGE_CURVE('',#538,#536,#62,.T.);
#659=EDGE_CURVE('',#535,#537,#63,.T.);
#660=EDGE_CURVE('',#539,#540,#470,.T.);
#661=EDGE_CURVE('',#540,#538,#471,.T.);
#662=EDGE_CURVE('',#537,#539,#472,.T.);
#663=EDGE_CURVE('',#541,#542,#473,.T.);
#664=EDGE_CURVE('',#542,#540,#64,.T.);
#665=EDGE_CURVE('',#539,#541,#65,.T.);
#666=EDGE_CURVE('',#543,#544,#474,.T.);
#667=EDGE_CURVE('',#544,#542,#475,.T.);
#668=EDGE_CURVE('',#541,#543,#476,.T.);
#669=EDGE_CURVE('',#545,#546,#477,.T.);
#670=EDGE_CURVE('',#546,#544,#66,.T.);
#671=EDGE_CURVE('',#543,#545,#67,.T.);
#672=EDGE_CURVE('',#547,#548,#478,.T.);
#673=EDGE_CURVE('',#548,#546,#479,.T.);
#674=EDGE_CURVE('',#545,#547,#480,.T.);
#675=EDGE_CURVE('',#549,#550,#481,.T.);
#676=EDGE_CURVE('',#550,#548,#68,.T.);
#677=EDGE_CURVE('',#547,#549,#69,.T.);
#678=EDGE_CURVE('',#551,#552,#482,.T.);
#679=EDGE_CURVE('',#552,#550,#483,.T.);
#680=EDGE_CURVE('',#549,#551,#484,.T.);
#681=EDGE_CURVE('',#553,#554,#485,.T.);
#682=EDGE_CURVE('',#554,#552,#70,.T.);
#683=EDGE_CURVE('',#551,#553,#71,.T.);
#684=EDGE_CURVE('',#555,#556,#486,.T.);
#685=EDGE_CURVE('',#556,#554,#487,.T.);
#686=EDGE_CURVE('',#553,#555,#488,.T.);
#687=EDGE_CURVE('',#515,#556,#72,.T.);
#688=EDGE_CURVE('',#555,#516,#73,.T.);
#689=EDGE_CURVE('',#557,#546,#74,.T.);
#690=EDGE_CURVE('',#558,#557,#75,.T.);
#691=EDGE_CURVE('',#544,#558,#76,.T.);
#692=EDGE_CURVE('',#548,#559,#77,.T.);
#693=EDGE_CURVE('',#559,#557,#489,.T.);
#694=EDGE_CURVE('',#560,#550,#78,.T.);
#695=EDGE_CURVE('',#559,#560,#79,.T.);
#696=EDGE_CURVE('',#552,#561,#80,.T.);
#697=EDGE_CURVE('',#561,#560,#490,.T.);
#698=EDGE_CURVE('',#562,#554,#81,.T.);
#699=EDGE_CURVE('',#561,#562,#82,.T.);
#700=EDGE_CURVE('',#556,#563,#83,.T.);
#701=EDGE_CURVE('',#563,#562,#491,.T.);
#702=EDGE_CURVE('',#564,#515,#84,.T.);
#703=EDGE_CURVE('',#563,#564,#85,.T.);
#704=EDGE_CURVE('',#518,#565,#86,.T.);
#705=EDGE_CURVE('',#565,#564,#492,.T.);
#706=EDGE_CURVE('',#566,#522,#16,.T.);
#707=EDGE_CURVE('',#567,#566,#87,.T.);
#708=EDGE_CURVE('',#568,#567,#17,.T.);
#709=EDGE_CURVE('',#568,#569,#88,.T.);
#710=EDGE_CURVE('',#570,#569,#18,.T.);
#711=EDGE_CURVE('',#571,#570,#89,.T.);
#712=EDGE_CURVE('',#521,#571,#19,.T.);
#713=EDGE_CURVE('',#572,#520,#90,.T.);
#714=EDGE_CURVE('',#565,#572,#91,.T.);
#715=EDGE_CURVE('',#573,#572,#493,.T.);
#716=EDGE_CURVE('',#573,#574,#92,.T.);
#717=EDGE_CURVE('',#575,#574,#494,.T.);
#718=EDGE_CURVE('',#575,#576,#93,.T.);
#719=EDGE_CURVE('',#577,#576,#495,.T.);
#720=EDGE_CURVE('',#577,#578,#94,.T.);
#721=EDGE_CURVE('',#579,#578,#496,.T.);
#722=EDGE_CURVE('',#579,#580,#95,.T.);
#723=EDGE_CURVE('',#581,#580,#497,.T.);
#724=EDGE_CURVE('',#581,#582,#96,.T.);
#725=EDGE_CURVE('',#558,#582,#498,.T.);
#726=EDGE_CURVE('',#583,#584,#97,.T.);
#727=EDGE_CURVE('',#584,#585,#98,.T.);
#728=EDGE_CURVE('',#585,#586,#99,.T.);
#729=EDGE_CURVE('',#586,#587,#100,.T.);
#730=EDGE_CURVE('',#587,#588,#101,.T.);
#731=EDGE_CURVE('',#588,#583,#102,.T.);
#732=EDGE_CURVE('',#540,#581,#103,.T.);
#733=EDGE_CURVE('',#580,#538,#104,.T.);
#734=EDGE_CURVE('',#582,#542,#105,.T.);
#735=EDGE_CURVE('',#536,#579,#106,.T.);
#736=EDGE_CURVE('',#578,#534,#107,.T.);
#737=EDGE_CURVE('',#532,#577,#108,.T.);
#738=EDGE_CURVE('',#576,#530,#109,.T.);
#739=EDGE_CURVE('',#528,#575,#110,.T.);
#740=EDGE_CURVE('',#574,#526,#111,.T.);
#741=EDGE_CURVE('',#524,#573,#112,.T.);
#742=EDGE_CURVE('',#589,#590,#499,.T.);
#743=EDGE_CURVE('',#590,#591,#113,.T.);
#744=EDGE_CURVE('',#591,#592,#500,.T.);
#745=EDGE_CURVE('',#592,#589,#114,.T.);
#746=EDGE_CURVE('',#571,#590,#501,.T.);
#747=EDGE_CURVE('',#589,#521,#502,.T.);
#748=EDGE_CURVE('',#592,#593,#115,.T.);
#749=EDGE_CURVE('',#593,#594,#116,.T.);
#750=EDGE_CURVE('',#594,#595,#117,.T.);
#751=EDGE_CURVE('',#595,#596,#118,.T.);
#752=EDGE_CURVE('',#596,#597,#119,.T.);
#753=EDGE_CURVE('',#597,#598,#120,.T.);
#754=EDGE_CURVE('',#598,#599,#121,.T.);
#755=EDGE_CURVE('',#600,#599,#122,.T.);
#756=EDGE_CURVE('',#522,#600,#503,.T.);
#757=EDGE_CURVE('',#601,#602,#504,.T.);
#758=EDGE_CURVE('',#602,#570,#505,.T.);
#759=EDGE_CURVE('',#569,#601,#506,.T.);
#760=EDGE_CURVE('',#603,#604,#507,.T.);
#761=EDGE_CURVE('',#604,#602,#123,.T.);
#762=EDGE_CURVE('',#601,#603,#124,.T.);
#763=EDGE_CURVE('',#605,#568,#508,.T.);
#764=EDGE_CURVE('',#606,#605,#125,.T.);
#765=EDGE_CURVE('',#603,#606,#126,.T.);
#766=EDGE_CURVE('',#605,#607,#509,.T.);
#767=EDGE_CURVE('',#607,#608,#127,.T.);
#768=EDGE_CURVE('',#608,#606,#510,.T.);
#769=EDGE_CURVE('',#567,#607,#511,.T.);
#770=EDGE_CURVE('',#600,#609,#512,.T.);
#771=EDGE_CURVE('',#609,#566,#513,.T.);
#772=EDGE_CURVE('',#599,#610,#514,.T.);
#773=EDGE_CURVE('',#610,#609,#128,.T.);
#774=EDGE_CURVE('',#602,#590,#129,.T.);
#775=EDGE_CURVE('',#591,#604,#130,.T.);
#776=EDGE_CURVE('',#609,#607,#131,.T.);
#777=EDGE_CURVE('',#608,#610,#132,.T.);
#778=EDGE_CURVE('',#611,#612,#133,.T.);
#779=EDGE_CURVE('',#611,#613,#134,.T.);
#780=EDGE_CURVE('',#614,#613,#135,.T.);
#781=EDGE_CURVE('',#612,#614,#136,.T.);
#782=EDGE_CURVE('',#612,#615,#137,.T.);
#783=EDGE_CURVE('',#616,#614,#138,.T.);
#784=EDGE_CURVE('',#615,#616,#139,.T.);
#785=EDGE_CURVE('',#617,#615,#140,.T.);
#786=EDGE_CURVE('',#618,#616,#141,.T.);
#787=EDGE_CURVE('',#617,#618,#142,.T.);
#788=EDGE_CURVE('',#617,#611,#143,.T.);
#789=EDGE_CURVE('',#613,#618,#144,.T.);
#790=EDGE_CURVE('',#595,#611,#145,.T.);
#791=EDGE_CURVE('',#594,#617,#146,.T.);
#792=EDGE_CURVE('',#619,#620,#147,.T.);
#793=EDGE_CURVE('',#621,#619,#148,.T.);
#794=EDGE_CURVE('',#622,#621,#149,.T.);
#795=EDGE_CURVE('',#620,#622,#150,.T.);
#796=EDGE_CURVE('',#620,#623,#151,.T.);
#797=EDGE_CURVE('',#624,#622,#152,.T.);
#798=EDGE_CURVE('',#623,#624,#153,.T.);
#799=EDGE_CURVE('',#623,#625,#154,.T.);
#800=EDGE_CURVE('',#626,#624,#155,.T.);
#801=EDGE_CURVE('',#625,#626,#156,.T.);
#802=EDGE_CURVE('',#626,#621,#157,.T.);
#803=EDGE_CURVE('',#598,#625,#158,.T.);
#804=EDGE_CURVE('',#597,#588,#159,.T.);
#805=EDGE_CURVE('',#619,#587,#160,.T.);
#806=EDGE_CURVE('',#593,#586,#161,.T.);
#807=EDGE_CURVE('',#596,#583,#162,.T.);
#808=EDGE_CURVE('',#615,#585,#163,.T.);
#809=EDGE_CURVE('',#612,#584,#164,.T.);
#810=ORIENTED_EDGE('',*,*,#627,.T.);
#811=ORIENTED_EDGE('',*,*,#628,.T.);
#812=ORIENTED_EDGE('',*,*,#629,.T.);
#813=ORIENTED_EDGE('',*,*,#630,.T.);
#814=ORIENTED_EDGE('',*,*,#631,.T.);
#815=ORIENTED_EDGE('',*,*,#632,.T.);
#816=ORIENTED_EDGE('',*,*,#633,.T.);
#817=ORIENTED_EDGE('',*,*,#634,.T.);
#818=ORIENTED_EDGE('',*,*,#629,.F.);
#819=ORIENTED_EDGE('',*,*,#635,.T.);
#820=ORIENTED_EDGE('',*,*,#636,.T.);
#821=ORIENTED_EDGE('',*,*,#637,.T.);
#822=ORIENTED_EDGE('',*,*,#631,.F.);
#823=ORIENTED_EDGE('',*,*,#638,.T.);
#824=ORIENTED_EDGE('',*,*,#639,.T.);
#825=ORIENTED_EDGE('',*,*,#640,.T.);
#826=ORIENTED_EDGE('',*,*,#636,.F.);
#827=ORIENTED_EDGE('',*,*,#641,.T.);
#828=ORIENTED_EDGE('',*,*,#642,.T.);
#829=ORIENTED_EDGE('',*,*,#643,.T.);
#830=ORIENTED_EDGE('',*,*,#639,.F.);
#831=ORIENTED_EDGE('',*,*,#644,.T.);
#832=ORIENTED_EDGE('',*,*,#645,.T.);
#833=ORIENTED_EDGE('',*,*,#646,.T.);
#834=ORIENTED_EDGE('',*,*,#642,.F.);
#835=ORIENTED_EDGE('',*,*,#647,.T.);
#836=ORIENTED_EDGE('',*,*,#648,.T.);
#837=ORIENTED_EDGE('',*,*,#649,.T.);
#838=ORIENTED_EDGE('',*,*,#645,.F.);
#839=ORIENTED_EDGE('',*,*,#650,.T.);
#840=ORIENTED_EDGE('',*,*,#651,.T.);
#841=ORIENTED_EDGE('',*,*,#652,.T.);
#842=ORIENTED_EDGE('',*,*,#648,.F.);
#843=ORIENTED_EDGE('',*,*,#653,.T.);
#844=ORIENTED_EDGE('',*,*,#654,.T.);
#845=ORIENTED_EDGE('',*,*,#655,.T.);
#846=ORIENTED_EDGE('',*,*,#651,.F.);
#847=ORIENTED_EDGE('',*,*,#656,.T.);
#848=ORIENTED_EDGE('',*,*,#657,.T.);
#849=ORIENTED_EDGE('',*,*,#658,.T.);
#850=ORIENTED_EDGE('',*,*,#654,.F.);
#851=ORIENTED_EDGE('',*,*,#659,.T.);
#852=ORIENTED_EDGE('',*,*,#660,.T.);
#853=ORIENTED_EDGE('',*,*,#661,.T.);
#854=ORIENTED_EDGE('',*,*,#657,.F.);
#855=ORIENTED_EDGE('',*,*,#662,.T.);
#856=ORIENTED_EDGE('',*,*,#663,.T.);
#857=ORIENTED_EDGE('',*,*,#664,.T.);
#858=ORIENTED_EDGE('',*,*,#660,.F.);
#859=ORIENTED_EDGE('',*,*,#665,.T.);
#860=ORIENTED_EDGE('',*,*,#666,.T.);
#861=ORIENTED_EDGE('',*,*,#667,.T.);
#862=ORIENTED_EDGE('',*,*,#663,.F.);
#863=ORIENTED_EDGE('',*,*,#668,.T.);
#864=ORIENTED_EDGE('',*,*,#669,.T.);
#865=ORIENTED_EDGE('',*,*,#670,.T.);
#866=ORIENTED_EDGE('',*,*,#666,.F.);
#867=ORIENTED_EDGE('',*,*,#671,.T.);
#868=ORIENTED_EDGE('',*,*,#672,.T.);
#869=ORIENTED_EDGE('',*,*,#673,.T.);
#870=ORIENTED_EDGE('',*,*,#669,.F.);
#871=ORIENTED_EDGE('',*,*,#674,.T.);
#872=ORIENTED_EDGE('',*,*,#675,.T.);
#873=ORIENTED_EDGE('',*,*,#676,.T.);
#874=ORIENTED_EDGE('',*,*,#672,.F.);
#875=ORIENTED_EDGE('',*,*,#677,.T.);
#876=ORIENTED_EDGE('',*,*,#678,.T.);
#877=ORIENTED_EDGE('',*,*,#679,.T.);
#878=ORIENTED_EDGE('',*,*,#675,.F.);
#879=ORIENTED_EDGE('',*,*,#680,.T.);
#880=ORIENTED_EDGE('',*,*,#681,.T.);
#881=ORIENTED_EDGE('',*,*,#682,.T.);
#882=ORIENTED_EDGE('',*,*,#678,.F.);
#883=ORIENTED_EDGE('',*,*,#683,.T.);
#884=ORIENTED_EDGE('',*,*,#684,.T.);
#885=ORIENTED_EDGE('',*,*,#685,.T.);
#886=ORIENTED_EDGE('',*,*,#681,.F.);
#887=ORIENTED_EDGE('',*,*,#686,.T.);
#888=ORIENTED_EDGE('',*,*,#627,.F.);
#889=ORIENTED_EDGE('',*,*,#687,.T.);
#890=ORIENTED_EDGE('',*,*,#684,.F.);
#891=ORIENTED_EDGE('',*,*,#688,.T.);
#892=ORIENTED_EDGE('',*,*,#670,.F.);
#893=ORIENTED_EDGE('',*,*,#689,.F.);
#894=ORIENTED_EDGE('',*,*,#690,.F.);
#895=ORIENTED_EDGE('',*,*,#691,.F.);
#896=ORIENTED_EDGE('',*,*,#673,.F.);
#897=ORIENTED_EDGE('',*,*,#692,.T.);
#898=ORIENTED_EDGE('',*,*,#693,.T.);
#899=ORIENTED_EDGE('',*,*,#689,.T.);
#900=ORIENTED_EDGE('',*,*,#676,.F.);
#901=ORIENTED_EDGE('',*,*,#694,.F.);
#902=ORIENTED_EDGE('',*,*,#695,.F.);
#903=ORIENTED_EDGE('',*,*,#692,.F.);
#904=ORIENTED_EDGE('',*,*,#679,.F.);
#905=ORIENTED_EDGE('',*,*,#696,.T.);
#906=ORIENTED_EDGE('',*,*,#697,.T.);
#907=ORIENTED_EDGE('',*,*,#694,.T.);
#908=ORIENTED_EDGE('',*,*,#682,.F.);
#909=ORIENTED_EDGE('',*,*,#698,.F.);
#910=ORIENTED_EDGE('',*,*,#699,.F.);
#911=ORIENTED_EDGE('',*,*,#696,.F.);
#912=ORIENTED_EDGE('',*,*,#685,.F.);
#913=ORIENTED_EDGE('',*,*,#700,.T.);
#914=ORIENTED_EDGE('',*,*,#701,.T.);
#915=ORIENTED_EDGE('',*,*,#698,.T.);
#916=ORIENTED_EDGE('',*,*,#687,.F.);
#917=ORIENTED_EDGE('',*,*,#702,.F.);
#918=ORIENTED_EDGE('',*,*,#703,.F.);
#919=ORIENTED_EDGE('',*,*,#700,.F.);
#920=ORIENTED_EDGE('',*,*,#630,.F.);
#921=ORIENTED_EDGE('',*,*,#704,.T.);
#922=ORIENTED_EDGE('',*,*,#705,.T.);
#923=ORIENTED_EDGE('',*,*,#702,.T.);
#924=ORIENTED_EDGE('',*,*,#634,.F.);
#925=ORIENTED_EDGE('',*,*,#706,.F.);
#926=ORIENTED_EDGE('',*,*,#707,.F.);
#927=ORIENTED_EDGE('',*,*,#708,.F.);
#928=ORIENTED_EDGE('',*,*,#709,.T.);
#929=ORIENTED_EDGE('',*,*,#710,.F.);
#930=ORIENTED_EDGE('',*,*,#711,.F.);
#931=ORIENTED_EDGE('',*,*,#712,.F.);
#932=ORIENTED_EDGE('',*,*,#632,.F.);
#933=ORIENTED_EDGE('',*,*,#713,.F.);
#934=ORIENTED_EDGE('',*,*,#714,.F.);
#935=ORIENTED_EDGE('',*,*,#704,.F.);
#936=ORIENTED_EDGE('',*,*,#628,.F.);
#937=ORIENTED_EDGE('',*,*,#688,.F.);
#938=ORIENTED_EDGE('',*,*,#686,.F.);
#939=ORIENTED_EDGE('',*,*,#683,.F.);
#940=ORIENTED_EDGE('',*,*,#680,.F.);
#941=ORIENTED_EDGE('',*,*,#677,.F.);
#942=ORIENTED_EDGE('',*,*,#674,.F.);
#943=ORIENTED_EDGE('',*,*,#671,.F.);
#944=ORIENTED_EDGE('',*,*,#668,.F.);
#945=ORIENTED_EDGE('',*,*,#665,.F.);
#946=ORIENTED_EDGE('',*,*,#662,.F.);
#947=ORIENTED_EDGE('',*,*,#659,.F.);
#948=ORIENTED_EDGE('',*,*,#656,.F.);
#949=ORIENTED_EDGE('',*,*,#653,.F.);
#950=ORIENTED_EDGE('',*,*,#650,.F.);
#951=ORIENTED_EDGE('',*,*,#647,.F.);
#952=ORIENTED_EDGE('',*,*,#644,.F.);
#953=ORIENTED_EDGE('',*,*,#641,.F.);
#954=ORIENTED_EDGE('',*,*,#638,.F.);
#955=ORIENTED_EDGE('',*,*,#635,.F.);
#956=ORIENTED_EDGE('',*,*,#697,.F.);
#957=ORIENTED_EDGE('',*,*,#699,.T.);
#958=ORIENTED_EDGE('',*,*,#701,.F.);
#959=ORIENTED_EDGE('',*,*,#703,.T.);
#960=ORIENTED_EDGE('',*,*,#705,.F.);
#961=ORIENTED_EDGE('',*,*,#714,.T.);
#962=ORIENTED_EDGE('',*,*,#715,.F.);
#963=ORIENTED_EDGE('',*,*,#716,.T.);
#964=ORIENTED_EDGE('',*,*,#717,.F.);
#965=ORIENTED_EDGE('',*,*,#718,.T.);
#966=ORIENTED_EDGE('',*,*,#719,.F.);
#967=ORIENTED_EDGE('',*,*,#720,.T.);
#968=ORIENTED_EDGE('',*,*,#721,.F.);
#969=ORIENTED_EDGE('',*,*,#722,.T.);
#970=ORIENTED_EDGE('',*,*,#723,.F.);
#971=ORIENTED_EDGE('',*,*,#724,.T.);
#972=ORIENTED_EDGE('',*,*,#725,.F.);
#973=ORIENTED_EDGE('',*,*,#690,.T.);
#974=ORIENTED_EDGE('',*,*,#693,.F.);
#975=ORIENTED_EDGE('',*,*,#695,.T.);
#976=ORIENTED_EDGE('',*,*,#726,.T.);
#977=ORIENTED_EDGE('',*,*,#727,.T.);
#978=ORIENTED_EDGE('',*,*,#728,.T.);
#979=ORIENTED_EDGE('',*,*,#729,.T.);
#980=ORIENTED_EDGE('',*,*,#730,.T.);
#981=ORIENTED_EDGE('',*,*,#731,.T.);
#982=ORIENTED_EDGE('',*,*,#661,.F.);
#983=ORIENTED_EDGE('',*,*,#732,.T.);
#984=ORIENTED_EDGE('',*,*,#723,.T.);
#985=ORIENTED_EDGE('',*,*,#733,.T.);
#986=ORIENTED_EDGE('',*,*,#664,.F.);
#987=ORIENTED_EDGE('',*,*,#734,.F.);
#988=ORIENTED_EDGE('',*,*,#724,.F.);
#989=ORIENTED_EDGE('',*,*,#732,.F.);
#990=ORIENTED_EDGE('',*,*,#667,.F.);
#991=ORIENTED_EDGE('',*,*,#691,.T.);
#992=ORIENTED_EDGE('',*,*,#725,.T.);
#993=ORIENTED_EDGE('',*,*,#734,.T.);
#994=ORIENTED_EDGE('',*,*,#655,.F.);
#995=ORIENTED_EDGE('',*,*,#735,.T.);
#996=ORIENTED_EDGE('',*,*,#721,.T.);
#997=ORIENTED_EDGE('',*,*,#736,.T.);
#998=ORIENTED_EDGE('',*,*,#652,.F.);
#999=ORIENTED_EDGE('',*,*,#736,.F.);
#1000=ORIENTED_EDGE('',*,*,#720,.F.);
#1001=ORIENTED_EDGE('',*,*,#737,.F.);
#1002=ORIENTED_EDGE('',*,*,#649,.F.);
#1003=ORIENTED_EDGE('',*,*,#737,.T.);
#1004=ORIENTED_EDGE('',*,*,#719,.T.);
#1005=ORIENTED_EDGE('',*,*,#738,.T.);
#1006=ORIENTED_EDGE('',*,*,#646,.F.);
#1007=ORIENTED_EDGE('',*,*,#738,.F.);
#1008=ORIENTED_EDGE('',*,*,#718,.F.);
#1009=ORIENTED_EDGE('',*,*,#739,.F.);
#1010=ORIENTED_EDGE('',*,*,#643,.F.);
#1011=ORIENTED_EDGE('',*,*,#739,.T.);
#1012=ORIENTED_EDGE('',*,*,#717,.T.);
#1013=ORIENTED_EDGE('',*,*,#740,.T.);
#1014=ORIENTED_EDGE('',*,*,#640,.F.);
#1015=ORIENTED_EDGE('',*,*,#740,.F.);
#1016=ORIENTED_EDGE('',*,*,#716,.F.);
#1017=ORIENTED_EDGE('',*,*,#741,.F.);
#1018=ORIENTED_EDGE('',*,*,#637,.F.);
#1019=ORIENTED_EDGE('',*,*,#741,.T.);
#1020=ORIENTED_EDGE('',*,*,#715,.T.);
#1021=ORIENTED_EDGE('',*,*,#713,.T.);
#1022=ORIENTED_EDGE('',*,*,#742,.T.);
#1023=ORIENTED_EDGE('',*,*,#743,.T.);
#1024=ORIENTED_EDGE('',*,*,#744,.T.);
#1025=ORIENTED_EDGE('',*,*,#745,.T.);
#1026=ORIENTED_EDGE('',*,*,#712,.T.);
#1027=ORIENTED_EDGE('',*,*,#746,.T.);
#1028=ORIENTED_EDGE('',*,*,#742,.F.);
#1029=ORIENTED_EDGE('',*,*,#747,.T.);
#1030=ORIENTED_EDGE('',*,*,#747,.F.);
#1031=ORIENTED_EDGE('',*,*,#745,.F.);
#1032=ORIENTED_EDGE('',*,*,#748,.T.);
#1033=ORIENTED_EDGE('',*,*,#749,.T.);
#1034=ORIENTED_EDGE('',*,*,#750,.T.);
#1035=ORIENTED_EDGE('',*,*,#751,.T.);
#1036=ORIENTED_EDGE('',*,*,#752,.T.);
#1037=ORIENTED_EDGE('',*,*,#753,.T.);
#1038=ORIENTED_EDGE('',*,*,#754,.T.);
#1039=ORIENTED_EDGE('',*,*,#755,.F.);
#1040=ORIENTED_EDGE('',*,*,#756,.F.);
#1041=ORIENTED_EDGE('',*,*,#633,.F.);
#1042=ORIENTED_EDGE('',*,*,#757,.T.);
#1043=ORIENTED_EDGE('',*,*,#758,.T.);
#1044=ORIENTED_EDGE('',*,*,#710,.T.);
#1045=ORIENTED_EDGE('',*,*,#759,.T.);
#1046=ORIENTED_EDGE('',*,*,#760,.T.);
#1047=ORIENTED_EDGE('',*,*,#761,.T.);
#1048=ORIENTED_EDGE('',*,*,#757,.F.);
#1049=ORIENTED_EDGE('',*,*,#762,.T.);
#1050=ORIENTED_EDGE('',*,*,#762,.F.);
#1051=ORIENTED_EDGE('',*,*,#759,.F.);
#1052=ORIENTED_EDGE('',*,*,#709,.F.);
#1053=ORIENTED_EDGE('',*,*,#763,.F.);
#1054=ORIENTED_EDGE('',*,*,#764,.F.);
#1055=ORIENTED_EDGE('',*,*,#765,.F.);
#1056=ORIENTED_EDGE('',*,*,#766,.T.);
#1057=ORIENTED_EDGE('',*,*,#767,.T.);
#1058=ORIENTED_EDGE('',*,*,#768,.T.);
#1059=ORIENTED_EDGE('',*,*,#764,.T.);
#1060=ORIENTED_EDGE('',*,*,#708,.T.);
#1061=ORIENTED_EDGE('',*,*,#769,.T.);
#1062=ORIENTED_EDGE('',*,*,#766,.F.);
#1063=ORIENTED_EDGE('',*,*,#763,.T.);
#1064=ORIENTED_EDGE('',*,*,#770,.T.);
#1065=ORIENTED_EDGE('',*,*,#771,.T.);
#1066=ORIENTED_EDGE('',*,*,#706,.T.);
#1067=ORIENTED_EDGE('',*,*,#756,.T.);
#1068=ORIENTED_EDGE('',*,*,#772,.T.);
#1069=ORIENTED_EDGE('',*,*,#773,.T.);
#1070=ORIENTED_EDGE('',*,*,#770,.F.);
#1071=ORIENTED_EDGE('',*,*,#755,.T.);
#1072=ORIENTED_EDGE('',*,*,#746,.F.);
#1073=ORIENTED_EDGE('',*,*,#711,.T.);
#1074=ORIENTED_EDGE('',*,*,#758,.F.);
#1075=ORIENTED_EDGE('',*,*,#774,.T.);
#1076=ORIENTED_EDGE('',*,*,#743,.F.);
#1077=ORIENTED_EDGE('',*,*,#774,.F.);
#1078=ORIENTED_EDGE('',*,*,#761,.F.);
#1079=ORIENTED_EDGE('',*,*,#775,.F.);
#1080=ORIENTED_EDGE('',*,*,#769,.F.);
#1081=ORIENTED_EDGE('',*,*,#707,.T.);
#1082=ORIENTED_EDGE('',*,*,#771,.F.);
#1083=ORIENTED_EDGE('',*,*,#776,.T.);
#1084=ORIENTED_EDGE('',*,*,#767,.F.);
#1085=ORIENTED_EDGE('',*,*,#776,.F.);
#1086=ORIENTED_EDGE('',*,*,#773,.F.);
#1087=ORIENTED_EDGE('',*,*,#777,.F.);
#1088=ORIENTED_EDGE('',*,*,#778,.F.);
#1089=ORIENTED_EDGE('',*,*,#779,.T.);
#1090=ORIENTED_EDGE('',*,*,#780,.F.);
#1091=ORIENTED_EDGE('',*,*,#781,.F.);
#1092=ORIENTED_EDGE('',*,*,#782,.F.);
#1093=ORIENTED_EDGE('',*,*,#781,.T.);
#1094=ORIENTED_EDGE('',*,*,#783,.F.);
#1095=ORIENTED_EDGE('',*,*,#784,.F.);
#1096=ORIENTED_EDGE('',*,*,#785,.T.);
#1097=ORIENTED_EDGE('',*,*,#784,.T.);
#1098=ORIENTED_EDGE('',*,*,#786,.F.);
#1099=ORIENTED_EDGE('',*,*,#787,.F.);
#1100=ORIENTED_EDGE('',*,*,#788,.F.);
#1101=ORIENTED_EDGE('',*,*,#787,.T.);
#1102=ORIENTED_EDGE('',*,*,#789,.F.);
#1103=ORIENTED_EDGE('',*,*,#779,.F.);
#1104=ORIENTED_EDGE('',*,*,#789,.T.);
#1105=ORIENTED_EDGE('',*,*,#786,.T.);
#1106=ORIENTED_EDGE('',*,*,#783,.T.);
#1107=ORIENTED_EDGE('',*,*,#780,.T.);
#1108=ORIENTED_EDGE('',*,*,#788,.T.);
#1109=ORIENTED_EDGE('',*,*,#790,.F.);
#1110=ORIENTED_EDGE('',*,*,#750,.F.);
#1111=ORIENTED_EDGE('',*,*,#791,.T.);
#1112=ORIENTED_EDGE('',*,*,#792,.F.);
#1113=ORIENTED_EDGE('',*,*,#793,.F.);
#1114=ORIENTED_EDGE('',*,*,#794,.F.);
#1115=ORIENTED_EDGE('',*,*,#795,.F.);
#1116=ORIENTED_EDGE('',*,*,#796,.F.);
#1117=ORIENTED_EDGE('',*,*,#795,.T.);
#1118=ORIENTED_EDGE('',*,*,#797,.F.);
#1119=ORIENTED_EDGE('',*,*,#798,.F.);
#1120=ORIENTED_EDGE('',*,*,#799,.F.);
#1121=ORIENTED_EDGE('',*,*,#798,.T.);
#1122=ORIENTED_EDGE('',*,*,#800,.F.);
#1123=ORIENTED_EDGE('',*,*,#801,.F.);
#1124=ORIENTED_EDGE('',*,*,#802,.F.);
#1125=ORIENTED_EDGE('',*,*,#800,.T.);
#1126=ORIENTED_EDGE('',*,*,#797,.T.);
#1127=ORIENTED_EDGE('',*,*,#794,.T.);
#1128=ORIENTED_EDGE('',*,*,#792,.T.);
#1129=ORIENTED_EDGE('',*,*,#796,.T.);
#1130=ORIENTED_EDGE('',*,*,#799,.T.);
#1131=ORIENTED_EDGE('',*,*,#803,.F.);
#1132=ORIENTED_EDGE('',*,*,#753,.F.);
#1133=ORIENTED_EDGE('',*,*,#804,.T.);
#1134=ORIENTED_EDGE('',*,*,#730,.F.);
#1135=ORIENTED_EDGE('',*,*,#805,.F.);
#1136=ORIENTED_EDGE('',*,*,#793,.T.);
#1137=ORIENTED_EDGE('',*,*,#805,.T.);
#1138=ORIENTED_EDGE('',*,*,#729,.F.);
#1139=ORIENTED_EDGE('',*,*,#806,.F.);
#1140=ORIENTED_EDGE('',*,*,#748,.F.);
#1141=ORIENTED_EDGE('',*,*,#744,.F.);
#1142=ORIENTED_EDGE('',*,*,#775,.T.);
#1143=ORIENTED_EDGE('',*,*,#760,.F.);
#1144=ORIENTED_EDGE('',*,*,#765,.T.);
#1145=ORIENTED_EDGE('',*,*,#768,.F.);
#1146=ORIENTED_EDGE('',*,*,#777,.T.);
#1147=ORIENTED_EDGE('',*,*,#772,.F.);
#1148=ORIENTED_EDGE('',*,*,#754,.F.);
#1149=ORIENTED_EDGE('',*,*,#803,.T.);
#1150=ORIENTED_EDGE('',*,*,#801,.T.);
#1151=ORIENTED_EDGE('',*,*,#802,.T.);
#1152=ORIENTED_EDGE('',*,*,#752,.F.);
#1153=ORIENTED_EDGE('',*,*,#807,.T.);
#1154=ORIENTED_EDGE('',*,*,#731,.F.);
#1155=ORIENTED_EDGE('',*,*,#804,.F.);
#1156=ORIENTED_EDGE('',*,*,#749,.F.);
#1157=ORIENTED_EDGE('',*,*,#806,.T.);
#1158=ORIENTED_EDGE('',*,*,#728,.F.);
#1159=ORIENTED_EDGE('',*,*,#808,.F.);
#1160=ORIENTED_EDGE('',*,*,#785,.F.);
#1161=ORIENTED_EDGE('',*,*,#791,.F.);
#1162=ORIENTED_EDGE('',*,*,#782,.T.);
#1163=ORIENTED_EDGE('',*,*,#808,.T.);
#1164=ORIENTED_EDGE('',*,*,#727,.F.);
#1165=ORIENTED_EDGE('',*,*,#809,.F.);
#1166=ORIENTED_EDGE('',*,*,#751,.F.);
#1167=ORIENTED_EDGE('',*,*,#790,.T.);
#1168=ORIENTED_EDGE('',*,*,#778,.T.);
#1169=ORIENTED_EDGE('',*,*,#809,.T.);
#1170=ORIENTED_EDGE('',*,*,#726,.F.);
#1171=ORIENTED_EDGE('',*,*,#807,.F.);
#1172=ORIENTED_EDGE('',*,*,#658,.F.);
#1173=ORIENTED_EDGE('',*,*,#733,.F.);
#1174=ORIENTED_EDGE('',*,*,#722,.F.);
#1175=ORIENTED_EDGE('',*,*,#735,.F.);
#1176=TOROIDAL_SURFACE('',#1276,4.,1.);
#1177=TOROIDAL_SURFACE('',#1283,4.,1.);
#1178=TOROIDAL_SURFACE('',#1289,4.,1.);
#1179=TOROIDAL_SURFACE('',#1295,4.,1.);
#1180=TOROIDAL_SURFACE('',#1301,4.,1.);
#1181=TOROIDAL_SURFACE('',#1307,4.,1.);
#1182=TOROIDAL_SURFACE('',#1313,4.,1.);
#1183=TOROIDAL_SURFACE('',#1319,4.,1.);
#1184=TOROIDAL_SURFACE('',#1325,4.,1.);
#1185=TOROIDAL_SURFACE('',#1331,4.,1.);
#1186=TOROIDAL_SURFACE('',#1370,2.,1.);
#1187=TOROIDAL_SURFACE('',#1375,2.,1.);
#1188=TOROIDAL_SURFACE('',#1386,2.,1.);
#1189=TOROIDAL_SURFACE('',#1388,2.,1.);
#1190=ADVANCED_FACE('',(#304),#1176,.T.);
#1191=ADVANCED_FACE('',(#305),#278,.T.);
#1192=ADVANCED_FACE('',(#306),#1177,.T.);
#1193=ADVANCED_FACE('',(#307),#279,.T.);
#1194=ADVANCED_FACE('',(#308),#1178,.T.);
#1195=ADVANCED_FACE('',(#309),#280,.T.);
#1196=ADVANCED_FACE('',(#310),#1179,.T.);
#1197=ADVANCED_FACE('',(#311),#281,.T.);
#1198=ADVANCED_FACE('',(#312),#1180,.T.);
#1199=ADVANCED_FACE('',(#313),#282,.T.);
#1200=ADVANCED_FACE('',(#314),#1181,.T.);
#1201=ADVANCED_FACE('',(#315),#283,.T.);
#1202=ADVANCED_FACE('',(#316),#1182,.T.);
#1203=ADVANCED_FACE('',(#317),#284,.T.);
#1204=ADVANCED_FACE('',(#318),#1183,.T.);
#1205=ADVANCED_FACE('',(#319),#285,.T.);
#1206=ADVANCED_FACE('',(#320),#1184,.T.);
#1207=ADVANCED_FACE('',(#321),#286,.T.);
#1208=ADVANCED_FACE('',(#322),#1185,.T.);
#1209=ADVANCED_FACE('',(#323),#287,.T.);
#1210=ADVANCED_FACE('',(#324),#20,.T.);
#1211=ADVANCED_FACE('',(#325),#288,.T.);
#1212=ADVANCED_FACE('',(#326),#21,.T.);
#1213=ADVANCED_FACE('',(#327),#289,.T.);
#1214=ADVANCED_FACE('',(#328),#22,.T.);
#1215=ADVANCED_FACE('',(#329),#290,.T.);
#1216=ADVANCED_FACE('',(#330),#23,.T.);
#1217=ADVANCED_FACE('',(#331),#291,.T.);
#1218=ADVANCED_FACE('',(#332),#24,.T.);
#1219=ADVANCED_FACE('',(#333),#25,.F.);
#1220=ADVANCED_FACE('',(#334,#15),#26,.T.);
#1221=ADVANCED_FACE('',(#335),#292,.T.);
#1222=ADVANCED_FACE('',(#336),#27,.T.);
#1223=ADVANCED_FACE('',(#337),#293,.T.);
#1224=ADVANCED_FACE('',(#338),#294,.T.);
#1225=ADVANCED_FACE('',(#339),#28,.T.);
#1226=ADVANCED_FACE('',(#340),#295,.T.);
#1227=ADVANCED_FACE('',(#341),#29,.T.);
#1228=ADVANCED_FACE('',(#342),#296,.T.);
#1229=ADVANCED_FACE('',(#343),#30,.T.);
#1230=ADVANCED_FACE('',(#344),#297,.T.);
#1231=ADVANCED_FACE('',(#345),#298,.F.);
#1232=ADVANCED_FACE('',(#346),#1186,.F.);
#1233=ADVANCED_FACE('',(#347),#31,.T.);
#1234=ADVANCED_FACE('',(#348),#1187,.F.);
#1235=ADVANCED_FACE('',(#349),#299,.F.);
#1236=ADVANCED_FACE('',(#350),#32,.F.);
#1237=ADVANCED_FACE('',(#351),#300,.F.);
#1238=ADVANCED_FACE('',(#352),#1188,.F.);
#1239=ADVANCED_FACE('',(#353),#1189,.F.);
#1240=ADVANCED_FACE('',(#354),#301,.F.);
#1241=ADVANCED_FACE('',(#355),#302,.T.);
#1242=ADVANCED_FACE('',(#356),#33,.F.);
#1243=ADVANCED_FACE('',(#357),#303,.T.);
#1244=ADVANCED_FACE('',(#358),#34,.F.);
#1245=ADVANCED_FACE('',(#359),#35,.T.);
#1246=ADVANCED_FACE('',(#360),#36,.T.);
#1247=ADVANCED_FACE('',(#361),#37,.T.);
#1248=ADVANCED_FACE('',(#362),#38,.T.);
#1249=ADVANCED_FACE('',(#363),#39,.T.);
#1250=ADVANCED_FACE('',(#364),#40,.T.);
#1251=ADVANCED_FACE('',(#365),#41,.T.);
#1252=ADVANCED_FACE('',(#366),#42,.T.);
#1253=ADVANCED_FACE('',(#367),#43,.T.);
#1254=ADVANCED_FACE('',(#368),#44,.T.);
#1255=ADVANCED_FACE('',(#369),#45,.T.);
#1256=ADVANCED_FACE('',(#370),#46,.T.);
#1257=ADVANCED_FACE('',(#371),#47,.T.);
#1258=ADVANCED_FACE('',(#372),#48,.T.);
#1259=ADVANCED_FACE('',(#373),#49,.T.);
#1260=ADVANCED_FACE('',(#374),#50,.T.);
#1261=ADVANCED_FACE('',(#375),#51,.T.);
#1262=CLOSED_SHELL('',(#1190,#1191,#1192,#1193,#1194,#1195,#1196,#1197,
#1198,#1199,#1200,#1201,#1202,#1203,#1204,#1205,#1206,#1207,#1208,#1209,
#1210,#1211,#1212,#1213,#1214,#1215,#1216,#1217,#1218,#1219,#1220,#1221,
#1222,#1223,#1224,#1225,#1226,#1227,#1228,#1229,#1230,#1231,#1232,#1233,
#1234,#1235,#1236,#1237,#1238,#1239,#1240,#1241,#1242,#1243,#1244,#1245,
#1246,#1247,#1248,#1249,#1250,#1251,#1252,#1253,#1254,#1255,#1256,#1257,
#1258,#1259,#1260,#1261));
#1263=DERIVED_UNIT_ELEMENT(#1265,1.);
#1264=DERIVED_UNIT_ELEMENT(#2198,-3.);
#1265=(
MASS_UNIT()
NAMED_UNIT(*)
SI_UNIT(.KILO.,.GRAM.)
);
#1266=DERIVED_UNIT((#1263,#1264));
#1267=MEASURE_REPRESENTATION_ITEM('density measure',
POSITIVE_RATIO_MEASURE(7850.),#1266);
#1268=PROPERTY_DEFINITION_REPRESENTATION(#1273,#1270);
#1269=PROPERTY_DEFINITION_REPRESENTATION(#1274,#1271);
#1270=REPRESENTATION('material name',(#1272),#2195);
#1271=REPRESENTATION('density',(#1267),#2195);
#1272=DESCRIPTIVE_REPRESENTATION_ITEM('Steel','Steel');
#1273=PROPERTY_DEFINITION('material property','material name',#2205);
#1274=PROPERTY_DEFINITION('material property','density of part',#2205);
#1275=AXIS2_PLACEMENT_3D('',#1805,#1414,#1415);
#1276=AXIS2_PLACEMENT_3D('',#1806,#1416,#1417);
#1277=AXIS2_PLACEMENT_3D('',#1809,#1418,#1419);
#1278=AXIS2_PLACEMENT_3D('',#1811,#1420,#1421);
#1279=AXIS2_PLACEMENT_3D('',#1813,#1422,#1423);
#1280=AXIS2_PLACEMENT_3D('',#1814,#1424,#1425);
#1281=AXIS2_PLACEMENT_3D('',#1815,#1426,#1427);
#1282=AXIS2_PLACEMENT_3D('',#1818,#1428,#1429);
#1283=AXIS2_PLACEMENT_3D('',#1825,#1434,#1435);
#1284=AXIS2_PLACEMENT_3D('',#1828,#1436,#1437);
#1285=AXIS2_PLACEMENT_3D('',#1829,#1438,#1439);
#1286=AXIS2_PLACEMENT_3D('',#1830,#1440,#1441);
#1287=AXIS2_PLACEMENT_3D('',#1831,#1442,#1443);
#1288=AXIS2_PLACEMENT_3D('',#1834,#1444,#1445);
#1289=AXIS2_PLACEMENT_3D('',#1837,#1448,#1449);
#1290=AXIS2_PLACEMENT_3D('',#1840,#1450,#1451);
#1291=AXIS2_PLACEMENT_3D('',#1841,#1452,#1453);
#1292=AXIS2_PLACEMENT_3D('',#1842,#1454,#1455);
#1293=AXIS2_PLACEMENT_3D('',#1843,#1456,#1457);
#1294=AXIS2_PLACEMENT_3D('',#1846,#1458,#1459);
#1295=AXIS2_PLACEMENT_3D('',#1849,#1462,#1463);
#1296=AXIS2_PLACEMENT_3D('',#1852,#1464,#1465);
#1297=AXIS2_PLACEMENT_3D('',#1853,#1466,#1467);
#1298=AXIS2_PLACEMENT_3D('',#1854,#1468,#1469);
#1299=AXIS2_PLACEMENT_3D('',#1855,#1470,#1471);
#1300=AXIS2_PLACEMENT_3D('',#1858,#1472,#1473);
#1301=AXIS2_PLACEMENT_3D('',#1861,#1476,#1477);
#1302=AXIS2_PLACEMENT_3D('',#1864,#1478,#1479);
#1303=AXIS2_PLACEMENT_3D('',#1865,#1480,#1481);
#1304=AXIS2_PLACEMENT_3D('',#1866,#1482,#1483);
#1305=AXIS2_PLACEMENT_3D('',#1867,#1484,#1485);
#1306=AXIS2_PLACEMENT_3D('',#1870,#1486,#1487);
#1307=AXIS2_PLACEMENT_3D('',#1873,#1490,#1491);
#1308=AXIS2_PLACEMENT_3D('',#1876,#1492,#1493);
#1309=AXIS2_PLACEMENT_3D('',#1877,#1494,#1495);
#1310=AXIS2_PLACEMENT_3D('',#1878,#1496,#1497);
#1311=AXIS2_PLACEMENT_3D('',#1879,#1498,#1499);
#1312=AXIS2_PLACEMENT_3D('',#1882,#1500,#1501);
#1313=AXIS2_PLACEMENT_3D('',#1885,#1504,#1505);
#1314=AXIS2_PLACEMENT_3D('',#1888,#1506,#1507);
#1315=AXIS2_PLACEMENT_3D('',#1889,#1508,#1509);
#1316=AXIS2_PLACEMENT_3D('',#1890,#1510,#1511);
#1317=AXIS2_PLACEMENT_3D('',#1891,#1512,#1513);
#1318=AXIS2_PLACEMENT_3D('',#1894,#1514,#1515);
#1319=AXIS2_PLACEMENT_3D('',#1897,#1518,#1519);
#1320=AXIS2_PLACEMENT_3D('',#1900,#1520,#1521);
#1321=AXIS2_PLACEMENT_3D('',#1901,#1522,#1523);
#1322=AXIS2_PLACEMENT_3D('',#1902,#1524,#1525);
#1323=AXIS2_PLACEMENT_3D('',#1903,#1526,#1527);
#1324=AXIS2_PLACEMENT_3D('',#1906,#1528,#1529);
#1325=AXIS2_PLACEMENT_3D('',#1909,#1532,#1533);
#1326=AXIS2_PLACEMENT_3D('',#1912,#1534,#1535);
#1327=AXIS2_PLACEMENT_3D('',#1913,#1536,#1537);
#1328=AXIS2_PLACEMENT_3D('',#1914,#1538,#1539);
#1329=AXIS2_PLACEMENT_3D('',#1915,#1540,#1541);
#1330=AXIS2_PLACEMENT_3D('',#1918,#1542,#1543);
#1331=AXIS2_PLACEMENT_3D('',#1921,#1546,#1547);
#1332=AXIS2_PLACEMENT_3D('',#1924,#1548,#1549);
#1333=AXIS2_PLACEMENT_3D('',#1925,#1550,#1551);
#1334=AXIS2_PLACEMENT_3D('',#1926,#1552,#1553);
#1335=AXIS2_PLACEMENT_3D('',#1927,#1554,#1555);
#1336=AXIS2_PLACEMENT_3D('',#1930,#1558,#1559);
#1337=AXIS2_PLACEMENT_3D('',#1936,#1563,#1564);
#1338=AXIS2_PLACEMENT_3D('',#1939,#1566,#1567);
#1339=AXIS2_PLACEMENT_3D('',#1940,#1568,#1569);
#1340=AXIS2_PLACEMENT_3D('',#1944,#1572,#1573);
#1341=AXIS2_PLACEMENT_3D('',#1947,#1575,#1576);
#1342=AXIS2_PLACEMENT_3D('',#1948,#1577,#1578);
#1343=AXIS2_PLACEMENT_3D('',#1952,#1581,#1582);
#1344=AXIS2_PLACEMENT_3D('',#1955,#1584,#1585);
#1345=AXIS2_PLACEMENT_3D('',#1956,#1586,#1587);
#1346=AXIS2_PLACEMENT_3D('',#1960,#1590,#1591);
#1347=AXIS2_PLACEMENT_3D('',#1963,#1593,#1594);
#1348=AXIS2_PLACEMENT_3D('',#1964,#1595,#1596);
#1349=AXIS2_PLACEMENT_3D('',#2001,#1602,#1603);
#1350=AXIS2_PLACEMENT_3D('',#2002,#1604,#1605);
#1351=AXIS2_PLACEMENT_3D('',#2004,#1606,#1607);
#1352=AXIS2_PLACEMENT_3D('',#2008,#1609,#1610);
#1353=AXIS2_PLACEMENT_3D('',#2012,#1612,#1613);
#1354=AXIS2_PLACEMENT_3D('',#2016,#1615,#1616);
#1355=AXIS2_PLACEMENT_3D('',#2020,#1618,#1619);
#1356=AXIS2_PLACEMENT_3D('',#2023,#1621,#1622);
#1357=AXIS2_PLACEMENT_3D('',#2036,#1629,#1630);
#1358=AXIS2_PLACEMENT_3D('',#2039,#1633,#1634);
#1359=AXIS2_PLACEMENT_3D('',#2041,#1636,#1637);
#1360=AXIS2_PLACEMENT_3D('',#2042,#1638,#1639);
#1361=AXIS2_PLACEMENT_3D('',#2045,#1642,#1643);
#1362=AXIS2_PLACEMENT_3D('',#2047,#1645,#1646);
#1363=AXIS2_PLACEMENT_3D('',#2049,#1648,#1649);
#1364=AXIS2_PLACEMENT_3D('',#2051,#1651,#1652);
#1365=AXIS2_PLACEMENT_3D('',#2053,#1654,#1655);
#1366=AXIS2_PLACEMENT_3D('',#2055,#1657,#1658);
#1367=AXIS2_PLACEMENT_3D('',#2056,#1659,#1660);
#1368=AXIS2_PLACEMENT_3D('',#2059,#1661,#1662);
#1369=AXIS2_PLACEMENT_3D('',#2063,#1664,#1665);
#1370=AXIS2_PLACEMENT_3D('',#2065,#1667,#1668);
#1371=AXIS2_PLACEMENT_3D('',#2066,#1669,#1670);
#1372=AXIS2_PLACEMENT_3D('',#2067,#1671,#1672);
#1373=AXIS2_PLACEMENT_3D('',#2068,#1673,#1674);
#1374=AXIS2_PLACEMENT_3D('',#2085,#1683,#1684);
#1375=AXIS2_PLACEMENT_3D('',#2086,#1685,#1686);
#1376=AXIS2_PLACEMENT_3D('',#2089,#1687,#1688);
#1377=AXIS2_PLACEMENT_3D('',#2090,#1689,#1690);
#1378=AXIS2_PLACEMENT_3D('',#2091,#1691,#1692);
#1379=AXIS2_PLACEMENT_3D('',#2092,#1693,#1694);
#1380=AXIS2_PLACEMENT_3D('',#2095,#1695,#1696);
#1381=AXIS2_PLACEMENT_3D('',#2098,#1699,#1700);
#1382=AXIS2_PLACEMENT_3D('',#2100,#1701,#1702);
#1383=AXIS2_PLACEMENT_3D('',#2104,#1705,#1706);
#1384=AXIS2_PLACEMENT_3D('',#2106,#1707,#1708);
#1385=AXIS2_PLACEMENT_3D('',#2109,#1710,#1711);
#1386=AXIS2_PLACEMENT_3D('',#2110,#1712,#1713);
#1387=AXIS2_PLACEMENT_3D('',#2111,#1714,#1715);
#1388=AXIS2_PLACEMENT_3D('',#2112,#1716,#1717);
#1389=AXIS2_PLACEMENT_3D('',#2114,#1718,#1719);
#1390=AXIS2_PLACEMENT_3D('',#2115,#1720,#1721);
#1391=AXIS2_PLACEMENT_3D('',#2116,#1722,#1723);
#1392=AXIS2_PLACEMENT_3D('',#2118,#1724,#1725);
#1393=AXIS2_PLACEMENT_3D('',#2120,#1727,#1728);
#1394=AXIS2_PLACEMENT_3D('',#2122,#1730,#1731);
#1395=AXIS2_PLACEMENT_3D('',#2124,#1733,#1734);
#1396=AXIS2_PLACEMENT_3D('',#2126,#1736,#1737);
#1397=AXIS2_PLACEMENT_3D('',#2128,#1739,#1740);
#1398=AXIS2_PLACEMENT_3D('',#2137,#1745,#1746);
#1399=AXIS2_PLACEMENT_3D('',#2143,#1750,#1751);
#1400=AXIS2_PLACEMENT_3D('',#2149,#1755,#1756);
#1401=AXIS2_PLACEMENT_3D('',#2152,#1759,#1760);
#1402=AXIS2_PLACEMENT_3D('',#2153,#1761,#1762);
#1403=AXIS2_PLACEMENT_3D('',#2156,#1765,#1766);
#1404=AXIS2_PLACEMENT_3D('',#2165,#1771,#1772);
#1405=AXIS2_PLACEMENT_3D('',#2171,#1776,#1777);
#1406=AXIS2_PLACEMENT_3D('',#2177,#1781,#1782);
#1407=AXIS2_PLACEMENT_3D('',#2179,#1784,#1785);
#1408=AXIS2_PLACEMENT_3D('',#2183,#1789,#1790);
#1409=AXIS2_PLACEMENT_3D('',#2185,#1792,#1793);
#1410=AXIS2_PLACEMENT_3D('',#2187,#1795,#1796);
#1411=AXIS2_PLACEMENT_3D('',#2189,#1798,#1799);
#1412=AXIS2_PLACEMENT_3D('',#2191,#1801,#1802);
#1413=AXIS2_PLACEMENT_3D('',#2192,#1803,#1804);
#1414=DIRECTION('axis',(0.,0.,1.));
#1415=DIRECTION('refdir',(1.,0.,0.));
#1416=DIRECTION('center_axis',(0.,0.,1.));
#1417=DIRECTION('ref_axis',(1.,0.,0.));
#1418=DIRECTION('center_axis',(-1.,0.,0.));
#1419=DIRECTION('ref_axis',(0.,1.,0.));
#1420=DIRECTION('center_axis',(0.,0.,1.));
#1421=DIRECTION('ref_axis',(-0.707106781186548,0.707106781186547,0.));
#1422=DIRECTION('center_axis',(4.44089209850062E-15,1.,0.));
#1423=DIRECTION('ref_axis',(0.,0.,-1.));
#1424=DIRECTION('center_axis',(0.,0.,-1.));
#1425=DIRECTION('ref_axis',(-0.707106781186548,0.707106781186547,0.));
#1426=DIRECTION('center_axis',(0.,1.,0.));
#1427=DIRECTION('ref_axis',(-0.707106781186547,0.,-0.707106781186548));
#1428=DIRECTION('center_axis',(0.,1.,0.));
#1429=DIRECTION('ref_axis',(0.,0.,-1.));
#1430=DIRECTION('',(0.,1.,0.));
#1431=DIRECTION('',(0.,1.,0.));
#1432=DIRECTION('',(0.,1.,0.));
#1433=DIRECTION('',(0.,-1.,0.));
#1434=DIRECTION('center_axis',(0.,0.,1.));
#1435=DIRECTION('ref_axis',(1.,0.,0.));
#1436=DIRECTION('center_axis',(-0.380036192677948,0.924971616999597,0.));
#1437=DIRECTION('ref_axis',(0.,0.,-1.));
#1438=DIRECTION('center_axis',(0.,0.,-1.));
#1439=DIRECTION('ref_axis',(-0.981063610832549,-0.193685806140257,0.));
#1440=DIRECTION('center_axis',(0.,0.,1.));
#1441=DIRECTION('ref_axis',(-0.981063610832549,-0.193685806140257,0.));
#1442=DIRECTION('center_axis',(-0.380036192677948,0.924971616999597,0.));
#1443=DIRECTION('ref_axis',(-0.654053702785502,-0.268726168938894,-0.707106781186547));
#1444=DIRECTION('center_axis',(-0.380036192677948,0.924971616999597,0.));
#1445=DIRECTION('ref_axis',(0.,0.,-1.));
#1446=DIRECTION('',(-0.380036192677948,0.924971616999597,0.));
#1447=DIRECTION('',(0.380036192677948,-0.924971616999597,0.));
#1448=DIRECTION('center_axis',(0.,0.,1.));
#1449=DIRECTION('ref_axis',(1.,0.,0.));
#1450=DIRECTION('center_axis',(-0.703045383319383,0.7111449845097,0.));
#1451=DIRECTION('ref_axis',(0.,0.,-1.));
#1452=DIRECTION('center_axis',(0.,0.,-1.));
#1453=DIRECTION('ref_axis',(-0.833848378149944,-0.551993552731106,0.));
#1454=DIRECTION('center_axis',(0.,0.,1.));
#1455=DIRECTION('ref_axis',(-0.833848378149944,-0.551993552731106,0.));
#1456=DIRECTION('center_axis',(0.703045383319384,-0.711144984509699,0.));
#1457=DIRECTION('ref_axis',(-0.502855440953611,-0.497128158027031,-0.707106781186548));
#1458=DIRECTION('center_axis',(-0.703045383319382,0.711144984509701,0.));
#1459=DIRECTION('ref_axis',(0.,0.,-1.));
#1460=DIRECTION('',(-0.703045383319384,0.711144984509699,0.));
#1461=DIRECTION('',(0.703045383319384,-0.711144984509699,0.));
#1462=DIRECTION('center_axis',(0.,0.,1.));
#1463=DIRECTION('ref_axis',(1.,0.,0.));
#1464=DIRECTION('center_axis',(-0.922779871724396,0.385327533846605,0.));
#1465=DIRECTION('ref_axis',(0.,0.,-1.));
#1466=DIRECTION('center_axis',(0.,0.,-1.));
#1467=DIRECTION('ref_axis',(-0.559136662387924,-0.829075504868943,0.));
#1468=DIRECTION('center_axis',(0.,0.,1.));
#1469=DIRECTION('ref_axis',(-0.559136662387924,-0.829075504868943,0.));
#1470=DIRECTION('center_axis',(-0.922779871724396,0.385327533846607,0.));
#1471=DIRECTION('ref_axis',(-0.272467712160824,-0.652503904838771,-0.707106781186549));
#1472=DIRECTION('center_axis',(-0.922779871724395,0.385327533846609,0.));
#1473=DIRECTION('ref_axis',(0.,0.,-1.));
#1474=DIRECTION('',(-0.922779871724396,0.385327533846607,0.));
#1475=DIRECTION('',(0.922779871724396,-0.385327533846607,0.));
#1476=DIRECTION('center_axis',(0.,0.,1.));
#1477=DIRECTION('ref_axis',(1.,0.,0.));
#1478=DIRECTION('center_axis',(-1.,-4.44089209850062E-15,0.));
#1479=DIRECTION('ref_axis',(0.,0.,-1.));
#1480=DIRECTION('center_axis',(0.,0.,-1.));
#1481=DIRECTION('ref_axis',(-0.196494437930955,-0.980504939233963,0.));
#1482=DIRECTION('center_axis',(0.,0.,1.));
#1483=DIRECTION('ref_axis',(-0.196494437930955,-0.980504939233963,0.));
#1484=DIRECTION('center_axis',(1.,0.,0.));
#1485=DIRECTION('ref_axis',(0.,-0.707106781186546,-0.707106781186549));
#1486=DIRECTION('center_axis',(-1.,0.,0.));
#1487=DIRECTION('ref_axis',(0.,0.,-1.));
#1488=DIRECTION('',(-1.,0.,0.));
#1489=DIRECTION('',(1.,0.,0.));
#1490=DIRECTION('center_axis',(0.,0.,1.));
#1491=DIRECTION('ref_axis',(1.,0.,0.));
#1492=DIRECTION('center_axis',(-0.922779871724395,-0.385327533846609,0.));
#1493=DIRECTION('ref_axis',(0.,0.,-1.));
#1494=DIRECTION('center_axis',(0.,0.,-1.));
#1495=DIRECTION('ref_axis',(0.196494437930956,-0.980504939233963,0.));
#1496=DIRECTION('center_axis',(0.,0.,1.));
#1497=DIRECTION('ref_axis',(0.196494437930956,-0.980504939233963,0.));
#1498=DIRECTION('center_axis',(-0.922779871724396,-0.385327533846607,0.));
#1499=DIRECTION('ref_axis',(0.272467712160828,-0.652503904838774,-0.707106781186545));
#1500=DIRECTION('center_axis',(-0.922779871724398,-0.385327533846602,0.));
#1501=DIRECTION('ref_axis',(0.,0.,-1.));
#1502=DIRECTION('',(-0.922779871724396,-0.385327533846607,0.));
#1503=DIRECTION('',(0.922779871724396,0.385327533846607,0.));
#1504=DIRECTION('center_axis',(0.,0.,1.));
#1505=DIRECTION('ref_axis',(1.,0.,0.));
#1506=DIRECTION('center_axis',(-0.703045383319383,-0.7111449845097,0.));
#1507=DIRECTION('ref_axis',(0.,0.,-1.));
#1508=DIRECTION('center_axis',(0.,0.,-1.));
#1509=DIRECTION('ref_axis',(0.559136662387925,-0.829075504868942,0.));
#1510=DIRECTION('center_axis',(0.,0.,1.));
#1511=DIRECTION('ref_axis',(0.559136662387925,-0.829075504868942,0.));
#1512=DIRECTION('center_axis',(0.703045383319384,0.711144984509699,0.));
#1513=DIRECTION('ref_axis',(0.502855440953605,-0.497128158027038,-0.707106781186548));
#1514=DIRECTION('center_axis',(-0.703045383319386,-0.711144984509698,0.));
#1515=DIRECTION('ref_axis',(0.,0.,-1.));
#1516=DIRECTION('',(-0.703045383319384,-0.711144984509699,0.));
#1517=DIRECTION('',(0.703045383319384,0.711144984509699,0.));
#1518=DIRECTION('center_axis',(0.,0.,1.));
#1519=DIRECTION('ref_axis',(1.,0.,0.));
#1520=DIRECTION('center_axis',(-0.380036192677946,-0.924971616999598,0.));
#1521=DIRECTION('ref_axis',(0.,0.,-1.));
#1522=DIRECTION('center_axis',(0.,0.,-1.));
#1523=DIRECTION('ref_axis',(0.833848378149943,-0.551993552731107,0.));
#1524=DIRECTION('center_axis',(0.,0.,1.));
#1525=DIRECTION('ref_axis',(0.833848378149944,-0.551993552731107,0.));
#1526=DIRECTION('center_axis',(-0.380036192677947,-0.924971616999598,0.));
#1527=DIRECTION('ref_axis',(0.654053702785502,-0.268726168938894,-0.707106781186547));
#1528=DIRECTION('center_axis',(-0.380036192677946,-0.924971616999598,0.));
#1529=DIRECTION('ref_axis',(0.,0.,-1.));
#1530=DIRECTION('',(-0.380036192677947,-0.924971616999598,0.));
#1531=DIRECTION('',(0.380036192677947,0.924971616999598,0.));
#1532=DIRECTION('center_axis',(0.,0.,1.));
#1533=DIRECTION('ref_axis',(1.,0.,0.));
#1534=DIRECTION('center_axis',(-1.38777878078144E-16,-1.,0.));
#1535=DIRECTION('ref_axis',(0.,0.,-1.));
#1536=DIRECTION('center_axis',(0.,0.,-1.));
#1537=DIRECTION('ref_axis',(0.981063610832549,-0.193685806140257,0.));
#1538=DIRECTION('center_axis',(0.,0.,1.));
#1539=DIRECTION('ref_axis',(0.981063610832549,-0.193685806140257,0.));
#1540=DIRECTION('center_axis',(0.,1.,0.));
#1541=DIRECTION('ref_axis',(0.707106781186546,0.,-0.707106781186549));
#1542=DIRECTION('center_axis',(4.44089209850064E-15,-1.,0.));
#1543=DIRECTION('ref_axis',(0.,0.,-1.));
#1544=DIRECTION('',(0.,-1.,0.));
#1545=DIRECTION('',(0.,1.,0.));
#1546=DIRECTION('center_axis',(0.,0.,1.));
#1547=DIRECTION('ref_axis',(1.,0.,0.));
#1548=DIRECTION('center_axis',(1.,0.,0.));
#1549=DIRECTION('ref_axis',(0.,0.,-1.));
#1550=DIRECTION('center_axis',(0.,0.,-1.));
#1551=DIRECTION('ref_axis',(0.707106781186548,0.707106781186547,0.));
#1552=DIRECTION('center_axis',(0.,0.,1.));
#1553=DIRECTION('ref_axis',(0.707106781186548,0.707106781186547,0.));
#1554=DIRECTION('center_axis',(-1.,0.,0.));
#1555=DIRECTION('ref_axis',(0.,0.707106781186546,-0.707106781186549));
#1556=DIRECTION('',(1.,0.,0.));
#1557=DIRECTION('',(-1.,0.,0.));
#1558=DIRECTION('center_axis',(0.711144984509699,-0.703045383319384,0.));
#1559=DIRECTION('ref_axis',(0.,0.,-1.));
#1560=DIRECTION('',(0.,0.,-1.));
#1561=DIRECTION('',(0.703045383319384,0.711144984509699,0.));
#1562=DIRECTION('',(0.,0.,1.));
#1563=DIRECTION('center_axis',(0.,0.,1.));
#1564=DIRECTION('ref_axis',(0.833848378149944,-0.551993552731106,0.));
#1565=DIRECTION('',(0.,0.,1.));
#1566=DIRECTION('center_axis',(0.,0.,-1.));
#1567=DIRECTION('ref_axis',(0.833848378149944,-0.551993552731106,0.));
#1568=DIRECTION('center_axis',(0.924971616999598,-0.380036192677947,0.));
#1569=DIRECTION('ref_axis',(-0.380036192677947,-0.924971616999598,0.));
#1570=DIRECTION('',(0.,0.,-1.));
#1571=DIRECTION('',(0.380036192677947,0.924971616999598,0.));
#1572=DIRECTION('center_axis',(0.,0.,-1.));
#1573=DIRECTION('ref_axis',(0.981063610832549,-0.193685806140257,0.));
#1574=DIRECTION('',(0.,0.,1.));
#1575=DIRECTION('center_axis',(0.,0.,-1.));
#1576=DIRECTION('ref_axis',(0.981063610832549,-0.193685806140257,0.));
#1577=DIRECTION('center_axis',(1.,0.,0.));
#1578=DIRECTION('ref_axis',(0.,0.,-1.));
#1579=DIRECTION('',(0.,0.,-1.));
#1580=DIRECTION('',(0.,1.,0.));
#1581=DIRECTION('center_axis',(0.,0.,1.));
#1582=DIRECTION('ref_axis',(0.707106781186547,0.707106781186547,0.));
#1583=DIRECTION('',(0.,0.,1.));
#1584=DIRECTION('center_axis',(0.,0.,-1.));
#1585=DIRECTION('ref_axis',(0.707106781186547,0.707106781186547,0.));
#1586=DIRECTION('center_axis',(0.,1.,0.));
#1587=DIRECTION('ref_axis',(0.,0.,1.));
#1588=DIRECTION('',(0.,0.,-1.));
#1589=DIRECTION('',(-1.,0.,0.));
#1590=DIRECTION('center_axis',(0.,0.,1.));
#1591=DIRECTION('ref_axis',(-0.707106781186547,0.707106781186547,0.));
#1592=DIRECTION('',(0.,0.,1.));
#1593=DIRECTION('center_axis',(0.,0.,-1.));
#1594=DIRECTION('ref_axis',(-0.707106781186547,0.707106781186547,0.));
#1595=DIRECTION('center_axis',(-1.,0.,0.));
#1596=DIRECTION('ref_axis',(0.,0.,1.));
#1597=DIRECTION('',(0.,0.,-1.));
#1598=DIRECTION('',(0.,-1.,0.));
#1599=DIRECTION('',(0.,0.,1.));
#1600=DIRECTION('',(0.,0.,-1.));
#1601=DIRECTION('',(0.,-1.,0.));
#1602=DIRECTION('center_axis',(0.,0.,1.));
#1603=DIRECTION('ref_axis',(1.,0.,0.));
#1604=DIRECTION('center_axis',(0.,0.,1.));
#1605=DIRECTION('ref_axis',(1.,0.,0.));
#1606=DIRECTION('center_axis',(0.,0.,-1.));
#1607=DIRECTION('ref_axis',(-0.981063610832549,-0.193685806140257,0.));
#1608=DIRECTION('',(0.380036192677948,-0.924971616999597,0.));
#1609=DIRECTION('center_axis',(0.,0.,-1.));
#1610=DIRECTION('ref_axis',(-0.833848378149944,-0.551993552731106,0.));
#1611=DIRECTION('',(0.703045383319384,-0.711144984509699,0.));
#1612=DIRECTION('center_axis',(0.,0.,-1.));
#1613=DIRECTION('ref_axis',(-0.559136662387925,-0.829075504868942,0.));
#1614=DIRECTION('',(0.922779871724396,-0.385327533846607,0.));
#1615=DIRECTION('center_axis',(0.,0.,-1.));
#1616=DIRECTION('ref_axis',(-0.196494437930955,-0.980504939233963,0.));
#1617=DIRECTION('',(1.,0.,0.));
#1618=DIRECTION('center_axis',(0.,0.,-1.));
#1619=DIRECTION('ref_axis',(0.196494437930956,-0.980504939233963,0.));
#1620=DIRECTION('',(0.922779871724396,0.385327533846607,0.));
#1621=DIRECTION('center_axis',(0.,0.,-1.));
#1622=DIRECTION('ref_axis',(0.559136662387925,-0.829075504868942,0.));
#1623=DIRECTION('',(-0.71119163963249,-0.702998187562991,0.));
#1624=DIRECTION('',(-1.,0.,0.));
#1625=DIRECTION('',(-0.71119163963249,0.702998187562991,0.));
#1626=DIRECTION('',(-5.25626935781591E-33,1.,0.));
#1627=DIRECTION('',(1.,0.,0.));
#1628=DIRECTION('',(0.,-1.,0.));
#1629=DIRECTION('center_axis',(0.,0.,1.));
#1630=DIRECTION('ref_axis',(0.196494437930956,-0.980504939233963,0.));
#1631=DIRECTION('',(0.,0.,1.));
#1632=DIRECTION('',(0.,0.,-1.));
#1633=DIRECTION('center_axis',(0.385327533846607,-0.922779871724396,0.));
#1634=DIRECTION('ref_axis',(-0.922779871724396,-0.385327533846607,0.));
#1635=DIRECTION('',(0.,0.,-1.));
#1636=DIRECTION('center_axis',(0.,0.,-1.));
#1637=DIRECTION('ref_axis',(0.559136662387925,-0.829075504868942,0.));
#1638=DIRECTION('center_axis',(0.,0.,-1.));
#1639=DIRECTION('ref_axis',(-0.196494437930955,-0.980504939233963,0.));
#1640=DIRECTION('',(0.,0.,1.));
#1641=DIRECTION('',(0.,0.,-1.));
#1642=DIRECTION('center_axis',(-0.385327533846607,-0.922779871724396,0.));
#1643=DIRECTION('ref_axis',(-0.922779871724396,0.385327533846607,0.));
#1644=DIRECTION('',(0.,0.,1.));
#1645=DIRECTION('center_axis',(0.,0.,1.));
#1646=DIRECTION('ref_axis',(-0.559136662387925,-0.829075504868942,0.));
#1647=DIRECTION('',(0.,0.,-1.));
#1648=DIRECTION('center_axis',(-0.711144984509699,-0.703045383319384,0.));
#1649=DIRECTION('ref_axis',(0.,0.,1.));
#1650=DIRECTION('',(0.,0.,1.));
#1651=DIRECTION('center_axis',(0.,0.,-1.));
#1652=DIRECTION('ref_axis',(-0.833848378149944,-0.551993552731106,0.));
#1653=DIRECTION('',(0.,0.,-1.));
#1654=DIRECTION('center_axis',(-0.924971616999597,-0.380036192677948,0.));
#1655=DIRECTION('ref_axis',(-0.380036192677948,0.924971616999597,0.));
#1656=DIRECTION('',(0.,0.,1.));
#1657=DIRECTION('center_axis',(0.,0.,1.));
#1658=DIRECTION('ref_axis',(-0.981063610832549,-0.193685806140257,0.));
#1659=DIRECTION('center_axis',(1.,0.,0.));
#1660=DIRECTION('ref_axis',(0.,-0.707106781186548,-0.707106781186548));
#1661=DIRECTION('center_axis',(-1.,0.,0.));
#1662=DIRECTION('ref_axis',(0.,0.,-1.));
#1663=DIRECTION('',(1.,0.,0.));
#1664=DIRECTION('center_axis',(1.,5.25626935781591E-33,0.));
#1665=DIRECTION('ref_axis',(0.,-0.707106781186548,-0.707106781186548));
#1666=DIRECTION('',(-1.,0.,0.));
#1667=DIRECTION('center_axis',(0.,0.,1.));
#1668=DIRECTION('ref_axis',(1.,0.,0.));
#1669=DIRECTION('center_axis',(0.,0.,-1.));
#1670=DIRECTION('ref_axis',(-0.707106781186547,0.707106781186548,0.));
#1671=DIRECTION('center_axis',(0.,0.,1.));
#1672=DIRECTION('ref_axis',(-0.707106781186547,0.707106781186548,0.));
#1673=DIRECTION('center_axis',(0.,0.,1.));
#1674=DIRECTION('ref_axis',(1.,0.,0.));
#1675=DIRECTION('',(5.25626935781591E-33,-1.,0.));
#1676=DIRECTION('',(0.71119163963249,-0.702998187562991,0.));
#1677=DIRECTION('',(1.,0.,0.));
#1678=DIRECTION('',(0.71119163963249,0.702998187562991,0.));
#1679=DIRECTION('',(0.,1.,0.));
#1680=DIRECTION('',(-1.,0.,0.));
#1681=DIRECTION('',(5.25626935781591E-33,-1.,0.));
#1682=DIRECTION('',(1.,0.,0.));
#1683=DIRECTION('center_axis',(0.,0.,1.));
#1684=DIRECTION('ref_axis',(-0.707106781186547,-0.707106781186548,0.));
#1685=DIRECTION('center_axis',(0.,0.,-1.));
#1686=DIRECTION('ref_axis',(-1.,0.,0.));
#1687=DIRECTION('center_axis',(1.,0.,0.));
#1688=DIRECTION('ref_axis',(0.,0.,1.));
#1689=DIRECTION('center_axis',(0.,0.,1.));
#1690=DIRECTION('ref_axis',(-0.707106781186547,0.707106781186548,0.));
#1691=DIRECTION('center_axis',(0.,0.,-1.));
#1692=DIRECTION('ref_axis',(-0.707106781186547,0.707106781186548,0.));
#1693=DIRECTION('center_axis',(1.,0.,0.));
#1694=DIRECTION('ref_axis',(0.,-0.707106781186547,0.707106781186548));
#1695=DIRECTION('center_axis',(1.,5.25626935781591E-33,0.));
#1696=DIRECTION('ref_axis',(0.,-0.707106781186547,0.707106781186548));
#1697=DIRECTION('',(-1.,0.,0.));
#1698=DIRECTION('',(1.,0.,0.));
#1699=DIRECTION('center_axis',(0.,0.,1.));
#1700=DIRECTION('ref_axis',(0.,-1.,0.));
#1701=DIRECTION('center_axis',(0.,0.,-1.));
#1702=DIRECTION('ref_axis',(-0.707106781186547,-0.707106781186548,0.));
#1703=DIRECTION('',(-1.,0.,0.));
#1704=DIRECTION('',(-5.25626935781591E-33,1.,0.));
#1705=DIRECTION('center_axis',(1.,0.,0.));
#1706=DIRECTION('ref_axis',(0.,0.707106781186548,0.707106781186548));
#1707=DIRECTION('center_axis',(-1.,0.,0.));
#1708=DIRECTION('ref_axis',(0.,0.,1.));
#1709=DIRECTION('',(1.,0.,0.));
#1710=DIRECTION('center_axis',(1.,5.25626935781591E-33,0.));
#1711=DIRECTION('ref_axis',(0.,0.707106781186548,0.707106781186548));
#1712=DIRECTION('center_axis',(0.,0.,-1.));
#1713=DIRECTION('ref_axis',(-1.,0.,0.));
#1714=DIRECTION('center_axis',(0.,0.,1.));
#1715=DIRECTION('ref_axis',(-0.707106781186547,-0.707106781186548,0.));
#1716=DIRECTION('center_axis',(0.,0.,1.));
#1717=DIRECTION('ref_axis',(1.,0.,0.));
#1718=DIRECTION('center_axis',(1.,0.,0.));
#1719=DIRECTION('ref_axis',(0.,0.,-1.));
#1720=DIRECTION('center_axis',(0.,0.,-1.));
#1721=DIRECTION('ref_axis',(-0.707106781186547,-0.707106781186548,0.));
#1722=DIRECTION('center_axis',(1.,0.,0.));
#1723=DIRECTION('ref_axis',(0.,0.707106781186548,-0.707106781186547));
#1724=DIRECTION('center_axis',(1.,5.25626935781591E-33,0.));
#1725=DIRECTION('ref_axis',(0.,0.707106781186548,-0.707106781186547));
#1726=DIRECTION('',(-1.,0.,0.));
#1727=DIRECTION('center_axis',(0.,0.,-1.));
#1728=DIRECTION('ref_axis',(-0.707106781186548,0.707106781186547,0.));
#1729=DIRECTION('',(0.,0.,-1.));
#1730=DIRECTION('center_axis',(0.,-1.,0.));
#1731=DIRECTION('ref_axis',(0.,0.,-1.));
#1732=DIRECTION('',(0.,0.,1.));
#1733=DIRECTION('center_axis',(0.,0.,1.));
#1734=DIRECTION('ref_axis',(-0.707106781186548,-0.707106781186548,0.));
#1735=DIRECTION('',(0.,0.,1.));
#1736=DIRECTION('center_axis',(0.,1.,0.));
#1737=DIRECTION('ref_axis',(0.,0.,1.));
#1738=DIRECTION('',(0.,0.,-1.));
#1739=DIRECTION('center_axis',(1.,0.,0.));
#1740=DIRECTION('ref_axis',(0.,0.,-1.));
#1741=DIRECTION('',(0.,0.,1.));
#1742=DIRECTION('',(0.,1.,0.));
#1743=DIRECTION('',(0.,0.,-1.));
#1744=DIRECTION('',(0.,1.,0.));
#1745=DIRECTION('center_axis',(0.,0.,1.));
#1746=DIRECTION('ref_axis',(1.,0.,0.));
#1747=DIRECTION('',(-1.,0.,0.));
#1748=DIRECTION('',(1.,0.,0.));
#1749=DIRECTION('',(0.,1.,0.));
#1750=DIRECTION('center_axis',(-1.,0.,0.));
#1751=DIRECTION('ref_axis',(0.,0.,1.));
#1752=DIRECTION('',(0.,0.,1.));
#1753=DIRECTION('',(0.,0.,1.));
#1754=DIRECTION('',(0.,1.,0.));
#1755=DIRECTION('center_axis',(0.,0.,-1.));
#1756=DIRECTION('ref_axis',(-1.,0.,0.));
#1757=DIRECTION('',(1.,0.,0.));
#1758=DIRECTION('',(-1.,0.,0.));
#1759=DIRECTION('center_axis',(0.,1.,0.));
#1760=DIRECTION('ref_axis',(0.,0.,1.));
#1761=DIRECTION('center_axis',(0.,1.,0.));
#1762=DIRECTION('ref_axis',(-1.,0.,0.));
#1763=DIRECTION('',(0.,0.,1.));
#1764=DIRECTION('',(0.,0.,1.));
#1765=DIRECTION('center_axis',(0.,0.,1.));
#1766=DIRECTION('ref_axis',(-1.,0.,0.));
#1767=DIRECTION('',(1.,0.,0.));
#1768=DIRECTION('',(-5.25626935781591E-33,1.,0.));
#1769=DIRECTION('',(-1.,0.,0.));
#1770=DIRECTION('',(0.,-1.,0.));
#1771=DIRECTION('center_axis',(1.,0.,0.));
#1772=DIRECTION('ref_axis',(0.,0.,1.));
#1773=DIRECTION('',(0.,0.,-1.));
#1774=DIRECTION('',(0.,0.,1.));
#1775=DIRECTION('',(0.,-1.,0.));
#1776=DIRECTION('center_axis',(0.,0.,-1.));
#1777=DIRECTION('ref_axis',(1.,0.,0.));
#1778=DIRECTION('',(-1.,0.,0.));
#1779=DIRECTION('',(1.,0.,0.));
#1780=DIRECTION('',(5.25626935781591E-33,-1.,0.));
#1781=DIRECTION('center_axis',(0.,-1.,0.));
#1782=DIRECTION('ref_axis',(0.,0.,-1.));
#1783=DIRECTION('',(0.,0.,1.));
#1784=DIRECTION('center_axis',(0.,-1.,0.));
#1785=DIRECTION('ref_axis',(1.,0.,0.));
#1786=DIRECTION('',(0.,0.,1.));
#1787=DIRECTION('',(0.,0.,1.));
#1788=DIRECTION('',(0.,0.,1.));
#1789=DIRECTION('center_axis',(1.,5.25626935781591E-33,0.));
#1790=DIRECTION('ref_axis',(-5.25626935781591E-33,1.,0.));
#1791=DIRECTION('',(0.,0.,1.));
#1792=DIRECTION('center_axis',(-1.,0.,0.));
#1793=DIRECTION('ref_axis',(0.,-1.,0.));
#1794=DIRECTION('',(0.,0.,1.));
#1795=DIRECTION('center_axis',(0.702998187562991,0.71119163963249,0.));
#1796=DIRECTION('ref_axis',(-0.71119163963249,0.702998187562991,0.));
#1797=DIRECTION('',(0.,0.,1.));
#1798=DIRECTION('center_axis',(0.,1.,0.));
#1799=DIRECTION('ref_axis',(-1.,0.,0.));
#1800=DIRECTION('',(0.,0.,1.));
#1801=DIRECTION('center_axis',(-0.702998187562991,0.71119163963249,0.));
#1802=DIRECTION('ref_axis',(-0.71119163963249,-0.702998187562991,0.));
#1803=DIRECTION('center_axis',(0.,-1.,0.));
#1804=DIRECTION('ref_axis',(0.,0.,-1.));
#1805=CARTESIAN_POINT('',(0.,0.,0.));
#1806=CARTESIAN_POINT('Origin',(-5.,28.95,1.));
#1807=CARTESIAN_POINT('',(-5.,33.95,1.));
#1808=CARTESIAN_POINT('',(-5.,32.95,0.));
#1809=CARTESIAN_POINT('Origin',(-5.,32.95,1.));
#1810=CARTESIAN_POINT('',(-9.,28.95,0.));
#1811=CARTESIAN_POINT('Origin',(-5.,28.95,0.));
#1812=CARTESIAN_POINT('',(-10.,28.95,1.));
#1813=CARTESIAN_POINT('Origin',(-9.,28.95,1.));
#1814=CARTESIAN_POINT('Origin',(-5.,28.95,1.));
#1815=CARTESIAN_POINT('Origin',(-9.,12.475,1.));
#1816=CARTESIAN_POINT('',(-9.,0.987121548499248,0.));
#1817=CARTESIAN_POINT('',(-10.,0.987121548499248,1.));
#1818=CARTESIAN_POINT('Origin',(-9.,0.987121548499248,1.));
#1819=CARTESIAN_POINT('',(-10.,5.23205080756888,1.));
#1820=CARTESIAN_POINT('',(-10.,12.475,1.));
#1821=CARTESIAN_POINT('',(-10.,16.7679491924311,1.));
#1822=CARTESIAN_POINT('',(-10.,14.225,1.));
#1823=CARTESIAN_POINT('',(-10.,12.475,1.));
#1824=CARTESIAN_POINT('',(-9.,12.475,0.));
#1825=CARTESIAN_POINT('Origin',(-5.,0.987121548499248,1.));
#1826=CARTESIAN_POINT('',(-8.69988646799839,-0.533023222212544,0.));
#1827=CARTESIAN_POINT('',(-9.62485808499799,-0.913059414890492,1.));
#1828=CARTESIAN_POINT('Origin',(-8.69988646799839,-0.533023222212544,1.));
#1829=CARTESIAN_POINT('Origin',(-5.,0.987121548499248,1.));
#1830=CARTESIAN_POINT('Origin',(-5.,0.987121548499248,0.));
#1831=CARTESIAN_POINT('Origin',(-5.01184237651009,-9.50936856140659,1.));
#1832=CARTESIAN_POINT('',(-6.56162014309941,-5.7373582256254,0.));
#1833=CARTESIAN_POINT('',(-7.48659176009901,-6.11739441830335,1.));
#1834=CARTESIAN_POINT('Origin',(-6.56162014309941,-5.7373582256254,1.));
#1835=CARTESIAN_POINT('',(-5.93681399350969,-9.88940475408453,1.));
#1836=CARTESIAN_POINT('',(-5.01184237651009,-9.50936856140659,0.));
#1837=CARTESIAN_POINT('Origin',(-2.86173367510102,-4.21721345491361,1.));
#1838=CARTESIAN_POINT('',(-5.70631361313982,-7.02939498819114,0.));
#1839=CARTESIAN_POINT('',(-6.41745859764952,-7.73244037151052,1.));
#1840=CARTESIAN_POINT('Origin',(-5.70631361313982,-7.02939498819114,1.));
#1841=CARTESIAN_POINT('Origin',(-2.86173367510102,-4.21721345491361,1.));
#1842=CARTESIAN_POINT('Origin',(-2.86173367510102,-4.21721345491361,0.));
#1843=CARTESIAN_POINT('Origin',(0.442526378243702,-13.2490741499823,1.));
#1844=CARTESIAN_POINT('',(14.5952391907093,-27.5648366492274,0.));
#1845=CARTESIAN_POINT('',(13.8840942061996,-28.2678820325468,1.));
#1846=CARTESIAN_POINT('Origin',(14.5952391907093,-27.5648366492274,1.));
#1847=CARTESIAN_POINT('',(-0.268618606265998,-13.9521195333017,1.));
#1848=CARTESIAN_POINT('',(0.442526378243702,-13.2490741499823,0.));
#1849=CARTESIAN_POINT('Origin',(17.4398191287481,-24.7526551159499,1.));
#1850=CARTESIAN_POINT('',(15.8985089933616,-28.4437746028475,0.));
#1851=CARTESIAN_POINT('',(15.513181459515,-29.3665544745719,1.));
#1852=CARTESIAN_POINT('Origin',(15.8985089933616,-28.4437746028475,1.));
#1853=CARTESIAN_POINT('Origin',(17.4398191287481,-24.7526551159499,1.));
#1854=CARTESIAN_POINT('Origin',(17.4398191287481,-24.7526551159499,0.));
#1855=CARTESIAN_POINT('Origin',(19.2076001447569,-29.825560196261,1.));
#1856=CARTESIAN_POINT('',(21.1606962292346,-30.6411194868976,0.));
#1857=CARTESIAN_POINT('',(20.775368695388,-31.563899358622,1.));
#1858=CARTESIAN_POINT('Origin',(21.1606962292346,-30.6411194868976,1.));
#1859=CARTESIAN_POINT('',(18.8222726109103,-30.7483400679854,1.));
#1860=CARTESIAN_POINT('',(19.2076001447569,-29.825560196261,0.));
#1861=CARTESIAN_POINT('Origin',(22.702006364621,-26.95,1.));
#1862=CARTESIAN_POINT('',(22.702006364621,-30.95,0.));
#1863=CARTESIAN_POINT('',(22.702006364621,-31.95,1.));
#1864=CARTESIAN_POINT('Origin',(22.702006364621,-30.95,1.));
#1865=CARTESIAN_POINT('Origin',(22.702006364621,-26.95,1.));
#1866=CARTESIAN_POINT('Origin',(22.702006364621,-26.95,0.));
#1867=CARTESIAN_POINT('Origin',(25.2,-30.95,1.));
#1868=CARTESIAN_POINT('',(34.697993635379,-30.95,0.));
#1869=CARTESIAN_POINT('',(34.697993635379,-31.95,1.));
#1870=CARTESIAN_POINT('Origin',(34.697993635379,-30.95,1.));
#1871=CARTESIAN_POINT('',(25.2,-31.95,1.));
#1872=CARTESIAN_POINT('',(25.2,-30.95,0.));
#1873=CARTESIAN_POINT('Origin',(34.697993635379,-26.95,1.));
#1874=CARTESIAN_POINT('',(36.2393037707654,-30.6411194868976,0.));
#1875=CARTESIAN_POINT('',(36.624631304612,-31.563899358622,1.));
#1876=CARTESIAN_POINT('Origin',(36.2393037707654,-30.6411194868976,1.));
#1877=CARTESIAN_POINT('Origin',(34.697993635379,-26.95,1.));
#1878=CARTESIAN_POINT('Origin',(34.697993635379,-26.95,0.));
#1879=CARTESIAN_POINT('Origin',(41.7481247777916,-28.3407871128579,1.));
#1880=CARTESIAN_POINT('',(41.5014910066384,-28.4437746028475,0.));
#1881=CARTESIAN_POINT('',(41.886818540485,-29.3665544745719,1.));
#1882=CARTESIAN_POINT('Origin',(41.5014910066384,-28.4437746028475,1.));
#1883=CARTESIAN_POINT('',(42.1334523116382,-29.2635669845823,1.));
#1884=CARTESIAN_POINT('',(41.7481247777916,-28.3407871128579,0.));
#1885=CARTESIAN_POINT('Origin',(39.9601808712519,-24.7526551159499,1.));
#1886=CARTESIAN_POINT('',(42.8047608092907,-27.5648366492274,0.));
#1887=CARTESIAN_POINT('',(43.5159057938004,-28.2678820325468,1.));
#1888=CARTESIAN_POINT('Origin',(42.8047608092907,-27.5648366492274,1.));
#1889=CARTESIAN_POINT('Origin',(39.9601808712519,-24.7526551159499,1.));
#1890=CARTESIAN_POINT('Origin',(39.9601808712519,-24.7526551159499,0.));
#1891=CARTESIAN_POINT('Origin',(46.1074736217563,-24.2240741499823,1.));
#1892=CARTESIAN_POINT('',(63.1063136131398,-7.02939498819114,0.));
#1893=CARTESIAN_POINT('',(63.8174585976495,-7.73244037151052,1.));
#1894=CARTESIAN_POINT('Origin',(63.1063136131398,-7.02939498819114,1.));
#1895=CARTESIAN_POINT('',(46.818618606266,-24.9271195333017,1.));
#1896=CARTESIAN_POINT('',(46.1074736217563,-24.2240741499823,0.));
#1897=CARTESIAN_POINT('Origin',(60.261733675101,-4.2172134549136,1.));
#1898=CARTESIAN_POINT('',(63.9616201430994,-5.73735822562539,0.));
#1899=CARTESIAN_POINT('',(64.886591760099,-6.11739441830334,1.));
#1900=CARTESIAN_POINT('Origin',(63.9616201430994,-5.73735822562539,1.));
#1901=CARTESIAN_POINT('Origin',(60.261733675101,-4.2172134549136,1.));
#1902=CARTESIAN_POINT('Origin',(60.261733675101,-4.2172134549136,0.));
#1903=CARTESIAN_POINT('Origin',(63.8561174539616,-5.99414164480966,1.));
#1904=CARTESIAN_POINT('',(66.0998864679984,-0.533023222212546,0.));
#1905=CARTESIAN_POINT('',(67.024858084998,-0.913059414890493,1.));
#1906=CARTESIAN_POINT('Origin',(66.0998864679984,-0.533023222212546,1.));
#1907=CARTESIAN_POINT('',(64.7810890709612,-6.37417783748761,1.));
#1908=CARTESIAN_POINT('',(63.8561174539616,-5.99414164480966,0.));
#1909=CARTESIAN_POINT('Origin',(62.4,0.987121548499243,1.));
#1910=CARTESIAN_POINT('',(66.4,0.987121548499243,0.));
#1911=CARTESIAN_POINT('',(67.4,0.987121548499243,1.));
#1912=CARTESIAN_POINT('Origin',(66.4,0.987121548499243,1.));
#1913=CARTESIAN_POINT('Origin',(62.4,0.987121548499243,1.));
#1914=CARTESIAN_POINT('Origin',(62.4,0.987121548499243,0.));
#1915=CARTESIAN_POINT('Origin',(66.4,0.5,1.));
#1916=CARTESIAN_POINT('',(66.4,28.95,0.));
#1917=CARTESIAN_POINT('',(67.4,28.95,1.));
#1918=CARTESIAN_POINT('Origin',(66.4,28.95,1.));
#1919=CARTESIAN_POINT('',(67.4,0.5,1.));
#1920=CARTESIAN_POINT('',(66.4,0.5,0.));
#1921=CARTESIAN_POINT('Origin',(62.4,28.95,1.));
#1922=CARTESIAN_POINT('',(62.4,32.95,0.));
#1923=CARTESIAN_POINT('',(62.4,33.95,1.));
#1924=CARTESIAN_POINT('Origin',(62.4,32.95,1.));
#1925=CARTESIAN_POINT('Origin',(62.4,28.95,1.));
#1926=CARTESIAN_POINT('Origin',(62.4,28.95,0.));
#1927=CARTESIAN_POINT('Origin',(43.05,32.95,1.));
#1928=CARTESIAN_POINT('',(43.05,33.95,1.));
#1929=CARTESIAN_POINT('',(43.05,32.95,0.));
#1930=CARTESIAN_POINT('Origin',(42.811449845097,-28.9804538331938,0.));
#1931=CARTESIAN_POINT('',(63.8174585976495,-7.73244037151052,19.));
#1932=CARTESIAN_POINT('',(63.8174585976495,-7.73244037151052,0.5));
#1933=CARTESIAN_POINT('',(43.5159057938004,-28.2678820325468,19.));
#1934=CARTESIAN_POINT('',(42.811449845097,-28.9804538331938,19.));
#1935=CARTESIAN_POINT('',(43.5159057938004,-28.2678820325468,0.5));
#1936=CARTESIAN_POINT('Origin',(60.261733675101,-4.2172134549136,0.5));
#1937=CARTESIAN_POINT('',(64.886591760099,-6.11739441830334,19.));
#1938=CARTESIAN_POINT('',(64.886591760099,-6.11739441830334,0.5));
#1939=CARTESIAN_POINT('Origin',(60.261733675101,-4.2172134549136,19.));
#1940=CARTESIAN_POINT('Origin',(67.4,0.,1.));
#1941=CARTESIAN_POINT('',(67.024858084998,-0.913059414890494,19.));
#1942=CARTESIAN_POINT('',(67.024858084998,-0.913059414890493,0.5));
#1943=CARTESIAN_POINT('',(64.511449845097,-7.03045383319385,19.));
#1944=CARTESIAN_POINT('Origin',(62.4,0.987121548499243,0.5));
#1945=CARTESIAN_POINT('',(67.4,0.987121548499243,19.));
#1946=CARTESIAN_POINT('',(67.4,0.987121548499243,0.5));
#1947=CARTESIAN_POINT('Origin',(62.4,0.987121548499243,19.));
#1948=CARTESIAN_POINT('Origin',(67.4,0.,0.));
#1949=CARTESIAN_POINT('',(67.4,28.95,19.));
#1950=CARTESIAN_POINT('',(67.4,28.95,0.));
#1951=CARTESIAN_POINT('',(67.4,0.,19.));
#1952=CARTESIAN_POINT('Origin',(62.4,28.95,0.));
#1953=CARTESIAN_POINT('',(62.4,33.95,19.));
#1954=CARTESIAN_POINT('',(62.4,33.95,0.));
#1955=CARTESIAN_POINT('Origin',(62.4,28.95,19.));
#1956=CARTESIAN_POINT('Origin',(57.4,33.95,0.));
#1957=CARTESIAN_POINT('',(-5.,33.95,19.));
#1958=CARTESIAN_POINT('',(-5.,33.95,0.));
#1959=CARTESIAN_POINT('',(67.4,33.95,19.));
#1960=CARTESIAN_POINT('Origin',(-5.,28.95,0.));
#1961=CARTESIAN_POINT('',(-10.,28.95,19.));
#1962=CARTESIAN_POINT('',(-10.,28.95,0.));
#1963=CARTESIAN_POINT('Origin',(-5.,28.95,19.));
#1964=CARTESIAN_POINT('Origin',(-10.,23.95,0.));
#1965=CARTESIAN_POINT('',(-10.,18.5,2.));
#1966=CARTESIAN_POINT('Ctrl Pts',(-10.,18.5,2.));
#1967=CARTESIAN_POINT('Ctrl Pts',(-10.,18.222901777919,1.72290177791904));
#1968=CARTESIAN_POINT('Ctrl Pts',(-10.,17.884776727796,1.39608728381128));
#1969=CARTESIAN_POINT('Ctrl Pts',(-10.,17.3152695268491,1.08957199989777));
#1970=CARTESIAN_POINT('Ctrl Pts',(-10.,17.0228266143067,1.));
#1971=CARTESIAN_POINT('Ctrl Pts',(-10.,16.7679491924311,1.));
#1972=CARTESIAN_POINT('',(-10.,18.5,8.));
#1973=CARTESIAN_POINT('',(-10.,18.5,0.5));
#1974=CARTESIAN_POINT('',(-10.,16.7679491924311,9.));
#1975=CARTESIAN_POINT('Ctrl Pts',(-10.,16.7679491924311,9.));
#1976=CARTESIAN_POINT('Ctrl Pts',(-10.,17.0228266143067,9.));
#1977=CARTESIAN_POINT('Ctrl Pts',(-10.,17.3152695268491,8.91042800010223));
#1978=CARTESIAN_POINT('Ctrl Pts',(-10.,17.884776727796,8.60391271618872));
#1979=CARTESIAN_POINT('Ctrl Pts',(-10.,18.222901777919,8.27709822208096));
#1980=CARTESIAN_POINT('Ctrl Pts',(-10.,18.5,8.));
#1981=CARTESIAN_POINT('',(-10.,5.23205080756888,9.));
#1982=CARTESIAN_POINT('',(-10.,20.725,9.));
#1983=CARTESIAN_POINT('',(-10.,3.5,8.));
#1984=CARTESIAN_POINT('Ctrl Pts',(-10.,3.5,8.));
#1985=CARTESIAN_POINT('Ctrl Pts',(-10.,3.77709822208096,8.27709822208096));
#1986=CARTESIAN_POINT('Ctrl Pts',(-10.,4.11522327220401,8.60391271618872));
#1987=CARTESIAN_POINT('Ctrl Pts',(-10.,4.68473047315088,8.91042800010223));
#1988=CARTESIAN_POINT('Ctrl Pts',(-10.,4.97717338569331,9.));
#1989=CARTESIAN_POINT('Ctrl Pts',(-10.,5.23205080756888,9.));
#1990=CARTESIAN_POINT('',(-10.,3.5,2.));
#1991=CARTESIAN_POINT('',(-10.,3.5,4.5));
#1992=CARTESIAN_POINT('Ctrl Pts',(-10.,5.23205080756888,1.));
#1993=CARTESIAN_POINT('Ctrl Pts',(-10.,4.97717338569331,1.));
#1994=CARTESIAN_POINT('Ctrl Pts',(-10.,4.68473047315088,1.08957199989777));
#1995=CARTESIAN_POINT('Ctrl Pts',(-10.,4.11522327220401,1.39608728381128));
#1996=CARTESIAN_POINT('Ctrl Pts',(-10.,3.77709822208096,1.72290177791904));
#1997=CARTESIAN_POINT('Ctrl Pts',(-10.,3.5,2.));
#1998=CARTESIAN_POINT('',(-10.,0.987121548499248,19.));
#1999=CARTESIAN_POINT('',(-10.,0.987121548499248,0.5));
#2000=CARTESIAN_POINT('',(-10.,33.95,19.));
#2001=CARTESIAN_POINT('Origin',(28.7,1.,0.));
#2002=CARTESIAN_POINT('Origin',(28.7,1.,19.));
#2003=CARTESIAN_POINT('',(-9.62485808499799,-0.913059414890491,19.));
#2004=CARTESIAN_POINT('Origin',(-5.,0.987121548499248,19.));
#2005=CARTESIAN_POINT('',(-7.48659176009901,-6.11739441830335,19.));
#2006=CARTESIAN_POINT('',(-10.,0.,19.));
#2007=CARTESIAN_POINT('',(-6.41745859764952,-7.73244037151052,19.));
#2008=CARTESIAN_POINT('Origin',(-2.86173367510102,-4.21721345491361,19.));
#2009=CARTESIAN_POINT('',(13.8840942061996,-28.2678820325468,19.));
#2010=CARTESIAN_POINT('',(-7.11144984509699,-7.03045383319384,19.));
#2011=CARTESIAN_POINT('',(15.513181459515,-29.3665544745719,19.));
#2012=CARTESIAN_POINT('Origin',(17.4398191287481,-24.7526551159499,19.));
#2013=CARTESIAN_POINT('',(20.775368695388,-31.563899358622,19.));
#2014=CARTESIAN_POINT('',(14.588550154903,-28.9804538331938,19.));
#2015=CARTESIAN_POINT('',(22.702006364621,-31.95,19.));
#2016=CARTESIAN_POINT('Origin',(22.702006364621,-26.95,19.));
#2017=CARTESIAN_POINT('',(34.697993635379,-31.95,19.));
#2018=CARTESIAN_POINT('',(21.7,-31.95,19.));
#2019=CARTESIAN_POINT('',(36.624631304612,-31.563899358622,19.));
#2020=CARTESIAN_POINT('Origin',(34.697993635379,-26.95,19.));
#2021=CARTESIAN_POINT('',(41.886818540485,-29.3665544745719,19.));
#2022=CARTESIAN_POINT('',(35.7,-31.95,19.));
#2023=CARTESIAN_POINT('Origin',(39.9601808712519,-24.7526551159499,19.));
#2024=CARTESIAN_POINT('',(57.4,0.,19.));
#2025=CARTESIAN_POINT('',(35.7,-21.45,19.));
#2026=CARTESIAN_POINT('',(35.7,-21.45,19.));
#2027=CARTESIAN_POINT('',(21.7,-21.45,19.));
#2028=CARTESIAN_POINT('',(35.7,-21.45,19.));
#2029=CARTESIAN_POINT('',(0.,0.,19.));
#2030=CARTESIAN_POINT('',(0.,0.,19.));
#2031=CARTESIAN_POINT('',(0.,23.45,19.));
#2032=CARTESIAN_POINT('',(-1.23259516440783E-31,23.45,19.));
#2033=CARTESIAN_POINT('',(57.4,23.45,19.));
#2034=CARTESIAN_POINT('',(57.4,23.45,19.));
#2035=CARTESIAN_POINT('',(57.4,7.70371977754894E-32,19.));
#2036=CARTESIAN_POINT('Origin',(34.697993635379,-26.95,0.5));
#2037=CARTESIAN_POINT('',(36.624631304612,-31.563899358622,0.5));
#2038=CARTESIAN_POINT('',(34.697993635379,-31.95,0.5));
#2039=CARTESIAN_POINT('Origin',(42.811449845097,-28.9804538331938,1.));
#2040=CARTESIAN_POINT('',(41.886818540485,-29.3665544745719,0.5));
#2041=CARTESIAN_POINT('Origin',(39.9601808712519,-24.7526551159499,0.5));
#2042=CARTESIAN_POINT('Origin',(22.702006364621,-26.95,0.5));
#2043=CARTESIAN_POINT('',(22.702006364621,-31.95,0.5));
#2044=CARTESIAN_POINT('',(20.775368695388,-31.563899358622,0.5));
#2045=CARTESIAN_POINT('Origin',(21.7,-31.95,1.));
#2046=CARTESIAN_POINT('',(15.513181459515,-29.3665544745719,0.5));
#2047=CARTESIAN_POINT('Origin',(17.4398191287481,-24.7526551159499,0.5));
#2048=CARTESIAN_POINT('',(13.8840942061996,-28.2678820325468,0.5));
#2049=CARTESIAN_POINT('Origin',(-7.11144984509699,-7.03045383319384,0.));
#2050=CARTESIAN_POINT('',(-6.41745859764952,-7.73244037151052,0.5));
#2051=CARTESIAN_POINT('Origin',(-2.86173367510102,-4.21721345491361,0.5));
#2052=CARTESIAN_POINT('',(-7.48659176009901,-6.11739441830335,0.5));
#2053=CARTESIAN_POINT('Origin',(-7.11144984509699,-7.03045383319384,1.));
#2054=CARTESIAN_POINT('',(-9.62485808499799,-0.913059414890492,0.5));
#2055=CARTESIAN_POINT('Origin',(-5.,0.987121548499248,0.5));
#2056=CARTESIAN_POINT('Origin',(9.35,5.5,2.));
#2057=CARTESIAN_POINT('',(-9.,5.5,1.));
#2058=CARTESIAN_POINT('',(-9.,4.5,2.));
#2059=CARTESIAN_POINT('Origin',(-9.,5.5,2.));
#2060=CARTESIAN_POINT('',(0.,4.5,2.));
#2061=CARTESIAN_POINT('',(9.35,4.5,2.));
#2062=CARTESIAN_POINT('',(0.,5.5,1.));
#2063=CARTESIAN_POINT('Origin',(0.,5.5,2.));
#2064=CARTESIAN_POINT('',(9.35,5.5,1.));
#2065=CARTESIAN_POINT('Origin',(-9.,3.5,2.));
#2066=CARTESIAN_POINT('Origin',(-9.,3.5,2.));
#2067=CARTESIAN_POINT('Origin',(-9.,3.5,1.));
#2068=CARTESIAN_POINT('Origin',(28.7,1.,1.));
#2069=CARTESIAN_POINT('',(0.,0.,1.));
#2070=CARTESIAN_POINT('',(0.,0.5,1.));
#2071=CARTESIAN_POINT('',(21.7,-21.45,1.));
#2072=CARTESIAN_POINT('',(17.8581542010274,-17.6524150973289,1.));
#2073=CARTESIAN_POINT('',(35.7,-21.45,1.));
#2074=CARTESIAN_POINT('',(32.2,-21.45,1.));
#2075=CARTESIAN_POINT('',(57.4,0.,1.));
#2076=CARTESIAN_POINT('',(50.3918457989726,-6.92741509732893,1.));
#2077=CARTESIAN_POINT('',(57.4,23.45,1.));
#2078=CARTESIAN_POINT('',(57.4,12.225,1.));
#2079=CARTESIAN_POINT('',(-1.23259516440783E-31,23.45,1.));
#2080=CARTESIAN_POINT('',(14.35,23.45,1.));
#2081=CARTESIAN_POINT('',(0.,16.5,1.));
#2082=CARTESIAN_POINT('',(0.,0.5,1.));
#2083=CARTESIAN_POINT('',(-9.,16.5,1.));
#2084=CARTESIAN_POINT('',(9.35,16.5,1.));
#2085=CARTESIAN_POINT('Origin',(-9.,18.5,1.));
#2086=CARTESIAN_POINT('Origin',(-9.,3.5,8.));
#2087=CARTESIAN_POINT('',(-9.,5.5,9.));
#2088=CARTESIAN_POINT('',(-9.,4.5,8.));
#2089=CARTESIAN_POINT('Origin',(-9.,5.5,8.));
#2090=CARTESIAN_POINT('Origin',(-9.,3.5,8.));
#2091=CARTESIAN_POINT('Origin',(-9.,3.5,9.));
#2092=CARTESIAN_POINT('Origin',(-10.,5.5,8.));
#2093=CARTESIAN_POINT('',(1.70828754129017E-32,5.5,9.));
#2094=CARTESIAN_POINT('',(0.,4.5,8.));
#2095=CARTESIAN_POINT('Origin',(0.,5.5,8.));
#2096=CARTESIAN_POINT('',(-10.,4.5,8.));
#2097=CARTESIAN_POINT('',(-10.,5.5,9.));
#2098=CARTESIAN_POINT('Origin',(-10.,17.5,9.));
#2099=CARTESIAN_POINT('',(-9.,16.5,9.));
#2100=CARTESIAN_POINT('Origin',(-9.,18.5,9.));
#2101=CARTESIAN_POINT('',(-4.07360875230733E-32,16.5,9.));
#2102=CARTESIAN_POINT('',(-10.,16.5,9.));
#2103=CARTESIAN_POINT('',(0.,8.75,9.));
#2104=CARTESIAN_POINT('Origin',(-10.,16.5,8.));
#2105=CARTESIAN_POINT('',(-9.,17.5,8.));
#2106=CARTESIAN_POINT('Origin',(-9.,16.5,8.));
#2107=CARTESIAN_POINT('',(0.,17.5,8.));
#2108=CARTESIAN_POINT('',(-10.,17.5,8.));
#2109=CARTESIAN_POINT('Origin',(0.,16.5,8.));
#2110=CARTESIAN_POINT('Origin',(-9.,18.5,8.));
#2111=CARTESIAN_POINT('Origin',(-9.,18.5,8.));
#2112=CARTESIAN_POINT('Origin',(-9.,18.5,2.));
#2113=CARTESIAN_POINT('',(-9.,17.5,2.));
#2114=CARTESIAN_POINT('Origin',(-9.,16.5,2.));
#2115=CARTESIAN_POINT('Origin',(-9.,18.5,2.));
#2116=CARTESIAN_POINT('Origin',(9.35,16.5,2.));
#2117=CARTESIAN_POINT('',(0.,17.5,2.));
#2118=CARTESIAN_POINT('Origin',(0.,16.5,2.));
#2119=CARTESIAN_POINT('',(9.35,17.5,2.));
#2120=CARTESIAN_POINT('Origin',(-9.,3.5,4.5));
#2121=CARTESIAN_POINT('',(-9.,4.5,4.5));
#2122=CARTESIAN_POINT('Origin',(-10.,4.5,9.));
#2123=CARTESIAN_POINT('',(0.,4.5,5.));
#2124=CARTESIAN_POINT('Origin',(-9.,18.5,0.5));
#2125=CARTESIAN_POINT('',(-9.,17.5,0.5));
#2126=CARTESIAN_POINT('Origin',(-10.,17.5,1.));
#2127=CARTESIAN_POINT('',(0.,17.5,1.));
#2128=CARTESIAN_POINT('Origin',(35.7,-21.45,8.2));
#2129=CARTESIAN_POINT('',(35.7,-21.45,7.7));
#2130=CARTESIAN_POINT('',(35.7,-21.45,8.2));
#2131=CARTESIAN_POINT('',(35.7,-21.45,1.));
#2132=CARTESIAN_POINT('',(35.7,-19.45,7.7));
#2133=CARTESIAN_POINT('',(35.7,-21.45,7.7));
#2134=CARTESIAN_POINT('',(35.7,-19.45,8.2));
#2135=CARTESIAN_POINT('',(35.7,-19.45,7.7));
#2136=CARTESIAN_POINT('',(35.7,-21.45,8.2));
#2137=CARTESIAN_POINT('Origin',(21.7,-21.45,8.2));
#2138=CARTESIAN_POINT('',(21.7,-21.45,8.2));
#2139=CARTESIAN_POINT('',(28.7,-21.45,8.2));
#2140=CARTESIAN_POINT('',(21.7,-19.45,8.2));
#2141=CARTESIAN_POINT('',(35.7,-19.45,8.2));
#2142=CARTESIAN_POINT('',(21.7,-21.45,8.2));
#2143=CARTESIAN_POINT('Origin',(21.7,-21.45,7.7));
#2144=CARTESIAN_POINT('',(21.7,-21.45,7.7));
#2145=CARTESIAN_POINT('',(21.7,-21.45,1.));
#2146=CARTESIAN_POINT('',(21.7,-19.45,7.7));
#2147=CARTESIAN_POINT('',(21.7,-19.45,8.2));
#2148=CARTESIAN_POINT('',(21.7,-21.45,7.7));
#2149=CARTESIAN_POINT('Origin',(35.7,-21.45,7.7));
#2150=CARTESIAN_POINT('',(35.7,-21.45,7.7));
#2151=CARTESIAN_POINT('',(21.7,-19.45,7.7));
#2152=CARTESIAN_POINT('Origin',(28.7,-19.45,7.95));
#2153=CARTESIAN_POINT('Origin',(35.7,-21.45,1.));
#2154=CARTESIAN_POINT('',(35.7,-21.45,1.));
#2155=CARTESIAN_POINT('',(21.7,-21.45,1.));
#2156=CARTESIAN_POINT('Origin',(57.0000008493662,23.45,8.2));
#2157=CARTESIAN_POINT('',(0.,23.45,8.2));
#2158=CARTESIAN_POINT('',(57.0000008493662,23.45,8.2));
#2159=CARTESIAN_POINT('',(28.5000004246831,23.45,8.2));
#2160=CARTESIAN_POINT('',(0.,21.45,8.2));
#2161=CARTESIAN_POINT('',(0.,11.725,8.2));
#2162=CARTESIAN_POINT('',(57.0000008493662,21.45,8.2));
#2163=CARTESIAN_POINT('',(57.0000008493662,21.45,8.2));
#2164=CARTESIAN_POINT('',(57.0000008493662,23.45,8.2));
#2165=CARTESIAN_POINT('Origin',(57.0000008493662,23.45,7.7));
#2166=CARTESIAN_POINT('',(57.0000008493662,23.45,7.7));
#2167=CARTESIAN_POINT('',(57.0000008493662,23.45,4.35));
#2168=CARTESIAN_POINT('',(57.0000008493662,21.45,7.7));
#2169=CARTESIAN_POINT('',(57.0000008493662,21.45,7.7));
#2170=CARTESIAN_POINT('',(57.0000008493662,23.45,7.7));
#2171=CARTESIAN_POINT('Origin',(0.,23.45,7.7));
#2172=CARTESIAN_POINT('',(0.,23.45,7.7));
#2173=CARTESIAN_POINT('',(0.,23.45,7.7));
#2174=CARTESIAN_POINT('',(0.,21.45,7.7));
#2175=CARTESIAN_POINT('',(0.,21.45,7.7));
#2176=CARTESIAN_POINT('',(-6.16297582203915E-32,11.725,7.7));
#2177=CARTESIAN_POINT('Origin',(28.5000004246831,21.45,7.95));
#2178=CARTESIAN_POINT('',(0.,21.45,4.475));
#2179=CARTESIAN_POINT('Origin',(0.,23.45,1.));
#2180=CARTESIAN_POINT('',(-1.23259516440783E-31,23.45,1.));
#2181=CARTESIAN_POINT('',(57.4,23.45,1.));
#2182=CARTESIAN_POINT('',(-1.23259516440783E-31,23.45,1.));
#2183=CARTESIAN_POINT('Origin',(0.,0.,1.));
#2184=CARTESIAN_POINT('',(0.,0.,1.));
#2185=CARTESIAN_POINT('Origin',(57.4,23.45,1.));
#2186=CARTESIAN_POINT('',(57.4,0.,1.));
#2187=CARTESIAN_POINT('Origin',(21.7,-21.45,1.));
#2188=CARTESIAN_POINT('',(21.7,-21.45,1.));
#2189=CARTESIAN_POINT('Origin',(35.7,-21.45,1.));
#2190=CARTESIAN_POINT('',(35.7,-21.45,1.));
#2191=CARTESIAN_POINT('Origin',(57.4,0.,1.));
#2192=CARTESIAN_POINT('Origin',(21.7,-31.95,0.));
#2193=UNCERTAINTY_MEASURE_WITH_UNIT(LENGTH_MEASURE(0.01),#2197,
'DISTANCE_ACCURACY_VALUE',
'Maximum model space distance between geometric entities at asserted c
onnectivities');
#2194=UNCERTAINTY_MEASURE_WITH_UNIT(LENGTH_MEASURE(0.01),#2197,
'DISTANCE_ACCURACY_VALUE',
'Maximum model space distance between geometric entities at asserted c
onnectivities');
#2195=(
GEOMETRIC_REPRESENTATION_CONTEXT(3)
GLOBAL_UNCERTAINTY_ASSIGNED_CONTEXT((#2193))
GLOBAL_UNIT_ASSIGNED_CONTEXT((#2197,#2199,#2200))
REPRESENTATION_CONTEXT('','3D')
);
#2196=(
GEOMETRIC_REPRESENTATION_CONTEXT(3)
GLOBAL_UNCERTAINTY_ASSIGNED_CONTEXT((#2194))
GLOBAL_UNIT_ASSIGNED_CONTEXT((#2197,#2199,#2200))
REPRESENTATION_CONTEXT('','3D')
);
#2197=(
LENGTH_UNIT()
NAMED_UNIT(*)
SI_UNIT(.MILLI.,.METRE.)
);
#2198=(
LENGTH_UNIT()
NAMED_UNIT(*)
SI_UNIT($,.METRE.)
);
#2199=(
NAMED_UNIT(*)
PLANE_ANGLE_UNIT()
SI_UNIT($,.RADIAN.)
);
#2200=(
NAMED_UNIT(*)
SI_UNIT($,.STERADIAN.)
SOLID_ANGLE_UNIT()
);
#2201=SHAPE_DEFINITION_REPRESENTATION(#2202,#2203);
#2202=PRODUCT_DEFINITION_SHAPE('',$,#2205);
#2203=SHAPE_REPRESENTATION('',(#1275),#2195);
#2204=PRODUCT_DEFINITION_CONTEXT('part definition',#2209,'design');
#2205=PRODUCT_DEFINITION('2026-08-10-16-30-58-784','Base',#2206,#2204);
#2206=PRODUCT_DEFINITION_FORMATION('',$,#2211);
#2207=PRODUCT_RELATED_PRODUCT_CATEGORY('Base','Base',(#2211));
#2208=APPLICATION_PROTOCOL_DEFINITION('international standard',
'automotive_design',2009,#2209);
#2209=APPLICATION_CONTEXT(
'Core Data for Automotive Mechanical Design Process');
#2210=PRODUCT_CONTEXT('part definition',#2209,'mechanical');
#2211=PRODUCT('2026-08-10-16-30-58-784','Base',$,(#2210));
#2212=PRESENTATION_STYLE_ASSIGNMENT((#2213));
#2213=SURFACE_STYLE_USAGE(.BOTH.,#2214);
#2214=SURFACE_SIDE_STYLE('',(#2215));
#2215=SURFACE_STYLE_FILL_AREA(#2216);
#2216=FILL_AREA_STYLE('Steel - Satin',(#2217));
#2217=FILL_AREA_STYLE_COLOUR('Steel - Satin',#2218);
#2218=COLOUR_RGB('Steel - Satin',0.627450980392157,0.627450980392157,0.627450980392157);
ENDSEC;
END-ISO-10303-21;
