ISO-10303-21;
HEADER;
/* Generated by software containing ST-Developer
 * from STEP Tools, Inc. (www.steptools.com) 
 */

FILE_DESCRIPTION(
/* description */ (''),
/* implementation_level */ '2;1');

FILE_NAME(
/* name */ 'Knob.step',
/* time_stamp */ '2026-08-10T23:55:58+03:00',
/* author */ (''),
/* organization */ (''),
/* preprocessor_version */ 'ST-DEVELOPER v20.1',
/* originating_system */ 'Autodesk Translation Framework v15.8.0.0',
/* authorisation */ '');

FILE_SCHEMA (('AUTOMOTIVE_DESIGN { 1 0 10303 214 3 1 1 }'));
ENDSEC;

DATA;
#10=MECHANICAL_DESIGN_GEOMETRIC_PRESENTATION_REPRESENTATION('',(#13),#367);
#11=SHAPE_REPRESENTATION_RELATIONSHIP('SRR','None',#374,#12);
#12=ADVANCED_BREP_SHAPE_REPRESENTATION('',(#14),#366);
#13=STYLED_ITEM('',(#383),#14);
#14=MANIFOLD_SOLID_BREP('Body1',#195);
#15=FACE_BOUND('',#61,.T.);
#16=FACE_BOUND('',#70,.T.);
#17=PLANE('',#222);
#18=PLANE('',#229);
#19=PLANE('',#230);
#20=PLANE('',#232);
#21=PLANE('',#237);
#22=PLANE('',#238);
#23=LINE('',#321,#31);
#24=LINE('',#331,#32);
#25=LINE('',#337,#33);
#26=LINE('',#347,#34);
#27=LINE('',#351,#35);
#28=LINE('',#353,#36);
#29=LINE('',#354,#37);
#30=LINE('',#359,#38);
#31=VECTOR('',#255,9.);
#32=VECTOR('',#268,10.);
#33=VECTOR('',#275,6.);
#34=VECTOR('',#288,10.);
#35=VECTOR('',#293,10.);
#36=VECTOR('',#294,10.);
#37=VECTOR('',#295,10.);
#38=VECTOR('',#300,3.2);
#39=CYLINDRICAL_SURFACE('',#214,9.);
#40=CYLINDRICAL_SURFACE('',#220,10.);
#41=CYLINDRICAL_SURFACE('',#224,6.);
#42=CYLINDRICAL_SURFACE('',#233,3.2);
#43=FACE_OUTER_BOUND('',#56,.T.);
#44=FACE_OUTER_BOUND('',#57,.T.);
#45=FACE_OUTER_BOUND('',#58,.T.);
#46=FACE_OUTER_BOUND('',#59,.T.);
#47=FACE_OUTER_BOUND('',#60,.T.);
#48=FACE_OUTER_BOUND('',#62,.T.);
#49=FACE_OUTER_BOUND('',#63,.T.);
#50=FACE_OUTER_BOUND('',#64,.T.);
#51=FACE_OUTER_BOUND('',#65,.T.);
#52=FACE_OUTER_BOUND('',#66,.T.);
#53=FACE_OUTER_BOUND('',#67,.T.);
#54=FACE_OUTER_BOUND('',#68,.T.);
#55=FACE_OUTER_BOUND('',#69,.T.);
#56=EDGE_LOOP('',(#129,#130,#131,#132,#133));
#57=EDGE_LOOP('',(#134,#135,#136,#137));
#58=EDGE_LOOP('',(#138,#139,#140,#141,#142,#143));
#59=EDGE_LOOP('',(#144,#145,#146,#147,#148));
#60=EDGE_LOOP('',(#149));
#61=EDGE_LOOP('',(#150));
#62=EDGE_LOOP('',(#151,#152,#153,#154));
#63=EDGE_LOOP('',(#155,#156,#157,#158));
#64=EDGE_LOOP('',(#159));
#65=EDGE_LOOP('',(#160,#161));
#66=EDGE_LOOP('',(#162,#163,#164,#165));
#67=EDGE_LOOP('',(#166,#167,#168,#169,#170,#171,#172,#173));
#68=EDGE_LOOP('',(#174,#175,#176));
#69=EDGE_LOOP('',(#177));
#70=EDGE_LOOP('',(#178));
#71=CIRCLE('',#210,9.);
#72=CIRCLE('',#211,1.);
#73=CIRCLE('',#212,9.5);
#74=CIRCLE('',#213,9.5);
#75=CIRCLE('',#215,9.);
#76=CIRCLE('',#217,1.);
#77=CIRCLE('',#218,10.);
#78=CIRCLE('',#219,10.);
#79=CIRCLE('',#221,10.);
#80=CIRCLE('',#223,6.);
#81=CIRCLE('',#225,6.);
#82=CIRCLE('',#227,9.);
#83=CIRCLE('',#228,1.);
#84=CIRCLE('',#231,3.2);
#85=CIRCLE('',#234,3.2);
#86=CIRCLE('',#235,3.2);
#87=CIRCLE('',#236,3.2);
#88=VERTEX_POINT('',#311);
#89=VERTEX_POINT('',#313);
#90=VERTEX_POINT('',#315);
#91=VERTEX_POINT('',#319);
#92=VERTEX_POINT('',#323);
#93=VERTEX_POINT('',#325);
#94=VERTEX_POINT('',#329);
#95=VERTEX_POINT('',#333);
#96=VERTEX_POINT('',#336);
#97=VERTEX_POINT('',#340);
#98=VERTEX_POINT('',#345);
#99=VERTEX_POINT('',#346);
#100=VERTEX_POINT('',#350);
#101=VERTEX_POINT('',#352);
#102=VERTEX_POINT('',#356);
#103=VERTEX_POINT('',#358);
#104=EDGE_CURVE('',#88,#88,#71,.T.);
#105=EDGE_CURVE('',#88,#89,#72,.T.);
#106=EDGE_CURVE('',#89,#90,#73,.T.);
#107=EDGE_CURVE('',#90,#89,#74,.T.);
#108=EDGE_CURVE('',#91,#91,#75,.T.);
#109=EDGE_CURVE('',#91,#88,#23,.T.);
#110=EDGE_CURVE('',#90,#92,#76,.T.);
#111=EDGE_CURVE('',#92,#93,#77,.T.);
#112=EDGE_CURVE('',#93,#92,#78,.T.);
#113=EDGE_CURVE('',#94,#94,#79,.T.);
#114=EDGE_CURVE('',#94,#93,#24,.T.);
#115=EDGE_CURVE('',#95,#95,#80,.T.);
#116=EDGE_CURVE('',#95,#96,#25,.T.);
#117=EDGE_CURVE('',#96,#96,#81,.T.);
#118=EDGE_CURVE('',#97,#97,#82,.T.);
#119=EDGE_CURVE('',#97,#94,#83,.T.);
#120=EDGE_CURVE('',#98,#99,#26,.T.);
#121=EDGE_CURVE('',#99,#98,#84,.T.);
#122=EDGE_CURVE('',#99,#100,#27,.T.);
#123=EDGE_CURVE('',#100,#101,#28,.T.);
#124=EDGE_CURVE('',#98,#101,#29,.T.);
#125=EDGE_CURVE('',#102,#102,#85,.T.);
#126=EDGE_CURVE('',#102,#103,#30,.T.);
#127=EDGE_CURVE('',#103,#100,#86,.T.);
#128=EDGE_CURVE('',#101,#103,#87,.T.);
#129=ORIENTED_EDGE('',*,*,#104,.T.);
#130=ORIENTED_EDGE('',*,*,#105,.T.);
#131=ORIENTED_EDGE('',*,*,#106,.T.);
#132=ORIENTED_EDGE('',*,*,#107,.T.);
#133=ORIENTED_EDGE('',*,*,#105,.F.);
#134=ORIENTED_EDGE('',*,*,#108,.F.);
#135=ORIENTED_EDGE('',*,*,#109,.T.);
#136=ORIENTED_EDGE('',*,*,#104,.F.);
#137=ORIENTED_EDGE('',*,*,#109,.F.);
#138=ORIENTED_EDGE('',*,*,#106,.F.);
#139=ORIENTED_EDGE('',*,*,#107,.F.);
#140=ORIENTED_EDGE('',*,*,#110,.T.);
#141=ORIENTED_EDGE('',*,*,#111,.T.);
#142=ORIENTED_EDGE('',*,*,#112,.T.);
#143=ORIENTED_EDGE('',*,*,#110,.F.);
#144=ORIENTED_EDGE('',*,*,#113,.F.);
#145=ORIENTED_EDGE('',*,*,#114,.T.);
#146=ORIENTED_EDGE('',*,*,#111,.F.);
#147=ORIENTED_EDGE('',*,*,#112,.F.);
#148=ORIENTED_EDGE('',*,*,#114,.F.);
#149=ORIENTED_EDGE('',*,*,#108,.T.);
#150=ORIENTED_EDGE('',*,*,#115,.T.);
#151=ORIENTED_EDGE('',*,*,#115,.F.);
#152=ORIENTED_EDGE('',*,*,#116,.T.);
#153=ORIENTED_EDGE('',*,*,#117,.F.);
#154=ORIENTED_EDGE('',*,*,#116,.F.);
#155=ORIENTED_EDGE('',*,*,#118,.T.);
#156=ORIENTED_EDGE('',*,*,#119,.T.);
#157=ORIENTED_EDGE('',*,*,#113,.T.);
#158=ORIENTED_EDGE('',*,*,#119,.F.);
#159=ORIENTED_EDGE('',*,*,#118,.F.);
#160=ORIENTED_EDGE('',*,*,#120,.F.);
#161=ORIENTED_EDGE('',*,*,#121,.F.);
#162=ORIENTED_EDGE('',*,*,#120,.T.);
#163=ORIENTED_EDGE('',*,*,#122,.T.);
#164=ORIENTED_EDGE('',*,*,#123,.T.);
#165=ORIENTED_EDGE('',*,*,#124,.F.);
#166=ORIENTED_EDGE('',*,*,#125,.F.);
#167=ORIENTED_EDGE('',*,*,#126,.T.);
#168=ORIENTED_EDGE('',*,*,#127,.T.);
#169=ORIENTED_EDGE('',*,*,#122,.F.);
#170=ORIENTED_EDGE('',*,*,#121,.T.);
#171=ORIENTED_EDGE('',*,*,#124,.T.);
#172=ORIENTED_EDGE('',*,*,#128,.T.);
#173=ORIENTED_EDGE('',*,*,#126,.F.);
#174=ORIENTED_EDGE('',*,*,#128,.F.);
#175=ORIENTED_EDGE('',*,*,#123,.F.);
#176=ORIENTED_EDGE('',*,*,#127,.F.);
#177=ORIENTED_EDGE('',*,*,#117,.T.);
#178=ORIENTED_EDGE('',*,*,#125,.T.);
#179=TOROIDAL_SURFACE('',#209,10.,1.);
#180=TOROIDAL_SURFACE('',#216,9.,1.);
#181=TOROIDAL_SURFACE('',#226,9.,1.);
#182=ADVANCED_FACE('',(#43),#179,.F.);
#183=ADVANCED_FACE('',(#44),#39,.T.);
#184=ADVANCED_FACE('',(#45),#180,.T.);
#185=ADVANCED_FACE('',(#46),#40,.T.);
#186=ADVANCED_FACE('',(#47,#15),#17,.T.);
#187=ADVANCED_FACE('',(#48),#41,.F.);
#188=ADVANCED_FACE('',(#49),#181,.T.);
#189=ADVANCED_FACE('',(#50),#18,.T.);
#190=ADVANCED_FACE('',(#51),#19,.F.);
#191=ADVANCED_FACE('',(#52),#20,.F.);
#192=ADVANCED_FACE('',(#53),#42,.F.);
#193=ADVANCED_FACE('',(#54),#21,.F.);
#194=ADVANCED_FACE('',(#55,#16),#22,.F.);
#195=CLOSED_SHELL('',(#182,#183,#184,#185,#186,#187,#188,#189,#190,#191,
#192,#193,#194));
#196=DERIVED_UNIT_ELEMENT(#198,1.);
#197=DERIVED_UNIT_ELEMENT(#369,-3.);
#198=(
MASS_UNIT()
NAMED_UNIT(*)
SI_UNIT(.KILO.,.GRAM.)
);
#199=DERIVED_UNIT((#196,#197));
#200=MEASURE_REPRESENTATION_ITEM('density measure',
POSITIVE_RATIO_MEASURE(7850.),#199);
#201=PROPERTY_DEFINITION_REPRESENTATION(#206,#203);
#202=PROPERTY_DEFINITION_REPRESENTATION(#207,#204);
#203=REPRESENTATION('material name',(#205),#366);
#204=REPRESENTATION('density',(#200),#366);
#205=DESCRIPTIVE_REPRESENTATION_ITEM('Steel','Steel');
#206=PROPERTY_DEFINITION('material property','material name',#376);
#207=PROPERTY_DEFINITION('material property','density of part',#376);
#208=AXIS2_PLACEMENT_3D('',#309,#239,#240);
#209=AXIS2_PLACEMENT_3D('',#310,#241,#242);
#210=AXIS2_PLACEMENT_3D('',#312,#243,#244);
#211=AXIS2_PLACEMENT_3D('',#314,#245,#246);
#212=AXIS2_PLACEMENT_3D('',#316,#247,#248);
#213=AXIS2_PLACEMENT_3D('',#317,#249,#250);
#214=AXIS2_PLACEMENT_3D('',#318,#251,#252);
#215=AXIS2_PLACEMENT_3D('',#320,#253,#254);
#216=AXIS2_PLACEMENT_3D('',#322,#256,#257);
#217=AXIS2_PLACEMENT_3D('',#324,#258,#259);
#218=AXIS2_PLACEMENT_3D('',#326,#260,#261);
#219=AXIS2_PLACEMENT_3D('',#327,#262,#263);
#220=AXIS2_PLACEMENT_3D('',#328,#264,#265);
#221=AXIS2_PLACEMENT_3D('',#330,#266,#267);
#222=AXIS2_PLACEMENT_3D('',#332,#269,#270);
#223=AXIS2_PLACEMENT_3D('',#334,#271,#272);
#224=AXIS2_PLACEMENT_3D('',#335,#273,#274);
#225=AXIS2_PLACEMENT_3D('',#338,#276,#277);
#226=AXIS2_PLACEMENT_3D('',#339,#278,#279);
#227=AXIS2_PLACEMENT_3D('',#341,#280,#281);
#228=AXIS2_PLACEMENT_3D('',#342,#282,#283);
#229=AXIS2_PLACEMENT_3D('',#343,#284,#285);
#230=AXIS2_PLACEMENT_3D('',#344,#286,#287);
#231=AXIS2_PLACEMENT_3D('',#348,#289,#290);
#232=AXIS2_PLACEMENT_3D('',#349,#291,#292);
#233=AXIS2_PLACEMENT_3D('',#355,#296,#297);
#234=AXIS2_PLACEMENT_3D('',#357,#298,#299);
#235=AXIS2_PLACEMENT_3D('',#360,#301,#302);
#236=AXIS2_PLACEMENT_3D('',#361,#303,#304);
#237=AXIS2_PLACEMENT_3D('',#362,#305,#306);
#238=AXIS2_PLACEMENT_3D('',#363,#307,#308);
#239=DIRECTION('axis',(0.,0.,1.));
#240=DIRECTION('refdir',(1.,0.,0.));
#241=DIRECTION('center_axis',(0.,0.,1.));
#242=DIRECTION('ref_axis',(1.,0.,0.));
#243=DIRECTION('center_axis',(0.,0.,1.));
#244=DIRECTION('ref_axis',(1.,0.,0.));
#245=DIRECTION('center_axis',(1.22464679914735E-16,-1.,0.));
#246=DIRECTION('ref_axis',(-1.,-1.22464679914735E-16,0.));
#247=DIRECTION('center_axis',(0.,0.,-1.));
#248=DIRECTION('ref_axis',(1.,0.,0.));
#249=DIRECTION('center_axis',(0.,0.,-1.));
#250=DIRECTION('ref_axis',(1.,0.,0.));
#251=DIRECTION('center_axis',(0.,0.,-1.));
#252=DIRECTION('ref_axis',(1.,0.,0.));
#253=DIRECTION('center_axis',(0.,0.,-1.));
#254=DIRECTION('ref_axis',(1.,0.,0.));
#255=DIRECTION('',(0.,0.,1.));
#256=DIRECTION('center_axis',(0.,0.,-1.));
#257=DIRECTION('ref_axis',(-1.,0.,0.));
#258=DIRECTION('center_axis',(-1.22464679914735E-16,-1.,0.));
#259=DIRECTION('ref_axis',(1.,-1.22464679914735E-16,0.));
#260=DIRECTION('center_axis',(0.,0.,-1.));
#261=DIRECTION('ref_axis',(1.,0.,0.));
#262=DIRECTION('center_axis',(0.,0.,-1.));
#263=DIRECTION('ref_axis',(1.,0.,0.));
#264=DIRECTION('center_axis',(0.,0.,1.));
#265=DIRECTION('ref_axis',(1.,0.,0.));
#266=DIRECTION('center_axis',(0.,0.,1.));
#267=DIRECTION('ref_axis',(1.,0.,0.));
#268=DIRECTION('',(0.,0.,-1.));
#269=DIRECTION('center_axis',(0.,0.,-1.));
#270=DIRECTION('ref_axis',(1.,0.,0.));
#271=DIRECTION('center_axis',(0.,0.,1.));
#272=DIRECTION('ref_axis',(1.,0.,0.));
#273=DIRECTION('center_axis',(0.,0.,-1.));
#274=DIRECTION('ref_axis',(1.,0.,0.));
#275=DIRECTION('',(0.,0.,1.));
#276=DIRECTION('center_axis',(0.,0.,-1.));
#277=DIRECTION('ref_axis',(1.,0.,0.));
#278=DIRECTION('center_axis',(0.,0.,1.));
#279=DIRECTION('ref_axis',(1.,0.,0.));
#280=DIRECTION('center_axis',(0.,0.,-1.));
#281=DIRECTION('ref_axis',(1.,0.,0.));
#282=DIRECTION('center_axis',(1.22464679914735E-16,-1.,0.));
#283=DIRECTION('ref_axis',(-1.,-1.22464679914735E-16,0.));
#284=DIRECTION('center_axis',(0.,0.,1.));
#285=DIRECTION('ref_axis',(1.,0.,0.));
#286=DIRECTION('center_axis',(0.,0.,1.));
#287=DIRECTION('ref_axis',(1.,0.,0.));
#288=DIRECTION('',(-2.04755965949965E-16,-1.,0.));
#289=DIRECTION('center_axis',(0.,0.,1.));
#290=DIRECTION('ref_axis',(1.,0.,0.));
#291=DIRECTION('center_axis',(1.,-2.04755965949965E-16,0.));
#292=DIRECTION('ref_axis',(2.04755965949965E-16,1.,0.));
#293=DIRECTION('',(0.,0.,1.));
#294=DIRECTION('',(2.04755965949965E-16,1.,0.));
#295=DIRECTION('',(0.,0.,1.));
#296=DIRECTION('center_axis',(0.,0.,1.));
#297=DIRECTION('ref_axis',(1.,0.,0.));
#298=DIRECTION('center_axis',(0.,0.,1.));
#299=DIRECTION('ref_axis',(1.,0.,0.));
#300=DIRECTION('',(0.,0.,1.));
#301=DIRECTION('center_axis',(0.,0.,1.));
#302=DIRECTION('ref_axis',(1.,0.,0.));
#303=DIRECTION('center_axis',(0.,0.,1.));
#304=DIRECTION('ref_axis',(1.,0.,0.));
#305=DIRECTION('center_axis',(0.,0.,1.));
#306=DIRECTION('ref_axis',(1.,0.,0.));
#307=DIRECTION('center_axis',(0.,0.,1.));
#308=DIRECTION('ref_axis',(1.,0.,0.));
#309=CARTESIAN_POINT('',(0.,0.,0.));
#310=CARTESIAN_POINT('Origin',(0.,0.,-2.73205080756888));
#311=CARTESIAN_POINT('',(-9.,-1.10218211923262E-15,-2.73205080756888));
#312=CARTESIAN_POINT('Origin',(0.,0.,-2.73205080756888));
#313=CARTESIAN_POINT('',(-9.5,1.16341445918999E-15,-1.86602540378444));
#314=CARTESIAN_POINT('Origin',(-10.,-1.22464679914735E-15,-2.73205080756888));
#315=CARTESIAN_POINT('',(9.5,-1.16341445918999E-15,-1.86602540378444));
#316=CARTESIAN_POINT('Origin',(0.,0.,-1.86602540378444));
#317=CARTESIAN_POINT('Origin',(0.,0.,-1.86602540378444));
#318=CARTESIAN_POINT('Origin',(0.,0.,-2.));
#319=CARTESIAN_POINT('',(-9.,1.10218211923262E-15,-5.));
#320=CARTESIAN_POINT('Origin',(0.,0.,-5.));
#321=CARTESIAN_POINT('',(-9.,1.10218211923262E-15,-2.));
#322=CARTESIAN_POINT('Origin',(0.,0.,-1.));
#323=CARTESIAN_POINT('',(10.,-1.22464679914735E-15,-1.));
#324=CARTESIAN_POINT('Origin',(9.,-1.10218211923262E-15,-1.));
#325=CARTESIAN_POINT('',(-10.,1.22464679914735E-15,-1.));
#326=CARTESIAN_POINT('Origin',(0.,0.,-1.));
#327=CARTESIAN_POINT('Origin',(0.,0.,-1.));
#328=CARTESIAN_POINT('Origin',(0.,0.,0.));
#329=CARTESIAN_POINT('',(-10.,-1.22464679914735E-15,9.));
#330=CARTESIAN_POINT('Origin',(0.,0.,9.));
#331=CARTESIAN_POINT('',(-10.,-1.22464679914735E-15,0.));
#332=CARTESIAN_POINT('Origin',(0.,0.,-5.));
#333=CARTESIAN_POINT('',(-6.,7.34788079488412E-16,-5.));
#334=CARTESIAN_POINT('Origin',(0.,0.,-5.));
#335=CARTESIAN_POINT('Origin',(0.,0.,0.));
#336=CARTESIAN_POINT('',(-6.,7.34788079488412E-16,0.));
#337=CARTESIAN_POINT('',(-6.,7.34788079488412E-16,0.));
#338=CARTESIAN_POINT('Origin',(0.,0.,0.));
#339=CARTESIAN_POINT('Origin',(0.,0.,9.));
#340=CARTESIAN_POINT('',(-9.,1.10218211923262E-15,10.));
#341=CARTESIAN_POINT('Origin',(0.,0.,10.));
#342=CARTESIAN_POINT('Origin',(-9.,-1.10218211923262E-15,9.));
#343=CARTESIAN_POINT('Origin',(0.,0.,10.));
#344=CARTESIAN_POINT('Origin',(2.45,0.,1.5));
#345=CARTESIAN_POINT('',(1.7,2.71108834234519,1.5));
#346=CARTESIAN_POINT('',(1.7,-2.71108834234519,1.5));
#347=CARTESIAN_POINT('',(1.7,-1.3555441711726,1.5));
#348=CARTESIAN_POINT('Origin',(0.,0.,1.5));
#349=CARTESIAN_POINT('Origin',(1.7,-2.71108834234519,0.));
#350=CARTESIAN_POINT('',(1.7,-2.71108834234519,7.3));
#351=CARTESIAN_POINT('',(1.7,-2.71108834234519,0.));
#352=CARTESIAN_POINT('',(1.7,2.71108834234519,7.3));
#353=CARTESIAN_POINT('',(1.7,0.,7.3));
#354=CARTESIAN_POINT('',(1.7,2.71108834234519,0.));
#355=CARTESIAN_POINT('Origin',(0.,0.,0.));
#356=CARTESIAN_POINT('',(-3.2,-3.91886975727153E-16,0.));
#357=CARTESIAN_POINT('Origin',(0.,0.,0.));
#358=CARTESIAN_POINT('',(-3.2,-3.91886975727153E-16,7.3));
#359=CARTESIAN_POINT('',(-3.2,-3.91886975727153E-16,0.));
#360=CARTESIAN_POINT('Origin',(0.,0.,7.3));
#361=CARTESIAN_POINT('Origin',(0.,0.,7.3));
#362=CARTESIAN_POINT('Origin',(-0.75,0.,7.3));
#363=CARTESIAN_POINT('Origin',(0.,0.,0.));
#364=UNCERTAINTY_MEASURE_WITH_UNIT(LENGTH_MEASURE(0.01),#368,
'DISTANCE_ACCURACY_VALUE',
'Maximum model space distance between geometric entities at asserted c
onnectivities');
#365=UNCERTAINTY_MEASURE_WITH_UNIT(LENGTH_MEASURE(0.01),#368,
'DISTANCE_ACCURACY_VALUE',
'Maximum model space distance between geometric entities at asserted c
onnectivities');
#366=(
GEOMETRIC_REPRESENTATION_CONTEXT(3)
GLOBAL_UNCERTAINTY_ASSIGNED_CONTEXT((#364))
GLOBAL_UNIT_ASSIGNED_CONTEXT((#368,#370,#371))
REPRESENTATION_CONTEXT('','3D')
);
#367=(
GEOMETRIC_REPRESENTATION_CONTEXT(3)
GLOBAL_UNCERTAINTY_ASSIGNED_CONTEXT((#365))
GLOBAL_UNIT_ASSIGNED_CONTEXT((#368,#370,#371))
REPRESENTATION_CONTEXT('','3D')
);
#368=(
LENGTH_UNIT()
NAMED_UNIT(*)
SI_UNIT(.MILLI.,.METRE.)
);
#369=(
LENGTH_UNIT()
NAMED_UNIT(*)
SI_UNIT($,.METRE.)
);
#370=(
NAMED_UNIT(*)
PLANE_ANGLE_UNIT()
SI_UNIT($,.RADIAN.)
);
#371=(
NAMED_UNIT(*)
SI_UNIT($,.STERADIAN.)
SOLID_ANGLE_UNIT()
);
#372=SHAPE_DEFINITION_REPRESENTATION(#373,#374);
#373=PRODUCT_DEFINITION_SHAPE('',$,#376);
#374=SHAPE_REPRESENTATION('',(#208),#366);
#375=PRODUCT_DEFINITION_CONTEXT('part definition',#380,'design');
#376=PRODUCT_DEFINITION('2026-08-10-21-27-38-037','Knob',#377,#375);
#377=PRODUCT_DEFINITION_FORMATION('',$,#382);
#378=PRODUCT_RELATED_PRODUCT_CATEGORY('Knob','Knob',(#382));
#379=APPLICATION_PROTOCOL_DEFINITION('international standard',
'automotive_design',2009,#380);
#380=APPLICATION_CONTEXT(
'Core Data for Automotive Mechanical Design Process');
#381=PRODUCT_CONTEXT('part definition',#380,'mechanical');
#382=PRODUCT('2026-08-10-21-27-38-037','Knob',$,(#381));
#383=PRESENTATION_STYLE_ASSIGNMENT((#384));
#384=SURFACE_STYLE_USAGE(.BOTH.,#385);
#385=SURFACE_SIDE_STYLE('',(#386));
#386=SURFACE_STYLE_FILL_AREA(#387);
#387=FILL_AREA_STYLE('Steel - Satin',(#388));
#388=FILL_AREA_STYLE_COLOUR('Steel - Satin',#389);
#389=COLOUR_RGB('Steel - Satin',0.627450980392157,0.627450980392157,0.627450980392157);
ENDSEC;
END-ISO-10303-21;
