ISO-10303-21;
HEADER;
/* Generated by software containing ST-Developer
 * from STEP Tools, Inc. (www.steptools.com) 
 */

FILE_DESCRIPTION(
/* description */ (''),
/* implementation_level */ '2;1');

FILE_NAME(
/* name */ 'Top.step',
/* time_stamp */ '2026-08-10T23:56:23+03:00',
/* author */ (''),
/* organization */ (''),
/* preprocessor_version */ 'ST-DEVELOPER v20.1',
/* originating_system */ 'Autodesk Translation Framework v15.8.0.0',
/* authorisation */ '');

FILE_SCHEMA (('AUTOMOTIVE_DESIGN { 1 0 10303 214 3 1 1 }'));
ENDSEC;

DATA;
#10=MECHANICAL_DESIGN_GEOMETRIC_PRESENTATION_REPRESENTATION('',(#13),#926);
#11=SHAPE_REPRESENTATION_RELATIONSHIP('SRR','None',#933,#12);
#12=ADVANCED_BREP_SHAPE_REPRESENTATION('',(#14),#925);
#13=STYLED_ITEM('',(#942),#14);
#14=MANIFOLD_SOLID_BREP('Body4',#514);
#15=FACE_BOUND('',#83,.T.);
#16=FACE_BOUND('',#84,.T.);
#17=FACE_BOUND('',#91,.T.);
#18=FACE_BOUND('',#92,.T.);
#19=PLANE('',#588);
#20=PLANE('',#590);
#21=PLANE('',#591);
#22=PLANE('',#592);
#23=PLANE('',#593);
#24=PLANE('',#596);
#25=TOROIDAL_SURFACE('',#531,4.,1.);
#26=TOROIDAL_SURFACE('',#537,4.,1.);
#27=TOROIDAL_SURFACE('',#543,4.,1.);
#28=TOROIDAL_SURFACE('',#549,4.,1.);
#29=TOROIDAL_SURFACE('',#555,4.,1.);
#30=TOROIDAL_SURFACE('',#561,4.,1.);
#31=TOROIDAL_SURFACE('',#567,4.,1.);
#32=TOROIDAL_SURFACE('',#573,4.,1.);
#33=TOROIDAL_SURFACE('',#579,4.,1.);
#34=TOROIDAL_SURFACE('',#585,4.,1.);
#35=FACE_OUTER_BOUND('',#62,.T.);
#36=FACE_OUTER_BOUND('',#63,.T.);
#37=FACE_OUTER_BOUND('',#64,.T.);
#38=FACE_OUTER_BOUND('',#65,.T.);
#39=FACE_OUTER_BOUND('',#66,.T.);
#40=FACE_OUTER_BOUND('',#67,.T.);
#41=FACE_OUTER_BOUND('',#68,.T.);
#42=FACE_OUTER_BOUND('',#69,.T.);
#43=FACE_OUTER_BOUND('',#70,.T.);
#44=FACE_OUTER_BOUND('',#71,.T.);
#45=FACE_OUTER_BOUND('',#72,.T.);
#46=FACE_OUTER_BOUND('',#73,.T.);
#47=FACE_OUTER_BOUND('',#74,.T.);
#48=FACE_OUTER_BOUND('',#75,.T.);
#49=FACE_OUTER_BOUND('',#76,.T.);
#50=FACE_OUTER_BOUND('',#77,.T.);
#51=FACE_OUTER_BOUND('',#78,.T.);
#52=FACE_OUTER_BOUND('',#79,.T.);
#53=FACE_OUTER_BOUND('',#80,.T.);
#54=FACE_OUTER_BOUND('',#81,.T.);
#55=FACE_OUTER_BOUND('',#82,.T.);
#56=FACE_OUTER_BOUND('',#85,.T.);
#57=FACE_OUTER_BOUND('',#86,.T.);
#58=FACE_OUTER_BOUND('',#87,.T.);
#59=FACE_OUTER_BOUND('',#88,.T.);
#60=FACE_OUTER_BOUND('',#89,.T.);
#61=FACE_OUTER_BOUND('',#90,.T.);
#62=EDGE_LOOP('',(#326,#327,#328,#329));
#63=EDGE_LOOP('',(#330,#331,#332,#333));
#64=EDGE_LOOP('',(#334,#335,#336,#337));
#65=EDGE_LOOP('',(#338,#339,#340,#341));
#66=EDGE_LOOP('',(#342,#343,#344,#345));
#67=EDGE_LOOP('',(#346,#347,#348,#349));
#68=EDGE_LOOP('',(#350,#351,#352,#353));
#69=EDGE_LOOP('',(#354,#355,#356,#357));
#70=EDGE_LOOP('',(#358,#359,#360,#361));
#71=EDGE_LOOP('',(#362,#363,#364,#365));
#72=EDGE_LOOP('',(#366,#367,#368,#369));
#73=EDGE_LOOP('',(#370,#371,#372,#373));
#74=EDGE_LOOP('',(#374,#375,#376,#377));
#75=EDGE_LOOP('',(#378,#379,#380,#381));
#76=EDGE_LOOP('',(#382,#383,#384,#385));
#77=EDGE_LOOP('',(#386,#387,#388,#389));
#78=EDGE_LOOP('',(#390,#391,#392,#393));
#79=EDGE_LOOP('',(#394,#395,#396,#397));
#80=EDGE_LOOP('',(#398,#399,#400,#401));
#81=EDGE_LOOP('',(#402,#403,#404,#405));
#82=EDGE_LOOP('',(#406,#407,#408,#409,#410,#411,#412,#413,#414,#415,#416,
#417,#418,#419,#420,#421,#422,#423,#424,#425));
#83=EDGE_LOOP('',(#426));
#84=EDGE_LOOP('',(#427,#428,#429,#430));
#85=EDGE_LOOP('',(#431,#432,#433,#434));
#86=EDGE_LOOP('',(#435,#436,#437,#438));
#87=EDGE_LOOP('',(#439,#440,#441,#442));
#88=EDGE_LOOP('',(#443,#444,#445,#446));
#89=EDGE_LOOP('',(#447,#448,#449,#450));
#90=EDGE_LOOP('',(#451,#452,#453,#454,#455,#456,#457,#458,#459,#460,#461,
#462,#463,#464,#465,#466,#467,#468,#469,#470));
#91=EDGE_LOOP('',(#471,#472,#473,#474));
#92=EDGE_LOOP('',(#475));
#93=LINE('',#776,#126);
#94=LINE('',#779,#127);
#95=LINE('',#790,#128);
#96=LINE('',#791,#129);
#97=LINE('',#802,#130);
#98=LINE('',#803,#131);
#99=LINE('',#812,#132);
#100=LINE('',#815,#133);
#101=LINE('',#826,#134);
#102=LINE('',#827,#135);
#103=LINE('',#836,#136);
#104=LINE('',#839,#137);
#105=LINE('',#850,#138);
#106=LINE('',#851,#139);
#107=LINE('',#860,#140);
#108=LINE('',#863,#141);
#109=LINE('',#874,#142);
#110=LINE('',#875,#143);
#111=LINE('',#884,#144);
#112=LINE('',#887,#145);
#113=LINE('',#896,#146);
#114=LINE('',#898,#147);
#115=LINE('',#900,#148);
#116=LINE('',#901,#149);
#117=LINE('',#904,#150);
#118=LINE('',#906,#151);
#119=LINE('',#907,#152);
#120=LINE('',#910,#153);
#121=LINE('',#911,#154);
#122=LINE('',#914,#155);
#123=LINE('',#915,#156);
#124=LINE('',#917,#157);
#125=LINE('',#920,#158);
#126=VECTOR('',#603,10.);
#127=VECTOR('',#606,10.);
#128=VECTOR('',#619,10.);
#129=VECTOR('',#620,10.);
#130=VECTOR('',#633,10.);
#131=VECTOR('',#634,10.);
#132=VECTOR('',#645,10.);
#133=VECTOR('',#648,10.);
#134=VECTOR('',#661,10.);
#135=VECTOR('',#662,10.);
#136=VECTOR('',#673,10.);
#137=VECTOR('',#676,10.);
#138=VECTOR('',#689,10.);
#139=VECTOR('',#690,10.);
#140=VECTOR('',#701,10.);
#141=VECTOR('',#704,10.);
#142=VECTOR('',#717,10.);
#143=VECTOR('',#718,10.);
#144=VECTOR('',#729,10.);
#145=VECTOR('',#732,10.);
#146=VECTOR('',#743,10.);
#147=VECTOR('',#744,10.);
#148=VECTOR('',#745,10.);
#149=VECTOR('',#746,10.);
#150=VECTOR('',#749,10.);
#151=VECTOR('',#750,10.);
#152=VECTOR('',#751,10.);
#153=VECTOR('',#754,10.);
#154=VECTOR('',#755,10.);
#155=VECTOR('',#758,10.);
#156=VECTOR('',#759,10.);
#157=VECTOR('',#762,10.);
#158=VECTOR('',#765,10.);
#159=CIRCLE('',#529,1.);
#160=CIRCLE('',#530,1.);
#161=CIRCLE('',#532,4.);
#162=CIRCLE('',#533,1.);
#163=CIRCLE('',#534,5.);
#164=CIRCLE('',#536,1.);
#165=CIRCLE('',#538,4.);
#166=CIRCLE('',#539,1.);
#167=CIRCLE('',#540,5.);
#168=CIRCLE('',#542,1.);
#169=CIRCLE('',#544,4.);
#170=CIRCLE('',#545,1.);
#171=CIRCLE('',#546,5.);
#172=CIRCLE('',#548,1.);
#173=CIRCLE('',#550,4.);
#174=CIRCLE('',#551,1.);
#175=CIRCLE('',#552,5.);
#176=CIRCLE('',#554,1.);
#177=CIRCLE('',#556,4.);
#178=CIRCLE('',#557,1.);
#179=CIRCLE('',#558,5.);
#180=CIRCLE('',#560,1.);
#181=CIRCLE('',#562,4.);
#182=CIRCLE('',#563,1.);
#183=CIRCLE('',#564,5.);
#184=CIRCLE('',#566,1.);
#185=CIRCLE('',#568,4.);
#186=CIRCLE('',#569,1.);
#187=CIRCLE('',#570,5.);
#188=CIRCLE('',#572,1.);
#189=CIRCLE('',#574,4.);
#190=CIRCLE('',#575,1.);
#191=CIRCLE('',#576,5.);
#192=CIRCLE('',#578,1.);
#193=CIRCLE('',#580,4.);
#194=CIRCLE('',#581,1.);
#195=CIRCLE('',#582,5.);
#196=CIRCLE('',#584,1.);
#197=CIRCLE('',#586,4.);
#198=CIRCLE('',#587,5.);
#199=CIRCLE('',#589,10.);
#200=CIRCLE('',#595,10.);
#201=VERTEX_POINT('',#772);
#202=VERTEX_POINT('',#773);
#203=VERTEX_POINT('',#775);
#204=VERTEX_POINT('',#777);
#205=VERTEX_POINT('',#781);
#206=VERTEX_POINT('',#783);
#207=VERTEX_POINT('',#787);
#208=VERTEX_POINT('',#788);
#209=VERTEX_POINT('',#793);
#210=VERTEX_POINT('',#795);
#211=VERTEX_POINT('',#799);
#212=VERTEX_POINT('',#800);
#213=VERTEX_POINT('',#805);
#214=VERTEX_POINT('',#807);
#215=VERTEX_POINT('',#811);
#216=VERTEX_POINT('',#813);
#217=VERTEX_POINT('',#817);
#218=VERTEX_POINT('',#819);
#219=VERTEX_POINT('',#823);
#220=VERTEX_POINT('',#824);
#221=VERTEX_POINT('',#829);
#222=VERTEX_POINT('',#831);
#223=VERTEX_POINT('',#835);
#224=VERTEX_POINT('',#837);
#225=VERTEX_POINT('',#841);
#226=VERTEX_POINT('',#843);
#227=VERTEX_POINT('',#847);
#228=VERTEX_POINT('',#848);
#229=VERTEX_POINT('',#853);
#230=VERTEX_POINT('',#855);
#231=VERTEX_POINT('',#859);
#232=VERTEX_POINT('',#861);
#233=VERTEX_POINT('',#865);
#234=VERTEX_POINT('',#867);
#235=VERTEX_POINT('',#871);
#236=VERTEX_POINT('',#872);
#237=VERTEX_POINT('',#877);
#238=VERTEX_POINT('',#879);
#239=VERTEX_POINT('',#883);
#240=VERTEX_POINT('',#885);
#241=VERTEX_POINT('',#892);
#242=VERTEX_POINT('',#894);
#243=VERTEX_POINT('',#895);
#244=VERTEX_POINT('',#897);
#245=VERTEX_POINT('',#899);
#246=VERTEX_POINT('',#903);
#247=VERTEX_POINT('',#905);
#248=VERTEX_POINT('',#909);
#249=VERTEX_POINT('',#913);
#250=VERTEX_POINT('',#919);
#251=EDGE_CURVE('',#201,#202,#159,.T.);
#252=EDGE_CURVE('',#202,#203,#93,.T.);
#253=EDGE_CURVE('',#203,#204,#160,.T.);
#254=EDGE_CURVE('',#204,#201,#94,.T.);
#255=EDGE_CURVE('',#203,#205,#161,.T.);
#256=EDGE_CURVE('',#205,#206,#162,.T.);
#257=EDGE_CURVE('',#206,#204,#163,.T.);
#258=EDGE_CURVE('',#207,#208,#164,.T.);
#259=EDGE_CURVE('',#208,#206,#95,.T.);
#260=EDGE_CURVE('',#205,#207,#96,.T.);
#261=EDGE_CURVE('',#207,#209,#165,.T.);
#262=EDGE_CURVE('',#209,#210,#166,.T.);
#263=EDGE_CURVE('',#210,#208,#167,.T.);
#264=EDGE_CURVE('',#211,#212,#168,.T.);
#265=EDGE_CURVE('',#210,#212,#97,.T.);
#266=EDGE_CURVE('',#209,#211,#98,.T.);
#267=EDGE_CURVE('',#211,#213,#169,.T.);
#268=EDGE_CURVE('',#213,#214,#170,.T.);
#269=EDGE_CURVE('',#214,#212,#171,.T.);
#270=EDGE_CURVE('',#213,#215,#99,.T.);
#271=EDGE_CURVE('',#215,#216,#172,.T.);
#272=EDGE_CURVE('',#216,#214,#100,.T.);
#273=EDGE_CURVE('',#215,#217,#173,.T.);
#274=EDGE_CURVE('',#217,#218,#174,.T.);
#275=EDGE_CURVE('',#218,#216,#175,.T.);
#276=EDGE_CURVE('',#219,#220,#176,.T.);
#277=EDGE_CURVE('',#218,#220,#101,.T.);
#278=EDGE_CURVE('',#217,#219,#102,.T.);
#279=EDGE_CURVE('',#219,#221,#177,.T.);
#280=EDGE_CURVE('',#221,#222,#178,.T.);
#281=EDGE_CURVE('',#222,#220,#179,.T.);
#282=EDGE_CURVE('',#221,#223,#103,.T.);
#283=EDGE_CURVE('',#223,#224,#180,.T.);
#284=EDGE_CURVE('',#224,#222,#104,.T.);
#285=EDGE_CURVE('',#223,#225,#181,.T.);
#286=EDGE_CURVE('',#225,#226,#182,.T.);
#287=EDGE_CURVE('',#226,#224,#183,.T.);
#288=EDGE_CURVE('',#227,#228,#184,.T.);
#289=EDGE_CURVE('',#226,#228,#105,.T.);
#290=EDGE_CURVE('',#225,#227,#106,.T.);
#291=EDGE_CURVE('',#227,#229,#185,.T.);
#292=EDGE_CURVE('',#229,#230,#186,.T.);
#293=EDGE_CURVE('',#230,#228,#187,.T.);
#294=EDGE_CURVE('',#229,#231,#107,.T.);
#295=EDGE_CURVE('',#231,#232,#188,.T.);
#296=EDGE_CURVE('',#232,#230,#108,.T.);
#297=EDGE_CURVE('',#231,#233,#189,.T.);
#298=EDGE_CURVE('',#233,#234,#190,.T.);
#299=EDGE_CURVE('',#234,#232,#191,.T.);
#300=EDGE_CURVE('',#235,#236,#192,.T.);
#301=EDGE_CURVE('',#234,#236,#109,.T.);
#302=EDGE_CURVE('',#233,#235,#110,.T.);
#303=EDGE_CURVE('',#235,#237,#193,.T.);
#304=EDGE_CURVE('',#237,#238,#194,.T.);
#305=EDGE_CURVE('',#238,#236,#195,.T.);
#306=EDGE_CURVE('',#237,#239,#111,.T.);
#307=EDGE_CURVE('',#239,#240,#196,.T.);
#308=EDGE_CURVE('',#238,#240,#112,.T.);
#309=EDGE_CURVE('',#239,#202,#197,.T.);
#310=EDGE_CURVE('',#201,#240,#198,.T.);
#311=EDGE_CURVE('',#241,#241,#199,.T.);
#312=EDGE_CURVE('',#242,#243,#113,.T.);
#313=EDGE_CURVE('',#243,#244,#114,.T.);
#314=EDGE_CURVE('',#244,#245,#115,.T.);
#315=EDGE_CURVE('',#245,#242,#116,.T.);
#316=EDGE_CURVE('',#242,#246,#117,.T.);
#317=EDGE_CURVE('',#247,#246,#118,.T.);
#318=EDGE_CURVE('',#243,#247,#119,.T.);
#319=EDGE_CURVE('',#245,#248,#120,.T.);
#320=EDGE_CURVE('',#246,#248,#121,.T.);
#321=EDGE_CURVE('',#244,#249,#122,.T.);
#322=EDGE_CURVE('',#248,#249,#123,.T.);
#323=EDGE_CURVE('',#249,#247,#124,.T.);
#324=EDGE_CURVE('',#241,#250,#125,.T.);
#325=EDGE_CURVE('',#250,#250,#200,.T.);
#326=ORIENTED_EDGE('',*,*,#251,.T.);
#327=ORIENTED_EDGE('',*,*,#252,.T.);
#328=ORIENTED_EDGE('',*,*,#253,.T.);
#329=ORIENTED_EDGE('',*,*,#254,.T.);
#330=ORIENTED_EDGE('',*,*,#253,.F.);
#331=ORIENTED_EDGE('',*,*,#255,.T.);
#332=ORIENTED_EDGE('',*,*,#256,.T.);
#333=ORIENTED_EDGE('',*,*,#257,.T.);
#334=ORIENTED_EDGE('',*,*,#258,.T.);
#335=ORIENTED_EDGE('',*,*,#259,.T.);
#336=ORIENTED_EDGE('',*,*,#256,.F.);
#337=ORIENTED_EDGE('',*,*,#260,.T.);
#338=ORIENTED_EDGE('',*,*,#258,.F.);
#339=ORIENTED_EDGE('',*,*,#261,.T.);
#340=ORIENTED_EDGE('',*,*,#262,.T.);
#341=ORIENTED_EDGE('',*,*,#263,.T.);
#342=ORIENTED_EDGE('',*,*,#264,.T.);
#343=ORIENTED_EDGE('',*,*,#265,.F.);
#344=ORIENTED_EDGE('',*,*,#262,.F.);
#345=ORIENTED_EDGE('',*,*,#266,.T.);
#346=ORIENTED_EDGE('',*,*,#264,.F.);
#347=ORIENTED_EDGE('',*,*,#267,.T.);
#348=ORIENTED_EDGE('',*,*,#268,.T.);
#349=ORIENTED_EDGE('',*,*,#269,.T.);
#350=ORIENTED_EDGE('',*,*,#268,.F.);
#351=ORIENTED_EDGE('',*,*,#270,.T.);
#352=ORIENTED_EDGE('',*,*,#271,.T.);
#353=ORIENTED_EDGE('',*,*,#272,.T.);
#354=ORIENTED_EDGE('',*,*,#271,.F.);
#355=ORIENTED_EDGE('',*,*,#273,.T.);
#356=ORIENTED_EDGE('',*,*,#274,.T.);
#357=ORIENTED_EDGE('',*,*,#275,.T.);
#358=ORIENTED_EDGE('',*,*,#276,.T.);
#359=ORIENTED_EDGE('',*,*,#277,.F.);
#360=ORIENTED_EDGE('',*,*,#274,.F.);
#361=ORIENTED_EDGE('',*,*,#278,.T.);
#362=ORIENTED_EDGE('',*,*,#276,.F.);
#363=ORIENTED_EDGE('',*,*,#279,.T.);
#364=ORIENTED_EDGE('',*,*,#280,.T.);
#365=ORIENTED_EDGE('',*,*,#281,.T.);
#366=ORIENTED_EDGE('',*,*,#280,.F.);
#367=ORIENTED_EDGE('',*,*,#282,.T.);
#368=ORIENTED_EDGE('',*,*,#283,.T.);
#369=ORIENTED_EDGE('',*,*,#284,.T.);
#370=ORIENTED_EDGE('',*,*,#283,.F.);
#371=ORIENTED_EDGE('',*,*,#285,.T.);
#372=ORIENTED_EDGE('',*,*,#286,.T.);
#373=ORIENTED_EDGE('',*,*,#287,.T.);
#374=ORIENTED_EDGE('',*,*,#288,.T.);
#375=ORIENTED_EDGE('',*,*,#289,.F.);
#376=ORIENTED_EDGE('',*,*,#286,.F.);
#377=ORIENTED_EDGE('',*,*,#290,.T.);
#378=ORIENTED_EDGE('',*,*,#288,.F.);
#379=ORIENTED_EDGE('',*,*,#291,.T.);
#380=ORIENTED_EDGE('',*,*,#292,.T.);
#381=ORIENTED_EDGE('',*,*,#293,.T.);
#382=ORIENTED_EDGE('',*,*,#292,.F.);
#383=ORIENTED_EDGE('',*,*,#294,.T.);
#384=ORIENTED_EDGE('',*,*,#295,.T.);
#385=ORIENTED_EDGE('',*,*,#296,.T.);
#386=ORIENTED_EDGE('',*,*,#295,.F.);
#387=ORIENTED_EDGE('',*,*,#297,.T.);
#388=ORIENTED_EDGE('',*,*,#298,.T.);
#389=ORIENTED_EDGE('',*,*,#299,.T.);
#390=ORIENTED_EDGE('',*,*,#300,.T.);
#391=ORIENTED_EDGE('',*,*,#301,.F.);
#392=ORIENTED_EDGE('',*,*,#298,.F.);
#393=ORIENTED_EDGE('',*,*,#302,.T.);
#394=ORIENTED_EDGE('',*,*,#300,.F.);
#395=ORIENTED_EDGE('',*,*,#303,.T.);
#396=ORIENTED_EDGE('',*,*,#304,.T.);
#397=ORIENTED_EDGE('',*,*,#305,.T.);
#398=ORIENTED_EDGE('',*,*,#304,.F.);
#399=ORIENTED_EDGE('',*,*,#306,.T.);
#400=ORIENTED_EDGE('',*,*,#307,.T.);
#401=ORIENTED_EDGE('',*,*,#308,.F.);
#402=ORIENTED_EDGE('',*,*,#307,.F.);
#403=ORIENTED_EDGE('',*,*,#309,.T.);
#404=ORIENTED_EDGE('',*,*,#251,.F.);
#405=ORIENTED_EDGE('',*,*,#310,.T.);
#406=ORIENTED_EDGE('',*,*,#252,.F.);
#407=ORIENTED_EDGE('',*,*,#309,.F.);
#408=ORIENTED_EDGE('',*,*,#306,.F.);
#409=ORIENTED_EDGE('',*,*,#303,.F.);
#410=ORIENTED_EDGE('',*,*,#302,.F.);
#411=ORIENTED_EDGE('',*,*,#297,.F.);
#412=ORIENTED_EDGE('',*,*,#294,.F.);
#413=ORIENTED_EDGE('',*,*,#291,.F.);
#414=ORIENTED_EDGE('',*,*,#290,.F.);
#415=ORIENTED_EDGE('',*,*,#285,.F.);
#416=ORIENTED_EDGE('',*,*,#282,.F.);
#417=ORIENTED_EDGE('',*,*,#279,.F.);
#418=ORIENTED_EDGE('',*,*,#278,.F.);
#419=ORIENTED_EDGE('',*,*,#273,.F.);
#420=ORIENTED_EDGE('',*,*,#270,.F.);
#421=ORIENTED_EDGE('',*,*,#267,.F.);
#422=ORIENTED_EDGE('',*,*,#266,.F.);
#423=ORIENTED_EDGE('',*,*,#261,.F.);
#424=ORIENTED_EDGE('',*,*,#260,.F.);
#425=ORIENTED_EDGE('',*,*,#255,.F.);
#426=ORIENTED_EDGE('',*,*,#311,.T.);
#427=ORIENTED_EDGE('',*,*,#312,.T.);
#428=ORIENTED_EDGE('',*,*,#313,.T.);
#429=ORIENTED_EDGE('',*,*,#314,.T.);
#430=ORIENTED_EDGE('',*,*,#315,.T.);
#431=ORIENTED_EDGE('',*,*,#312,.F.);
#432=ORIENTED_EDGE('',*,*,#316,.T.);
#433=ORIENTED_EDGE('',*,*,#317,.F.);
#434=ORIENTED_EDGE('',*,*,#318,.F.);
#435=ORIENTED_EDGE('',*,*,#315,.F.);
#436=ORIENTED_EDGE('',*,*,#319,.T.);
#437=ORIENTED_EDGE('',*,*,#320,.F.);
#438=ORIENTED_EDGE('',*,*,#316,.F.);
#439=ORIENTED_EDGE('',*,*,#314,.F.);
#440=ORIENTED_EDGE('',*,*,#321,.T.);
#441=ORIENTED_EDGE('',*,*,#322,.F.);
#442=ORIENTED_EDGE('',*,*,#319,.F.);
#443=ORIENTED_EDGE('',*,*,#313,.F.);
#444=ORIENTED_EDGE('',*,*,#318,.T.);
#445=ORIENTED_EDGE('',*,*,#323,.F.);
#446=ORIENTED_EDGE('',*,*,#321,.F.);
#447=ORIENTED_EDGE('',*,*,#311,.F.);
#448=ORIENTED_EDGE('',*,*,#324,.T.);
#449=ORIENTED_EDGE('',*,*,#325,.F.);
#450=ORIENTED_EDGE('',*,*,#324,.F.);
#451=ORIENTED_EDGE('',*,*,#257,.F.);
#452=ORIENTED_EDGE('',*,*,#259,.F.);
#453=ORIENTED_EDGE('',*,*,#263,.F.);
#454=ORIENTED_EDGE('',*,*,#265,.T.);
#455=ORIENTED_EDGE('',*,*,#269,.F.);
#456=ORIENTED_EDGE('',*,*,#272,.F.);
#457=ORIENTED_EDGE('',*,*,#275,.F.);
#458=ORIENTED_EDGE('',*,*,#277,.T.);
#459=ORIENTED_EDGE('',*,*,#281,.F.);
#460=ORIENTED_EDGE('',*,*,#284,.F.);
#461=ORIENTED_EDGE('',*,*,#287,.F.);
#462=ORIENTED_EDGE('',*,*,#289,.T.);
#463=ORIENTED_EDGE('',*,*,#293,.F.);
#464=ORIENTED_EDGE('',*,*,#296,.F.);
#465=ORIENTED_EDGE('',*,*,#299,.F.);
#466=ORIENTED_EDGE('',*,*,#301,.T.);
#467=ORIENTED_EDGE('',*,*,#305,.F.);
#468=ORIENTED_EDGE('',*,*,#308,.T.);
#469=ORIENTED_EDGE('',*,*,#310,.F.);
#470=ORIENTED_EDGE('',*,*,#254,.F.);
#471=ORIENTED_EDGE('',*,*,#317,.T.);
#472=ORIENTED_EDGE('',*,*,#320,.T.);
#473=ORIENTED_EDGE('',*,*,#322,.T.);
#474=ORIENTED_EDGE('',*,*,#323,.T.);
#475=ORIENTED_EDGE('',*,*,#325,.T.);
#476=CYLINDRICAL_SURFACE('',#528,1.);
#477=CYLINDRICAL_SURFACE('',#535,1.);
#478=CYLINDRICAL_SURFACE('',#541,1.);
#479=CYLINDRICAL_SURFACE('',#547,1.);
#480=CYLINDRICAL_SURFACE('',#553,1.);
#481=CYLINDRICAL_SURFACE('',#559,1.);
#482=CYLINDRICAL_SURFACE('',#565,1.);
#483=CYLINDRICAL_SURFACE('',#571,1.);
#484=CYLINDRICAL_SURFACE('',#577,1.);
#485=CYLINDRICAL_SURFACE('',#583,1.);
#486=CYLINDRICAL_SURFACE('',#594,10.);
#487=ADVANCED_FACE('',(#35),#476,.T.);
#488=ADVANCED_FACE('',(#36),#25,.T.);
#489=ADVANCED_FACE('',(#37),#477,.T.);
#490=ADVANCED_FACE('',(#38),#26,.T.);
#491=ADVANCED_FACE('',(#39),#478,.T.);
#492=ADVANCED_FACE('',(#40),#27,.T.);
#493=ADVANCED_FACE('',(#41),#479,.T.);
#494=ADVANCED_FACE('',(#42),#28,.T.);
#495=ADVANCED_FACE('',(#43),#480,.T.);
#496=ADVANCED_FACE('',(#44),#29,.T.);
#497=ADVANCED_FACE('',(#45),#481,.T.);
#498=ADVANCED_FACE('',(#46),#30,.T.);
#499=ADVANCED_FACE('',(#47),#482,.T.);
#500=ADVANCED_FACE('',(#48),#31,.T.);
#501=ADVANCED_FACE('',(#49),#483,.T.);
#502=ADVANCED_FACE('',(#50),#32,.T.);
#503=ADVANCED_FACE('',(#51),#484,.T.);
#504=ADVANCED_FACE('',(#52),#33,.T.);
#505=ADVANCED_FACE('',(#53),#485,.T.);
#506=ADVANCED_FACE('',(#54),#34,.T.);
#507=ADVANCED_FACE('',(#55,#15,#16),#19,.T.);
#508=ADVANCED_FACE('',(#56),#20,.F.);
#509=ADVANCED_FACE('',(#57),#21,.F.);
#510=ADVANCED_FACE('',(#58),#22,.F.);
#511=ADVANCED_FACE('',(#59),#23,.F.);
#512=ADVANCED_FACE('',(#60),#486,.F.);
#513=ADVANCED_FACE('',(#61,#17,#18),#24,.F.);
#514=CLOSED_SHELL('',(#487,#488,#489,#490,#491,#492,#493,#494,#495,#496,
#497,#498,#499,#500,#501,#502,#503,#504,#505,#506,#507,#508,#509,#510,#511,
#512,#513));
#515=DERIVED_UNIT_ELEMENT(#517,1.);
#516=DERIVED_UNIT_ELEMENT(#928,-3.);
#517=(
MASS_UNIT()
NAMED_UNIT(*)
SI_UNIT(.KILO.,.GRAM.)
);
#518=DERIVED_UNIT((#515,#516));
#519=MEASURE_REPRESENTATION_ITEM('density measure',
POSITIVE_RATIO_MEASURE(7850.),#518);
#520=PROPERTY_DEFINITION_REPRESENTATION(#525,#522);
#521=PROPERTY_DEFINITION_REPRESENTATION(#526,#523);
#522=REPRESENTATION('material name',(#524),#925);
#523=REPRESENTATION('density',(#519),#925);
#524=DESCRIPTIVE_REPRESENTATION_ITEM('Steel','Steel');
#525=PROPERTY_DEFINITION('material property','material name',#935);
#526=PROPERTY_DEFINITION('material property','density of part',#935);
#527=AXIS2_PLACEMENT_3D('',#770,#597,#598);
#528=AXIS2_PLACEMENT_3D('',#771,#599,#600);
#529=AXIS2_PLACEMENT_3D('',#774,#601,#602);
#530=AXIS2_PLACEMENT_3D('',#778,#604,#605);
#531=AXIS2_PLACEMENT_3D('',#780,#607,#608);
#532=AXIS2_PLACEMENT_3D('',#782,#609,#610);
#533=AXIS2_PLACEMENT_3D('',#784,#611,#612);
#534=AXIS2_PLACEMENT_3D('',#785,#613,#614);
#535=AXIS2_PLACEMENT_3D('',#786,#615,#616);
#536=AXIS2_PLACEMENT_3D('',#789,#617,#618);
#537=AXIS2_PLACEMENT_3D('',#792,#621,#622);
#538=AXIS2_PLACEMENT_3D('',#794,#623,#624);
#539=AXIS2_PLACEMENT_3D('',#796,#625,#626);
#540=AXIS2_PLACEMENT_3D('',#797,#627,#628);
#541=AXIS2_PLACEMENT_3D('',#798,#629,#630);
#542=AXIS2_PLACEMENT_3D('',#801,#631,#632);
#543=AXIS2_PLACEMENT_3D('',#804,#635,#636);
#544=AXIS2_PLACEMENT_3D('',#806,#637,#638);
#545=AXIS2_PLACEMENT_3D('',#808,#639,#640);
#546=AXIS2_PLACEMENT_3D('',#809,#641,#642);
#547=AXIS2_PLACEMENT_3D('',#810,#643,#644);
#548=AXIS2_PLACEMENT_3D('',#814,#646,#647);
#549=AXIS2_PLACEMENT_3D('',#816,#649,#650);
#550=AXIS2_PLACEMENT_3D('',#818,#651,#652);
#551=AXIS2_PLACEMENT_3D('',#820,#653,#654);
#552=AXIS2_PLACEMENT_3D('',#821,#655,#656);
#553=AXIS2_PLACEMENT_3D('',#822,#657,#658);
#554=AXIS2_PLACEMENT_3D('',#825,#659,#660);
#555=AXIS2_PLACEMENT_3D('',#828,#663,#664);
#556=AXIS2_PLACEMENT_3D('',#830,#665,#666);
#557=AXIS2_PLACEMENT_3D('',#832,#667,#668);
#558=AXIS2_PLACEMENT_3D('',#833,#669,#670);
#559=AXIS2_PLACEMENT_3D('',#834,#671,#672);
#560=AXIS2_PLACEMENT_3D('',#838,#674,#675);
#561=AXIS2_PLACEMENT_3D('',#840,#677,#678);
#562=AXIS2_PLACEMENT_3D('',#842,#679,#680);
#563=AXIS2_PLACEMENT_3D('',#844,#681,#682);
#564=AXIS2_PLACEMENT_3D('',#845,#683,#684);
#565=AXIS2_PLACEMENT_3D('',#846,#685,#686);
#566=AXIS2_PLACEMENT_3D('',#849,#687,#688);
#567=AXIS2_PLACEMENT_3D('',#852,#691,#692);
#568=AXIS2_PLACEMENT_3D('',#854,#693,#694);
#569=AXIS2_PLACEMENT_3D('',#856,#695,#696);
#570=AXIS2_PLACEMENT_3D('',#857,#697,#698);
#571=AXIS2_PLACEMENT_3D('',#858,#699,#700);
#572=AXIS2_PLACEMENT_3D('',#862,#702,#703);
#573=AXIS2_PLACEMENT_3D('',#864,#705,#706);
#574=AXIS2_PLACEMENT_3D('',#866,#707,#708);
#575=AXIS2_PLACEMENT_3D('',#868,#709,#710);
#576=AXIS2_PLACEMENT_3D('',#869,#711,#712);
#577=AXIS2_PLACEMENT_3D('',#870,#713,#714);
#578=AXIS2_PLACEMENT_3D('',#873,#715,#716);
#579=AXIS2_PLACEMENT_3D('',#876,#719,#720);
#580=AXIS2_PLACEMENT_3D('',#878,#721,#722);
#581=AXIS2_PLACEMENT_3D('',#880,#723,#724);
#582=AXIS2_PLACEMENT_3D('',#881,#725,#726);
#583=AXIS2_PLACEMENT_3D('',#882,#727,#728);
#584=AXIS2_PLACEMENT_3D('',#886,#730,#731);
#585=AXIS2_PLACEMENT_3D('',#888,#733,#734);
#586=AXIS2_PLACEMENT_3D('',#889,#735,#736);
#587=AXIS2_PLACEMENT_3D('',#890,#737,#738);
#588=AXIS2_PLACEMENT_3D('',#891,#739,#740);
#589=AXIS2_PLACEMENT_3D('',#893,#741,#742);
#590=AXIS2_PLACEMENT_3D('',#902,#747,#748);
#591=AXIS2_PLACEMENT_3D('',#908,#752,#753);
#592=AXIS2_PLACEMENT_3D('',#912,#756,#757);
#593=AXIS2_PLACEMENT_3D('',#916,#760,#761);
#594=AXIS2_PLACEMENT_3D('',#918,#763,#764);
#595=AXIS2_PLACEMENT_3D('',#921,#766,#767);
#596=AXIS2_PLACEMENT_3D('',#922,#768,#769);
#597=DIRECTION('axis',(0.,0.,1.));
#598=DIRECTION('refdir',(1.,0.,0.));
#599=DIRECTION('center_axis',(1.,0.,0.));
#600=DIRECTION('ref_axis',(0.,0.707106781186546,0.707106781186549));
#601=DIRECTION('center_axis',(1.,0.,0.));
#602=DIRECTION('ref_axis',(0.,1.,0.));
#603=DIRECTION('',(1.,0.,0.));
#604=DIRECTION('center_axis',(-1.,0.,0.));
#605=DIRECTION('ref_axis',(0.,0.,1.));
#606=DIRECTION('',(-1.,0.,0.));
#607=DIRECTION('center_axis',(0.,0.,-1.));
#608=DIRECTION('ref_axis',(-1.,0.,0.));
#609=DIRECTION('center_axis',(0.,0.,-1.));
#610=DIRECTION('ref_axis',(0.707106781186548,0.707106781186547,0.));
#611=DIRECTION('center_axis',(-4.4408920985006E-15,1.,0.));
#612=DIRECTION('ref_axis',(0.,0.,1.));
#613=DIRECTION('center_axis',(0.,0.,1.));
#614=DIRECTION('ref_axis',(0.707106781186547,0.707106781186547,0.));
#615=DIRECTION('center_axis',(0.,1.,0.));
#616=DIRECTION('ref_axis',(0.707106781186546,0.,0.707106781186549));
#617=DIRECTION('center_axis',(0.,1.,0.));
#618=DIRECTION('ref_axis',(0.,0.,1.));
#619=DIRECTION('',(0.,1.,0.));
#620=DIRECTION('',(0.,-1.,0.));
#621=DIRECTION('center_axis',(0.,0.,-1.));
#622=DIRECTION('ref_axis',(-1.,0.,0.));
#623=DIRECTION('center_axis',(0.,0.,-1.));
#624=DIRECTION('ref_axis',(0.980785280403231,-0.195090322016128,0.));
#625=DIRECTION('center_axis',(0.38268343236509,0.923879532511287,0.));
#626=DIRECTION('ref_axis',(0.,0.,1.));
#627=DIRECTION('center_axis',(0.,0.,1.));
#628=DIRECTION('ref_axis',(0.98078528040323,-0.195090322016128,0.));
#629=DIRECTION('center_axis',(0.38268343236509,0.923879532511287,0.));
#630=DIRECTION('ref_axis',(0.653281482438186,-0.2705980500731,0.707106781186549));
#631=DIRECTION('center_axis',(0.38268343236509,0.923879532511287,0.));
#632=DIRECTION('ref_axis',(0.,0.,1.));
#633=DIRECTION('',(-0.38268343236509,-0.923879532511287,0.));
#634=DIRECTION('',(-0.38268343236509,-0.923879532511287,0.));
#635=DIRECTION('center_axis',(0.,0.,-1.));
#636=DIRECTION('ref_axis',(-1.,0.,0.));
#637=DIRECTION('center_axis',(0.,0.,-1.));
#638=DIRECTION('ref_axis',(0.831469612302545,-0.555570233019602,0.));
#639=DIRECTION('center_axis',(0.707106781186545,0.70710678118655,0.));
#640=DIRECTION('ref_axis',(0.,0.,1.));
#641=DIRECTION('center_axis',(0.,0.,1.));
#642=DIRECTION('ref_axis',(0.831469612302545,-0.555570233019602,0.));
#643=DIRECTION('center_axis',(-0.707106781186548,-0.707106781186548,0.));
#644=DIRECTION('ref_axis',(0.5,-0.5,0.707106781186548));
#645=DIRECTION('',(-0.707106781186548,-0.707106781186548,0.));
#646=DIRECTION('center_axis',(0.707106781186545,0.70710678118655,0.));
#647=DIRECTION('ref_axis',(0.,0.,1.));
#648=DIRECTION('',(0.707106781186547,0.707106781186547,0.));
#649=DIRECTION('center_axis',(0.,0.,-1.));
#650=DIRECTION('ref_axis',(-1.,0.,0.));
#651=DIRECTION('center_axis',(0.,0.,-1.));
#652=DIRECTION('ref_axis',(0.555570233019602,-0.831469612302545,0.));
#653=DIRECTION('center_axis',(0.923879532511287,0.38268343236509,0.));
#654=DIRECTION('ref_axis',(0.,0.,1.));
#655=DIRECTION('center_axis',(0.,0.,1.));
#656=DIRECTION('ref_axis',(0.555570233019603,-0.831469612302545,0.));
#657=DIRECTION('center_axis',(0.923879532511287,0.38268343236509,0.));
#658=DIRECTION('ref_axis',(0.270598050073105,-0.653281482438186,0.707106781186548));
#659=DIRECTION('center_axis',(0.923879532511286,0.382683432365091,0.));
#660=DIRECTION('ref_axis',(0.,0.,1.));
#661=DIRECTION('',(-0.923879532511287,-0.38268343236509,0.));
#662=DIRECTION('',(-0.923879532511287,-0.38268343236509,0.));
#663=DIRECTION('center_axis',(0.,0.,-1.));
#664=DIRECTION('ref_axis',(-1.,0.,0.));
#665=DIRECTION('center_axis',(0.,0.,-1.));
#666=DIRECTION('ref_axis',(0.195090322016128,-0.980785280403231,0.));
#667=DIRECTION('center_axis',(1.,0.,0.));
#668=DIRECTION('ref_axis',(0.,0.,1.));
#669=DIRECTION('center_axis',(0.,0.,1.));
#670=DIRECTION('ref_axis',(0.195090322016128,-0.98078528040323,0.));
#671=DIRECTION('center_axis',(-1.,0.,0.));
#672=DIRECTION('ref_axis',(0.,-0.707106781186546,0.707106781186549));
#673=DIRECTION('',(-1.,0.,0.));
#674=DIRECTION('center_axis',(1.,0.,0.));
#675=DIRECTION('ref_axis',(0.,0.,1.));
#676=DIRECTION('',(1.,0.,0.));
#677=DIRECTION('center_axis',(0.,0.,-1.));
#678=DIRECTION('ref_axis',(-1.,0.,0.));
#679=DIRECTION('center_axis',(0.,0.,-1.));
#680=DIRECTION('ref_axis',(-0.195090322016128,-0.98078528040323,0.));
#681=DIRECTION('center_axis',(0.923879532511287,-0.38268343236509,0.));
#682=DIRECTION('ref_axis',(0.,0.,1.));
#683=DIRECTION('center_axis',(0.,0.,1.));
#684=DIRECTION('ref_axis',(-0.195090322016127,-0.980785280403231,0.));
#685=DIRECTION('center_axis',(0.923879532511287,-0.382683432365089,0.));
#686=DIRECTION('ref_axis',(-0.270598050073099,-0.653281482438187,0.707106781186549));
#687=DIRECTION('center_axis',(0.923879532511287,-0.38268343236509,0.));
#688=DIRECTION('ref_axis',(0.,0.,1.));
#689=DIRECTION('',(-0.923879532511287,0.382683432365089,0.));
#690=DIRECTION('',(-0.923879532511287,0.382683432365089,0.));
#691=DIRECTION('center_axis',(0.,0.,-1.));
#692=DIRECTION('ref_axis',(-1.,0.,0.));
#693=DIRECTION('center_axis',(0.,0.,-1.));
#694=DIRECTION('ref_axis',(-0.555570233019602,-0.831469612302546,0.));
#695=DIRECTION('center_axis',(0.707106781186548,-0.707106781186548,0.));
#696=DIRECTION('ref_axis',(0.,0.,1.));
#697=DIRECTION('center_axis',(0.,0.,1.));
#698=DIRECTION('ref_axis',(-0.555570233019602,-0.831469612302546,0.));
#699=DIRECTION('center_axis',(-0.707106781186548,0.707106781186548,0.));
#700=DIRECTION('ref_axis',(-0.5,-0.499999999999999,0.707106781186548));
#701=DIRECTION('',(-0.707106781186548,0.707106781186548,0.));
#702=DIRECTION('center_axis',(0.707106781186549,-0.707106781186546,0.));
#703=DIRECTION('ref_axis',(0.,0.,1.));
#704=DIRECTION('',(0.707106781186547,-0.707106781186547,0.));
#705=DIRECTION('center_axis',(0.,0.,-1.));
#706=DIRECTION('ref_axis',(-1.,0.,0.));
#707=DIRECTION('center_axis',(0.,0.,-1.));
#708=DIRECTION('ref_axis',(-0.831469612302545,-0.555570233019602,0.));
#709=DIRECTION('center_axis',(0.38268343236509,-0.923879532511287,0.));
#710=DIRECTION('ref_axis',(0.,0.,1.));
#711=DIRECTION('center_axis',(0.,0.,1.));
#712=DIRECTION('ref_axis',(-0.831469612302545,-0.555570233019602,0.));
#713=DIRECTION('center_axis',(0.38268343236509,-0.923879532511287,0.));
#714=DIRECTION('ref_axis',(-0.653281482438189,-0.2705980500731,0.707106781186547));
#715=DIRECTION('center_axis',(0.382683432365089,-0.923879532511287,0.));
#716=DIRECTION('ref_axis',(0.,0.,1.));
#717=DIRECTION('',(-0.38268343236509,0.923879532511287,0.));
#718=DIRECTION('',(-0.38268343236509,0.923879532511287,0.));
#719=DIRECTION('center_axis',(0.,0.,-1.));
#720=DIRECTION('ref_axis',(-1.,0.,0.));
#721=DIRECTION('center_axis',(0.,0.,-1.));
#722=DIRECTION('ref_axis',(-0.98078528040323,-0.195090322016128,0.));
#723=DIRECTION('center_axis',(0.,-1.,0.));
#724=DIRECTION('ref_axis',(0.,0.,1.));
#725=DIRECTION('center_axis',(0.,0.,1.));
#726=DIRECTION('ref_axis',(-0.98078528040323,-0.195090322016128,0.));
#727=DIRECTION('center_axis',(0.,1.,0.));
#728=DIRECTION('ref_axis',(-0.707106781186548,0.,0.707106781186547));
#729=DIRECTION('',(0.,1.,0.));
#730=DIRECTION('center_axis',(0.,-1.,0.));
#731=DIRECTION('ref_axis',(0.,0.,1.));
#732=DIRECTION('',(0.,1.,0.));
#733=DIRECTION('center_axis',(0.,0.,-1.));
#734=DIRECTION('ref_axis',(-1.,0.,0.));
#735=DIRECTION('center_axis',(0.,0.,-1.));
#736=DIRECTION('ref_axis',(-0.707106781186548,0.707106781186547,0.));
#737=DIRECTION('center_axis',(0.,0.,1.));
#738=DIRECTION('ref_axis',(-0.707106781186547,0.707106781186547,0.));
#739=DIRECTION('center_axis',(0.,0.,1.));
#740=DIRECTION('ref_axis',(1.,0.,0.));
#741=DIRECTION('center_axis',(0.,0.,-1.));
#742=DIRECTION('ref_axis',(-1.,0.,0.));
#743=DIRECTION('',(1.,0.,0.));
#744=DIRECTION('',(0.,-1.,0.));
#745=DIRECTION('',(-1.,0.,0.));
#746=DIRECTION('',(0.,1.,0.));
#747=DIRECTION('center_axis',(0.,1.,0.));
#748=DIRECTION('ref_axis',(1.,0.,0.));
#749=DIRECTION('',(0.,0.,-1.));
#750=DIRECTION('',(-1.,0.,0.));
#751=DIRECTION('',(0.,0.,-1.));
#752=DIRECTION('center_axis',(-1.,0.,0.));
#753=DIRECTION('ref_axis',(0.,1.,0.));
#754=DIRECTION('',(0.,0.,-1.));
#755=DIRECTION('',(0.,-1.,0.));
#756=DIRECTION('center_axis',(0.,-1.,0.));
#757=DIRECTION('ref_axis',(-1.,0.,0.));
#758=DIRECTION('',(0.,0.,-1.));
#759=DIRECTION('',(1.,0.,0.));
#760=DIRECTION('center_axis',(1.,0.,0.));
#761=DIRECTION('ref_axis',(0.,-1.,0.));
#762=DIRECTION('',(0.,1.,0.));
#763=DIRECTION('center_axis',(0.,0.,-1.));
#764=DIRECTION('ref_axis',(-1.,0.,0.));
#765=DIRECTION('',(0.,0.,-1.));
#766=DIRECTION('center_axis',(0.,0.,1.));
#767=DIRECTION('ref_axis',(-1.,0.,0.));
#768=DIRECTION('center_axis',(0.,0.,1.));
#769=DIRECTION('ref_axis',(1.,0.,0.));
#770=CARTESIAN_POINT('',(0.,0.,0.));
#771=CARTESIAN_POINT('Origin',(42.75,32.5,0.));
#772=CARTESIAN_POINT('',(-5.,33.5,0.));
#773=CARTESIAN_POINT('',(-5.,32.5,1.));
#774=CARTESIAN_POINT('Origin',(-5.,32.5,0.));
#775=CARTESIAN_POINT('',(62.,32.5,1.));
#776=CARTESIAN_POINT('',(42.75,32.5,1.));
#777=CARTESIAN_POINT('',(62.,33.5,0.));
#778=CARTESIAN_POINT('Origin',(62.,32.5,0.));
#779=CARTESIAN_POINT('',(57.,33.5,0.));
#780=CARTESIAN_POINT('Origin',(62.,28.5,0.));
#781=CARTESIAN_POINT('',(66.,28.5,1.));
#782=CARTESIAN_POINT('Origin',(62.,28.5,1.));
#783=CARTESIAN_POINT('',(67.,28.5,0.));
#784=CARTESIAN_POINT('Origin',(66.,28.5,0.));
#785=CARTESIAN_POINT('Origin',(62.,28.5,0.));
#786=CARTESIAN_POINT('Origin',(66.,0.5,0.));
#787=CARTESIAN_POINT('',(66.,0.994561836898281,1.));
#788=CARTESIAN_POINT('',(67.,0.994561836898281,0.));
#789=CARTESIAN_POINT('Origin',(66.,0.994561836898281,0.));
#790=CARTESIAN_POINT('',(67.,0.,0.));
#791=CARTESIAN_POINT('',(66.,0.5,1.));
#792=CARTESIAN_POINT('Origin',(62.,0.994561836898281,0.));
#793=CARTESIAN_POINT('',(65.6955181300451,-0.536171892562077,1.));
#794=CARTESIAN_POINT('Origin',(62.,0.994561836898281,1.));
#795=CARTESIAN_POINT('',(66.6193976625564,-0.918855324927165,0.));
#796=CARTESIAN_POINT('Origin',(65.6955181300451,-0.536171892562077,0.));
#797=CARTESIAN_POINT('Origin',(62.,0.994561836898281,0.));
#798=CARTESIAN_POINT('Origin',(63.4337999317059,-5.99644264125879,0.));
#799=CARTESIAN_POINT('',(63.5277906167978,-5.7695290545732,1.));
#800=CARTESIAN_POINT('',(64.4516701493091,-6.15221248693829,0.));
#801=CARTESIAN_POINT('Origin',(63.5277906167978,-5.7695290545732,0.));
#802=CARTESIAN_POINT('',(64.0710678118655,-7.07106781186547,0.));
#803=CARTESIAN_POINT('',(63.4337999317059,-5.99644264125879,1.));
#804=CARTESIAN_POINT('Origin',(59.8322724867526,-4.23879532511284,0.));
#805=CARTESIAN_POINT('',(62.6606996114988,-7.06722244985903,1.));
#806=CARTESIAN_POINT('Origin',(59.8322724867526,-4.23879532511284,1.));
#807=CARTESIAN_POINT('',(63.3678063926854,-7.77432923104558,0.));
#808=CARTESIAN_POINT('Origin',(62.6606996114988,-7.06722244985903,0.));
#809=CARTESIAN_POINT('Origin',(59.8322724867526,-4.23879532511284,0.));
#810=CARTESIAN_POINT('Origin',(45.7389610306789,-23.9889610306789,0.));
#811=CARTESIAN_POINT('',(42.5672224498591,-27.1606996114988,1.));
#812=CARTESIAN_POINT('',(45.7389610306789,-23.9889610306789,1.));
#813=CARTESIAN_POINT('',(43.2743292310456,-27.8678063926853,0.));
#814=CARTESIAN_POINT('Origin',(42.5672224498591,-27.1606996114988,0.));
#815=CARTESIAN_POINT('',(42.5710678118655,-28.5710678118655,0.));
#816=CARTESIAN_POINT('Origin',(39.7387953251129,-24.3322724867526,0.));
#817=CARTESIAN_POINT('',(41.2695290545732,-28.0277906167978,1.));
#818=CARTESIAN_POINT('Origin',(39.7387953251129,-24.3322724867526,1.));
#819=CARTESIAN_POINT('',(41.6522124869383,-28.951670149309,0.));
#820=CARTESIAN_POINT('Origin',(41.2695290545732,-28.0277906167978,0.));
#821=CARTESIAN_POINT('Origin',(39.7387953251129,-24.3322724867526,0.));
#822=CARTESIAN_POINT('Origin',(41.4106562036319,-27.9693338376386,0.));
#823=CARTESIAN_POINT('',(36.0361718925621,-30.1955181300452,1.));
#824=CARTESIAN_POINT('',(36.4188553249272,-31.1193976625564,0.));
#825=CARTESIAN_POINT('Origin',(36.0361718925621,-30.1955181300452,0.));
#826=CARTESIAN_POINT('',(35.5,-31.5,0.));
#827=CARTESIAN_POINT('',(41.4106562036319,-27.9693338376386,1.));
#828=CARTESIAN_POINT('Origin',(34.5054381631017,-26.5,0.));
#829=CARTESIAN_POINT('',(34.5054381631017,-30.5,1.));
#830=CARTESIAN_POINT('Origin',(34.5054381631017,-26.5,1.));
#831=CARTESIAN_POINT('',(34.5054381631017,-31.5,0.));
#832=CARTESIAN_POINT('Origin',(34.5054381631017,-30.5,0.));
#833=CARTESIAN_POINT('Origin',(34.5054381631017,-26.5,0.));
#834=CARTESIAN_POINT('Origin',(25.,-30.5,0.));
#835=CARTESIAN_POINT('',(22.4945618368983,-30.5,1.));
#836=CARTESIAN_POINT('',(25.,-30.5,1.));
#837=CARTESIAN_POINT('',(22.4945618368983,-31.5,0.));
#838=CARTESIAN_POINT('Origin',(22.4945618368983,-30.5,0.));
#839=CARTESIAN_POINT('',(35.5,-31.5,0.));
#840=CARTESIAN_POINT('Origin',(22.4945618368983,-26.5,0.));
#841=CARTESIAN_POINT('',(20.9638281074379,-30.1955181300451,1.));
#842=CARTESIAN_POINT('Origin',(22.4945618368983,-26.5,1.));
#843=CARTESIAN_POINT('',(20.5811446750728,-31.1193976625564,0.));
#844=CARTESIAN_POINT('Origin',(20.9638281074379,-30.1955181300451,0.));
#845=CARTESIAN_POINT('Origin',(22.4945618368983,-26.5,0.));
#846=CARTESIAN_POINT('Origin',(19.1248777023009,-29.4337999317059,0.));
#847=CARTESIAN_POINT('',(15.7304709454268,-28.0277906167978,1.));
#848=CARTESIAN_POINT('',(15.3477875130617,-28.9516701493091,0.));
#849=CARTESIAN_POINT('Origin',(15.7304709454268,-28.0277906167978,0.));
#850=CARTESIAN_POINT('',(14.4289321881345,-28.5710678118655,0.));
#851=CARTESIAN_POINT('',(19.1248777023009,-29.4337999317059,1.));
#852=CARTESIAN_POINT('Origin',(17.2612046748871,-24.3322724867526,0.));
#853=CARTESIAN_POINT('',(14.4327775501409,-27.1606996114988,1.));
#854=CARTESIAN_POINT('Origin',(17.2612046748871,-24.3322724867526,1.));
#855=CARTESIAN_POINT('',(13.7256707689544,-27.8678063926854,0.));
#856=CARTESIAN_POINT('Origin',(14.4327775501409,-27.1606996114988,0.));
#857=CARTESIAN_POINT('Origin',(17.2612046748871,-24.3322724867526,0.));
#858=CARTESIAN_POINT('Origin',(0.511038969321069,-13.2389610306789,0.));
#859=CARTESIAN_POINT('',(-5.6606996114988,-7.06722244985906,1.));
#860=CARTESIAN_POINT('',(0.511038969321069,-13.2389610306789,1.));
#861=CARTESIAN_POINT('',(-6.36780639268535,-7.77432923104561,0.));
#862=CARTESIAN_POINT('Origin',(-5.6606996114988,-7.06722244985906,0.));
#863=CARTESIAN_POINT('',(-7.07106781186548,-7.07106781186548,0.));
#864=CARTESIAN_POINT('Origin',(-2.83227248675261,-4.23879532511287,0.));
#865=CARTESIAN_POINT('',(-6.52779061679776,-5.76952905457323,1.));
#866=CARTESIAN_POINT('Origin',(-2.83227248675261,-4.23879532511287,1.));
#867=CARTESIAN_POINT('',(-7.45167014930904,-6.15221248693832,0.));
#868=CARTESIAN_POINT('Origin',(-6.52779061679776,-5.76952905457323,0.));
#869=CARTESIAN_POINT('Origin',(-2.83227248675261,-4.23879532511287,0.));
#870=CARTESIAN_POINT('Origin',(-4.96933383763861,-9.53197654719153,0.));
#871=CARTESIAN_POINT('',(-8.69551813004515,-0.536171892562067,1.));
#872=CARTESIAN_POINT('',(-9.61939766255643,-0.918855324927157,0.));
#873=CARTESIAN_POINT('Origin',(-8.69551813004515,-0.536171892562067,0.));
#874=CARTESIAN_POINT('',(-10.,0.,0.));
#875=CARTESIAN_POINT('',(-4.96933383763861,-9.53197654719153,1.));
#876=CARTESIAN_POINT('Origin',(-5.,0.994561836898291,0.));
#877=CARTESIAN_POINT('',(-9.,0.994561836898291,1.));
#878=CARTESIAN_POINT('Origin',(-5.,0.994561836898291,1.));
#879=CARTESIAN_POINT('',(-10.,0.994561836898291,0.));
#880=CARTESIAN_POINT('Origin',(-9.,0.994561836898291,0.));
#881=CARTESIAN_POINT('Origin',(-5.,0.994561836898291,0.));
#882=CARTESIAN_POINT('Origin',(-9.,12.25,0.));
#883=CARTESIAN_POINT('',(-9.,28.5,1.));
#884=CARTESIAN_POINT('',(-9.,12.25,1.));
#885=CARTESIAN_POINT('',(-10.,28.5,0.));
#886=CARTESIAN_POINT('Origin',(-9.,28.5,0.));
#887=CARTESIAN_POINT('',(-10.,23.5,0.));
#888=CARTESIAN_POINT('Origin',(-5.,28.5,0.));
#889=CARTESIAN_POINT('Origin',(-5.,28.5,1.));
#890=CARTESIAN_POINT('Origin',(-5.,28.5,0.));
#891=CARTESIAN_POINT('Origin',(28.5,1.,1.));
#892=CARTESIAN_POINT('',(38.5,-9.251,1.));
#893=CARTESIAN_POINT('Origin',(28.5,-9.251,1.));
#894=CARTESIAN_POINT('',(0.,20.662,1.));
#895=CARTESIAN_POINT('',(57.,20.662,1.));
#896=CARTESIAN_POINT('',(14.25,20.662,1.));
#897=CARTESIAN_POINT('',(57.,1.776,1.));
#898=CARTESIAN_POINT('',(57.,10.831,1.));
#899=CARTESIAN_POINT('',(0.,1.776,1.));
#900=CARTESIAN_POINT('',(42.75,1.776,1.));
#901=CARTESIAN_POINT('',(0.,1.388,1.));
#902=CARTESIAN_POINT('Origin',(0.,20.662,1.));
#903=CARTESIAN_POINT('',(0.,20.662,0.));
#904=CARTESIAN_POINT('',(0.,20.662,1.));
#905=CARTESIAN_POINT('',(57.,20.662,0.));
#906=CARTESIAN_POINT('',(14.25,20.662,0.));
#907=CARTESIAN_POINT('',(57.,20.662,1.));
#908=CARTESIAN_POINT('Origin',(0.,1.776,1.));
#909=CARTESIAN_POINT('',(0.,1.776,0.));
#910=CARTESIAN_POINT('',(0.,1.776,1.));
#911=CARTESIAN_POINT('',(0.,1.388,0.));
#912=CARTESIAN_POINT('Origin',(57.,1.776,1.));
#913=CARTESIAN_POINT('',(57.,1.776,0.));
#914=CARTESIAN_POINT('',(57.,1.776,1.));
#915=CARTESIAN_POINT('',(42.75,1.776,0.));
#916=CARTESIAN_POINT('Origin',(57.,20.662,1.));
#917=CARTESIAN_POINT('',(57.,10.831,0.));
#918=CARTESIAN_POINT('Origin',(28.5,-9.251,1.));
#919=CARTESIAN_POINT('',(38.5,-9.251,0.));
#920=CARTESIAN_POINT('',(38.5,-9.251,1.));
#921=CARTESIAN_POINT('Origin',(28.5,-9.251,0.));
#922=CARTESIAN_POINT('Origin',(28.5,1.,0.));
#923=UNCERTAINTY_MEASURE_WITH_UNIT(LENGTH_MEASURE(0.01),#927,
'DISTANCE_ACCURACY_VALUE',
'Maximum model space distance between geometric entities at asserted c
onnectivities');
#924=UNCERTAINTY_MEASURE_WITH_UNIT(LENGTH_MEASURE(0.01),#927,
'DISTANCE_ACCURACY_VALUE',
'Maximum model space distance between geometric entities at asserted c
onnectivities');
#925=(
GEOMETRIC_REPRESENTATION_CONTEXT(3)
GLOBAL_UNCERTAINTY_ASSIGNED_CONTEXT((#923))
GLOBAL_UNIT_ASSIGNED_CONTEXT((#927,#929,#930))
REPRESENTATION_CONTEXT('','3D')
);
#926=(
GEOMETRIC_REPRESENTATION_CONTEXT(3)
GLOBAL_UNCERTAINTY_ASSIGNED_CONTEXT((#924))
GLOBAL_UNIT_ASSIGNED_CONTEXT((#927,#929,#930))
REPRESENTATION_CONTEXT('','3D')
);
#927=(
LENGTH_UNIT()
NAMED_UNIT(*)
SI_UNIT(.MILLI.,.METRE.)
);
#928=(
LENGTH_UNIT()
NAMED_UNIT(*)
SI_UNIT($,.METRE.)
);
#929=(
NAMED_UNIT(*)
PLANE_ANGLE_UNIT()
SI_UNIT($,.RADIAN.)
);
#930=(
NAMED_UNIT(*)
SI_UNIT($,.STERADIAN.)
SOLID_ANGLE_UNIT()
);
#931=SHAPE_DEFINITION_REPRESENTATION(#932,#933);
#932=PRODUCT_DEFINITION_SHAPE('',$,#935);
#933=SHAPE_REPRESENTATION('',(#527),#925);
#934=PRODUCT_DEFINITION_CONTEXT('part definition',#939,'design');
#935=PRODUCT_DEFINITION('2026-08-10-16-30-58-784','Top',#936,#934);
#936=PRODUCT_DEFINITION_FORMATION('',$,#941);
#937=PRODUCT_RELATED_PRODUCT_CATEGORY('Top','Top',(#941));
#938=APPLICATION_PROTOCOL_DEFINITION('international standard',
'automotive_design',2009,#939);
#939=APPLICATION_CONTEXT(
'Core Data for Automotive Mechanical Design Process');
#940=PRODUCT_CONTEXT('part definition',#939,'mechanical');
#941=PRODUCT('2026-08-10-16-30-58-784','Top',$,(#940));
#942=PRESENTATION_STYLE_ASSIGNMENT((#943));
#943=SURFACE_STYLE_USAGE(.BOTH.,#944);
#944=SURFACE_SIDE_STYLE('',(#945));
#945=SURFACE_STYLE_FILL_AREA(#946);
#946=FILL_AREA_STYLE('Steel - Satin',(#947));
#947=FILL_AREA_STYLE_COLOUR('Steel - Satin',#948);
#948=COLOUR_RGB('Steel - Satin',0.627450980392157,0.627450980392157,0.627450980392157);
ENDSEC;
END-ISO-10303-21;
